<?xml version="1.0" encoding="UTF-8"?>
<svg id="Layer_1" data-name="Layer 1" xmlns="http://www.w3.org/2000/svg" viewBox="0 0 2904.68 841.89">
  <defs>
    <style>
      .cls-1 {
        letter-spacing: 0em;
      }

      .cls-1, .cls-2, .cls-3, .cls-4 {
        font-family: Montserrat-Light, Montserrat;
      }

      .cls-5 {
        fill: #010101;
      }

      .cls-6 {
        fill: #ffd804;
      }

      .cls-7 {
        font-family: Montserrat-Bold, Montserrat;
      }

      .cls-3 {
        letter-spacing: 0em;
      }

      .cls-4 {
        letter-spacing: -.02em;
      }

      .cls-8 {
        fill: #231f20;
        font-size: 302px;
      }
    </style>
  </defs>
  <circle class="cls-6" cx="351.52" cy="411.23" r="351.52"/>
  <g id="LRgsG8.tif">
    <g>
      <path class="cls-5" d="M544.24,262.6c0,13.38-.05,26.76,.05,40.13,.02,2.42-.49,2.77-2.76,1.93-29.93-11.01-60.41-20.13-91.64-26.66-23.23-4.85-46.66-8.23-70.41-9.28-23.72-1.05-47.21,.25-70.31,6.02-21.21,5.3-40.6,14.27-56.95,29.12-17.62,16.01-28.4,36.04-34.41,58.82-7.16,27.12-7.21,54.65-4.49,82.32,.27,2.72,.62,5.43,.9,8.15,.06,.54,.36,1.23-.32,1.57-.64,.33-1.09-.21-1.52-.59-2.41-2.14-4.84-4.26-7.21-6.44-17.62-16.23-33.48-33.93-44.97-55.13-22.02-40.64-21.4-81.14,1.72-121.05,16.81-29.02,41.82-48.79,72.42-61.79,23.86-10.14,48.87-15.81,74.54-18.88,34.68-4.14,69.35-3.59,104.03-.02,43.79,4.5,86.61,13.45,128.32,27.61,2.37,.81,3.08,1.87,3.06,4.32-.13,13.28-.06,26.56-.06,39.84Z"/>
      <path class="cls-5" d="M343.46,634.5c-24.34-.11-48.56-1.88-72.67-5.18-37.07-5.07-73.41-13.22-108.85-25.3-2.43-.83-3.21-1.91-3.19-4.51,.11-26.46,.07-52.92,.07-79.39,0-3.32,0-3.33,3.15-2.18,34.9,12.82,70.54,23.03,107.16,29.6,24.15,4.34,48.51,6.96,73.08,6.5,24.81-.46,49.18-3.65,72.4-13.08,37.23-15.12,60.37-42.55,70.62-81.11,7.21-27.11,7.24-54.65,4.53-82.32-.26-2.62-.59-5.24-.87-7.86-.07-.66-.45-1.52,.17-1.93,.85-.57,1.4,.36,1.95,.84,7.4,6.39,14.5,13.09,21.21,20.19,13.9,14.69,26.09,30.62,34.71,49.04,16.37,34.99,15.97,69.97-1.12,104.49-16.59,33.51-43.39,56.13-77.52,70.55-23.98,10.13-49.09,15.76-74.86,18.81-16.6,1.96-33.26,2.79-49.97,2.85Z"/>
      <path class="cls-5" d="M381.58,334.68c-24.49,15.13-26.94,45.23-11.77,63.83,15.17,18.59,45.86,22.34,65.55,.6,5.8,21.78-.92,59.93-32.67,83.35-33.46,24.68-79.05,21.17-108.41-6.39-31.87-29.92-34.82-76.89-12.38-109.58,23.91-34.84,66.98-44.74,99.68-31.81Z"/>
    </g>
  </g>
  <text class="cls-8" transform="translate(809.27 508.04)"><tspan class="cls-7" x="0" y="0">Sight</tspan><tspan class="cls-4" x="835.02" y="0">C</tspan><tspan class="cls-2" x="1044" y="0">on</tspan><tspan class="cls-1" x="1434.49" y="0">n</tspan><tspan class="cls-2" x="1638.03" y="0">e</tspan><tspan class="cls-3" x="1818.32" y="0">c</tspan><tspan class="cls-2" x="1987.74" y="0">t</tspan></text>
</svg>