<svg xmlns="http://www.w3.org/2000/svg" width="171.027" height="24" viewBox="0 0 171.027 24">
  <g id="SightConnect_logo" data-name="SightConnect logo" transform="translate(-126 -134)">
    <g id="Group_40327" data-name="Group 40327" transform="translate(198.142 136.008)">
      <path id="Path_45910" data-name="Path 45910" d="M189.818,13.89a8.474,8.474,0,0,1,8.8-8.606,8.091,8.091,0,0,1,6.036,2.351l-.775.8a7.113,7.113,0,0,0-5.213-2.011,7.369,7.369,0,0,0-7.61,7.467,7.368,7.368,0,0,0,7.61,7.465,7.131,7.131,0,0,0,5.213-2.035l.775.8a8.109,8.109,0,0,1-6.036,2.374,8.474,8.474,0,0,1-8.8-8.6" transform="translate(-189.818 -5.284)" fill="#050605"/>
      <path id="Path_45911" data-name="Path 45911" d="M232.577,23.125a6.328,6.328,0,1,1,12.654,0,6.328,6.328,0,1,1-12.654,0m11.416,0a5.1,5.1,0,1,0-10.181,0,5.1,5.1,0,1,0,10.181,0" transform="translate(-216.326 -12.361)" fill="#050605"/>
      <path id="Path_45912" data-name="Path 45912" d="M285.79,22.057v7.393h-1.212v-7.3c0-2.86-1.525-4.362-4.1-4.362-2.983,0-4.8,1.915-4.8,4.921v6.738H274.47V16.8h1.165v2.74a5.219,5.219,0,0,1,5.017-2.837c3.077,0,5.138,1.819,5.138,5.357" transform="translate(-242.297 -12.361)" fill="#050605"/>
      <path id="Path_45913" data-name="Path 45913" d="M367,23.415H356.119a5.416,5.416,0,0,0,9.406,3.272l.7.8a6.059,6.059,0,0,1-4.777,2.06,6.211,6.211,0,0,1-6.52-6.422c0-3.758,2.594-6.425,6.059-6.425s6.036,2.617,6.036,6.375c0,.1-.024.219-.024.34m-10.86-.946h9.7a4.85,4.85,0,0,0-9.7,0" transform="translate(-292.18 -12.361)" fill="#050605"/>
      <path id="Path_45914" data-name="Path 45914" d="M393.609,23.125a6.168,6.168,0,0,1,6.4-6.425,5.551,5.551,0,0,1,4.8,2.327l-.9.655a4.62,4.62,0,0,0-3.9-1.891,5.023,5.023,0,0,0-5.163,5.333,5.022,5.022,0,0,0,5.163,5.331,4.622,4.622,0,0,0,3.9-1.889l.9.654a5.611,5.611,0,0,1-4.8,2.326,6.18,6.18,0,0,1-6.4-6.422" transform="translate(-316.156 -12.361)" fill="#050605"/>
      <path id="Path_45915" data-name="Path 45915" d="M436.358,24.3a3.836,3.836,0,0,1-2.594.9,3.138,3.138,0,0,1-3.442-3.442V13.49h-2.328V12.447h2.328V9.684h1.212v2.763h4.025V13.49h-4.025v8.146c0,1.624.8,2.52,2.353,2.52a2.907,2.907,0,0,0,1.962-.7Z" transform="translate(-337.473 -8.012)" fill="#050605"/>
      <path id="Path_45916" data-name="Path 45916" d="M327.214,22.057v7.393H326v-7.3c0-2.86-1.525-4.362-4.1-4.362-2.983,0-4.8,1.915-4.8,4.921v6.738h-1.212V16.8h1.165v2.74a5.219,5.219,0,0,1,5.018-2.837c3.077,0,5.138,1.819,5.138,5.357" transform="translate(-267.978 -12.361)" fill="#050605"/>
    </g>
    <g id="signt_Connect" data-name="signt Connect" transform="translate(126 134)">
      <path id="Path_45917" data-name="Path 45917" d="M0,7.837c.045,2.035,1.418,3.71,2.893,4.983.028.024.058.011.053-.027-1.217-9.6,7.675-8.549,13.869-6.247V2.927c-3.726-1.335-10.245-2.2-14,.082A5.669,5.669,0,0,0,0,7.837" transform="translate(0 -0.99)" fill="#050605" fill-rule="evenodd"/>
      <path id="Path_45918" data-name="Path 45918" d="M18.427,26.451c-.045-2.035-1.418-3.71-2.893-4.983-.028-.024-.058-.011-.053.027,1.217,9.6-7.675,8.549-13.869,6.247v3.619c3.726,1.335,10.245,2.2,14-.082a5.669,5.669,0,0,0,2.819-4.828" transform="translate(-0.999 -13.301)" fill="#050605" fill-rule="evenodd"/>
      <path id="Path_45919" data-name="Path 45919" d="M17.94,20.162a1.788,1.788,0,0,1,.5-2.7,3.569,3.569,0,1,0,2.26,2.68,1.792,1.792,0,0,1-2.757.022" transform="translate(-8.442 -10.682)" fill="#050605" fill-rule="evenodd"/>
      <path id="Path_45920" data-name="Path 45920" d="M52.461,2.11A2.163,2.163,0,0,1,54.815,0a2.125,2.125,0,0,1,2.354,2.037,2.364,2.364,0,0,1-4.708.073m.461,3.932h3.785V19.1H52.922Z" transform="translate(-32.523)" fill="#050605"/>
      <path id="Path_45921" data-name="Path 45921" d="M85.238,15.58V26.452c0,4.852-2.621,7.085-7.329,7.085a10.755,10.755,0,0,1-6.407-1.8l1.5-2.719A7.8,7.8,0,0,0,77.617,30.5c2.67,0,3.834-1.214,3.834-3.568v-.557A5.38,5.38,0,0,1,77.326,28a6.314,6.314,0,1,1,0-12.62,5.24,5.24,0,0,1,4.32,1.869V15.58ZM81.5,21.7a3.442,3.442,0,1,0-3.421,3.2A3.171,3.171,0,0,0,81.5,21.7" transform="translate(-43.89 -9.538)" fill="#050605"/>
      <path id="Path_45922" data-name="Path 45922" d="M131.421,13.4v7.475h-3.786V13.984c0-2.11-.97-3.083-2.645-3.083-1.82,0-3.131,1.117-3.131,3.52v6.455h-3.786V2.869h3.786V9.178a5.746,5.746,0,0,1,4.149-1.553c3.083,0,5.412,1.8,5.412,5.776" transform="translate(-73.198 -1.779)" fill="#050605"/>
      <path id="Path_45923" data-name="Path 45923" d="M168.107,23.611a5.419,5.419,0,0,1-3.082.824c-3.081,0-4.878-1.576-4.878-4.682V14.39h-2.014V11.477h2.014V8.3h3.786v3.179h3.251V14.39h-3.251V19.7c0,1.9,1.969,2.141,3.154,1.239Z" transform="translate(-98.033 -5.144)" fill="#050605"/>
    </g>
  </g>
</svg>
