<svg id="Eye_Care_for_All_" data-name="Eye Care for All " xmlns="http://www.w3.org/2000/svg" width="30" height="30" viewBox="0 0 30 30">
  <circle id="Ellipse_93" data-name="Ellipse 93" cx="15" cy="15" r="15" fill="#fff" opacity="0"/>
  <path id="Subtraction_9" data-name="Subtraction 9" d="M0,30H0V25H0a10.07,10.07,0,0,0,2.015-.2,9.95,9.95,0,0,0,1.877-.583,10,10,0,0,0,1.7-.922,10.072,10.072,0,0,0,1.48-1.221,10.072,10.072,0,0,0,1.221-1.48,10,10,0,0,0,.922-1.7A9.95,9.95,0,0,0,9.8,17.015,10.074,10.074,0,0,0,10,15a10.074,10.074,0,0,0-.2-2.015,9.95,9.95,0,0,0-.583-1.877,10,10,0,0,0-.922-1.7,10.072,10.072,0,0,0-1.221-1.48,10.072,10.072,0,0,0-1.48-1.221,10,10,0,0,0-1.7-.922A9.949,9.949,0,0,0,2.015,5.2,10.073,10.073,0,0,0,0,5V0A15.11,15.11,0,0,1,3.023.3a14.924,14.924,0,0,1,2.816.874A15,15,0,0,1,8.387,2.562a15.108,15.108,0,0,1,2.22,1.832,15.108,15.108,0,0,1,1.832,2.22,15,15,0,0,1,1.383,2.548,14.925,14.925,0,0,1,.874,2.816A15.111,15.111,0,0,1,15,15a15.111,15.111,0,0,1-.3,3.023,14.925,14.925,0,0,1-.874,2.816,15,15,0,0,1-1.383,2.548,15.107,15.107,0,0,1-1.832,2.22,15.109,15.109,0,0,1-2.22,1.832,15,15,0,0,1-2.548,1.383,14.924,14.924,0,0,1-2.816.874A15.11,15.11,0,0,1,0,30Z" transform="translate(30 15) rotate(90)" fill="#286df6"/>
  <path id="Subtraction_10" data-name="Subtraction 10" d="M20,10H15a5.037,5.037,0,0,0-.1-1.008A4.972,4.972,0,0,0,14.146,7.2a5.015,5.015,0,0,0-2.2-1.812,4.975,4.975,0,0,0-.939-.291,5.049,5.049,0,0,0-2.015,0A4.973,4.973,0,0,0,7.2,5.854a5.015,5.015,0,0,0-1.812,2.2,4.974,4.974,0,0,0-.291.939A5.037,5.037,0,0,0,5,10H0A10.074,10.074,0,0,1,.2,7.985a9.945,9.945,0,0,1,1.5-3.576A10.029,10.029,0,0,1,6.108.786,9.95,9.95,0,0,1,7.985.2a10.1,10.1,0,0,1,4.031,0,9.945,9.945,0,0,1,3.576,1.5,10.029,10.029,0,0,1,3.623,4.4A9.949,9.949,0,0,1,19.8,7.985,10.073,10.073,0,0,1,20,10Z" transform="translate(5 5)" fill="#286df6" stroke="rgba(0,0,0,0)" stroke-width="1"/>
  <g id="Group_16497" data-name="Group 16497" transform="translate(10 10)">
    <circle id="Ellipse_89" data-name="Ellipse 89" cx="5" cy="5" r="5"/>
    <circle id="Ellipse_90" data-name="Ellipse 90" cx="1" cy="1" r="1" transform="translate(7 3)" fill="#fff"/>
    <circle id="Ellipse_91" data-name="Ellipse 91" cx="0.5" cy="0.5" r="0.5" transform="translate(6 2)" fill="#fff"/>
  </g>
</svg>
