<svg xmlns="http://www.w3.org/2000/svg" width="19.048" height="20" viewBox="0 0 19.048 20">
  <path id="Privacy_and_Data_Protection" data-name="Privacy and Data Protection" d="M3,5.571a.714.714,0,0,1,.714-.714,12.248,12.248,0,0,0,7.429-2.714.714.714,0,0,1,.857,0,12.248,12.248,0,0,0,7.429,2.714.714.714,0,0,1,.714.714v5q0,.259-.011.513a3.332,3.332,0,0,0-1.417-.851V6.265A13.68,13.68,0,0,1,11.571,3.6,13.68,13.68,0,0,1,4.429,6.265v4.307c0,4.053,2.337,7.028,7.143,8.992q.494-.2.952-.418v1.425q0,.07,0,.14-.34.147-.695.287a.714.714,0,0,1-.524,0C5.817,18.834,3,15.334,3,10.571Zm12.381,8.81v-.952a2.381,2.381,0,1,1,4.762,0v.952h.476a1.429,1.429,0,0,1,1.429,1.429v4.762A1.429,1.429,0,0,1,20.619,22H14.9a1.429,1.429,0,0,1-1.429-1.429V15.81A1.429,1.429,0,0,1,14.9,14.381Zm1.429-.952v.952h1.9v-.952a.952.952,0,0,0-1.9,0Zm1.9,4.762a.952.952,0,1,0-.952.952A.952.952,0,0,0,18.714,18.19Z" transform="translate(-3 -2)" fill="#296df6"/>
</svg>
