<svg xmlns="http://www.w3.org/2000/svg" width="19.997" height="16.396" viewBox="0 0 19.997 16.396">
  <path id="sign_out" data-name="sign out" d="M8.5,11.5a1,1,0,1,1-1,1A1,1,0,0,1,8.5,11.5ZM12,4.354V11h7.441L17.72,9.28a.75.75,0,0,1-.073-.977l.073-.084a.75.75,0,0,1,.976-.072l.084.073,3,3a.75.75,0,0,1,.073.976l-.073.084-3,3a.75.75,0,0,1-1.134-.975l.073-.084L19.432,12.5H12V19.25a.75.75,0,0,1-.88.739l-8.5-1.5A.75.75,0,0,1,2,17.748v-12a.75.75,0,0,1,.628-.74l8.5-1.4A.75.75,0,0,1,12,4.354Zm-1.5.883-7,1.15V17.119l7,1.236ZM13,18.5h.765l.1-.007a.75.75,0,0,0,.648-.744l-.007-4.25H13ZM13,10l0-1.275V5h.745a.75.75,0,0,1,.743.647l.007.1L14.5,10Z" transform="translate(-2 -3.604)" fill="#296df6"/>
</svg>
