<svg xmlns="http://www.w3.org/2000/svg" width="11.399" height="11.44" viewBox="0 0 11.399 11.44">
  <path id="Path_10043" data-name="Path 10043" d="M11279.4,3723.53a1.133,1.133,0,0,1,1.1.82h-7.4a.417.417,0,0,0-.4.41v.31a1.17,1.17,0,0,0,.3.8,4.164,4.164,0,0,0,3.3,1.2h0c.1.1.2.2.2.28l.5.5a5.519,5.519,0,0,1-.7.04,4.7,4.7,0,0,1-3.9-1.49,2.138,2.138,0,0,1-.5-1.33v-.31a1.191,1.191,0,0,1,1.2-1.23Zm-3.1-6.53a2.726,2.726,0,1,1-2.8,2.73A2.708,2.708,0,0,1,11276.3,3717Zm0,.82a1.907,1.907,0,1,0,0,3.81,1.9,1.9,0,0,0,0-3.81Zm2.6,7.78a.6.6,0,0,0,0-.58c-.2-.16-.5-.16-.6,0l-1.4,1.36a.468.468,0,0,0,0,.58l1.4,1.36c.1.16.4.16.6,0a.6.6,0,0,0,0-.58l-.7-.66h3.7l-.6.66a.355.355,0,0,0,0,.58.321.321,0,0,0,.5,0l1.4-1.36a.472.472,0,0,0,0-.58l-1.3-1.36c-.2-.16-.5-.16-.6,0a.355.355,0,0,0,0,.58l.6.66h-3.7Z" transform="translate(-11271.9 -3717)" fill="#242424"/>
</svg>
