<svg xmlns="http://www.w3.org/2000/svg" width="160.86" height="160" viewBox="0 0 160.86 160">
  <g id="Eye_Assessment" data-name="Eye Assessment" transform="translate(2.624 -5.734)">
    <g id="Outline" transform="translate(126.237 37.734)">
      <g id="Outline-2" data-name="Outline" transform="translate(0 0)">
        <path id="Path_38080" data-name="Path 38080" d="M272.533,54.933h4.8a.533.533,0,1,0,0-1.067h-4.267V52h4.267a.533.533,0,1,0,0-1.067h-4.267V49.067h4.267a.533.533,0,1,0,0-1.067h-4.8a.533.533,0,0,0-.533.533V54.4A.533.533,0,0,0,272.533,54.933Z" transform="translate(-254.933 -45.867)" fill="#5f92f9"/>
        <path id="Path_38081" data-name="Path 38081" d="M384.533,188.8a.533.533,0,1,0,0,1.067H388.8a.533.533,0,0,0,.533-.533v-4.8A.533.533,0,0,0,388.8,184h-4.267a.533.533,0,1,0,0,1.067h3.733V186.4h-3.733a.533.533,0,1,0,0,1.067h3.733V188.8Z" transform="translate(-359.466 -172.8)" fill="#5f92f9"/>
        <path id="Path_38082" data-name="Path 38082" d="M299.467,304.533a.533.533,0,0,0-1.067,0V307.2h-1.333v-2.667a.533.533,0,1,0-1.067,0v3.2a.533.533,0,0,0,.533.533h4.8a.533.533,0,0,0,.533-.533v-3.2a.533.533,0,1,0-1.067,0V307.2h-1.333Z" transform="translate(-277.333 -284.8)" fill="#5f92f9"/>
        <path id="Path_38083" data-name="Path 38083" d="M246.933,400h-14.4a.533.533,0,1,0,0,1.067h14.4a.533.533,0,1,0,0-1.067Z" transform="translate(-217.6 -374.4)" fill="#5f92f9"/>
        <path id="Path_38084" data-name="Path 38084" d="M177.6,432H160.533a.533.533,0,1,0,0,1.067H177.6a.533.533,0,1,0,0-1.067Z" transform="translate(-150.4 -404.266)" fill="#5f92f9"/>
        <path id="Path_38085" data-name="Path 38085" d="M418.667,305.067a.533.533,0,0,0,0-1.067h-2.133a.533.533,0,1,0,0,1.067h.533V307.2h-.533a.533.533,0,1,0,0,1.067h2.133a.533.533,0,0,0,0-1.067h-.533v-2.133Z" transform="translate(-389.333 -284.8)" fill="#5f92f9"/>
        <circle id="Ellipse_106" data-name="Ellipse 106" cx="0.533" cy="0.533" r="0.533" transform="translate(28.8 27.733)" fill="#5f92f9"/>
        <path id="Path_38086" data-name="Path 38086" d="M23.467,41.45v3.883A2.67,2.67,0,0,0,26.133,48h19.2A2.67,2.67,0,0,0,48,45.333V18.667A2.67,2.67,0,0,0,45.333,16h-19.2a2.67,2.67,0,0,0-2.667,2.667v4.95a9.057,9.057,0,0,0,0,17.833Zm1.067-22.783a1.6,1.6,0,0,1,1.6-1.6h19.2a1.6,1.6,0,0,1,1.6,1.6V45.333a1.6,1.6,0,0,1-1.6,1.6h-19.2a1.6,1.6,0,0,1-1.6-1.6v-3.76c.177.01.353.027.533.027a9.06,9.06,0,0,0,8-13.333h1.871v4.267a.533.533,0,0,0,1.067,0V28.267h1.867v4.267a.533.533,0,1,0,1.067,0v-4.8A.533.533,0,0,0,38.4,27.2H32.383a9.051,9.051,0,0,0-7.316-3.733c-.18,0-.356.017-.533.027Zm.533,5.867a8.006,8.006,0,0,1,7.894,6.759,13.5,13.5,0,0,0-7.894-3.026,13.5,13.5,0,0,0-7.894,3.026A8.006,8.006,0,0,1,25.067,24.533Zm3.419,5.458a15.316,15.316,0,0,1,4.31,2.542,15.238,15.238,0,0,1-4.312,2.544,4.234,4.234,0,0,0,0-5.086Zm-.219,2.542a3.2,3.2,0,1,1-3.2-3.2,3.2,3.2,0,0,1,3.2,3.2Zm-6.619,2.542a15.317,15.317,0,0,1-4.31-2.542,15.238,15.238,0,0,1,4.312-2.544A4.234,4.234,0,0,0,21.648,35.075ZM25.067,36.8a13.5,13.5,0,0,0,7.894-3.026,7.989,7.989,0,0,1-15.787,0A13.5,13.5,0,0,0,25.067,36.8Z" transform="translate(-16 -16)" fill="#5f92f9"/>
      </g>
    </g>
    <path id="Path_38060" data-name="Path 38060" d="M81.1,31.418c28.153,0,45.36-3.58,66.878,0s17.054,18.908,30.882,25.847c19.14,9.6,15,9.331,15,14.953,0,22.091-47.274,13.748-97.1,13.748-21.576,0-20.3-9.58-30.171-13.748C54.2,66.988,34.237,65.7,34.237,53.169c0-11.4,12.748-4.76,19.045-7.432C58.769,43.4,56.981,31.418,81.1,31.418Z" transform="translate(-36 78.224)" fill="#b2e8d4"/>
    <path id="Rectangle_1_-_Outline" data-name="Rectangle 1 - Outline" d="M497.077,258.23l-53.1-9.158a2.559,2.559,0,0,0-.431-.038,2.446,2.446,0,0,0-.425.036,2.523,2.523,0,0,0-.417.111,2.783,2.783,0,0,0-.408.186,3.2,3.2,0,0,0-.38.248,3.685,3.685,0,0,0-.36.31,4.381,4.381,0,0,0-.339.374,5.273,5.273,0,0,0-.316.434q-.153.235-.288.491t-.255.538q-.119.28-.221.583t-.186.626q-.087.334-.153.683t-.11.71q-.043.361-.066.733t-.023.754q0,.381.023.76t.066.751q.045.374.11.741t.153.725q.084.346.186.676t.221.643q.119.313.255.607t.288.569q.152.273.316.522t.339.466q.175.219.36.409a4.741,4.741,0,0,0,.38.35,3.959,3.959,0,0,0,.408.3,3.316,3.316,0,0,0,.417.224,2.9,2.9,0,0,0,.425.152,2.669,2.669,0,0,0,.431.079l53.1,5.254a1.013,1.013,0,0,0,.459-.062,1.224,1.224,0,0,0,.221-.11,1.584,1.584,0,0,0,.215-.163,2.105,2.105,0,0,0,.2-.2,2.738,2.738,0,0,0,.187-.248q.093-.139.175-.29t.163-.332q.078-.176.147-.368t.13-.4q.061-.206.112-.426t.094-.454q.045-.241.077-.492t.055-.508q.022-.258.033-.522t.011-.535q0-.27-.011-.538t-.033-.531q-.022-.264-.055-.523t-.077-.513q-.042-.245-.094-.479t-.112-.455q-.061-.224-.13-.434t-.147-.408q-.078-.2-.163-.376t-.175-.338q-.091-.16-.187-.3a3.178,3.178,0,0,0-.2-.259,2.375,2.375,0,0,0-.215-.221,1.766,1.766,0,0,0-.221-.171,1.368,1.368,0,0,0-.227-.119,1.13,1.13,0,0,0-.232-.067" transform="translate(-441.22 -228.61)" fill="#fff" stroke="#296df6" stroke-width="2"/>
    <path id="Rectangle_3_-_Outline" data-name="Rectangle 3 - Outline" d="M497.077,359.849l-53.1-1.72a2.564,2.564,0,0,0-.857.118,2.855,2.855,0,0,0-.417.169,3.312,3.312,0,0,0-.408.242,3.91,3.91,0,0,0-.38.3,4.555,4.555,0,0,0-.36.362,5.405,5.405,0,0,0-.339.421q-.164.226-.316.48t-.288.532q-.136.277-.255.574t-.221.614q-.1.317-.186.652t-.153.7q-.066.358-.11.725t-.066.743q-.023.376-.023.757t.023.757q.022.375.066.742t.11.722q.066.357.153.7t.186.652q.1.316.221.612t.255.571q.136.274.288.528t.316.478a5.314,5.314,0,0,0,.339.419,4.51,4.51,0,0,0,.36.358,3.855,3.855,0,0,0,.38.3,3.269,3.269,0,0,0,.408.239,2.827,2.827,0,0,0,.417.165,2.6,2.6,0,0,0,.425.093,2.543,2.543,0,0,0,.431.019l53.1-2.185a1.042,1.042,0,0,0,.232-.036,1.174,1.174,0,0,0,.227-.089,1.468,1.468,0,0,0,.221-.142,1.953,1.953,0,0,0,.215-.193,2.588,2.588,0,0,0,.2-.233q.1-.13.187-.274t.175-.315q.085-.169.163-.355t.148-.389q.069-.2.13-.416t.112-.444q.052-.226.094-.466t.077-.5q.032-.255.055-.516t.033-.528q.011-.266.011-.536t-.011-.535q-.01-.267-.033-.528t-.055-.515q-.033-.254-.077-.5t-.094-.467q-.052-.227-.112-.441t-.13-.415q-.07-.2-.148-.387t-.163-.354q-.084-.167-.175-.314t-.187-.273a2.567,2.567,0,0,0-.2-.231,1.931,1.931,0,0,0-.215-.191,1.452,1.452,0,0,0-.222-.139,1.16,1.16,0,0,0-.227-.087,1.034,1.034,0,0,0-.232-.034" transform="translate(-441.22 -309.666)" fill="#fff" stroke="#bbb" stroke-width="1"/>
    <path id="Rectangle_4_-_Outline" data-name="Rectangle 4 - Outline" d="M497.077,439.889l-53.1,5.253a2.668,2.668,0,0,0-.431.079,2.9,2.9,0,0,0-.425.152,3.32,3.32,0,0,0-.417.224,3.956,3.956,0,0,0-.408.3,4.724,4.724,0,0,0-.38.35q-.185.192-.36.409t-.339.466q-.164.247-.316.522t-.288.57q-.136.295-.255.607t-.221.643q-.1.33-.186.676t-.153.725q-.066.367-.11.74t-.066.751q-.023.378-.023.76t.023.754q.022.372.066.733t.11.71q.066.348.153.683t.186.626q.1.3.221.583t.255.538q.135.255.288.491a5.271,5.271,0,0,0,.316.435,4.378,4.378,0,0,0,.339.374,3.685,3.685,0,0,0,.36.31,3.2,3.2,0,0,0,.38.248,2.787,2.787,0,0,0,.408.186,2.519,2.519,0,0,0,.417.111,2.448,2.448,0,0,0,.425.036,2.563,2.563,0,0,0,.431-.038l53.1-9.155a1.134,1.134,0,0,0,.232-.067,1.364,1.364,0,0,0,.227-.119,1.764,1.764,0,0,0,.221-.171,2.371,2.371,0,0,0,.215-.221,3.152,3.152,0,0,0,.2-.259q.1-.14.187-.3t.175-.338q.085-.179.163-.376t.147-.408q.07-.212.13-.435t.112-.458q.052-.234.094-.479t.077-.513q.032-.259.055-.523t.033-.531q.011-.268.011-.538t-.011-.533q-.01-.264-.033-.522t-.055-.509q-.033-.25-.077-.492t-.094-.454q-.051-.22-.112-.426t-.13-.4q-.07-.19-.148-.367t-.163-.332q-.082-.151-.175-.29a2.754,2.754,0,0,0-.187-.248,2.119,2.119,0,0,0-.2-.2,1.586,1.586,0,0,0-.215-.163,1.23,1.23,0,0,0-.221-.11,1.013,1.013,0,0,0-.459-.062" transform="translate(-441.22 -370.369)" fill="#fff" stroke="#bbb" stroke-width="1"/>
    <g id="Group_16729" data-name="Group 16729" transform="translate(28.183 5.734)">
      <path id="Path_38062" data-name="Path 38062" d="M156.627,13.037l-1.221,3.055s-1.126,4.276.194,5.981,1.61,14.759.194,15.722,17.941-8.94,17.941-8.94-7.557-17.524-7.684-17.588-5.079-1.607-5.079-1.607l-4.34,3.377h-.006Z" transform="translate(-125.569 -6.858)" fill="#2f2e43"/>
      <path id="Path_38063" data-name="Path 38063" d="M188.286,55.724,181.8,57.856V48.521h5.883Z" transform="translate(-144.625 -34.446)" fill="#c38385"/>
      <path id="uuid-05fbfc1b-ba5d-4586-9f30-eaf7213c9e0f" d="M5.176,12.3c-.351,2.138-1.778,3.672-3.185,3.426S-.274,13.544.08,11.4a5.2,5.2,0,0,1,.989-2.361L2.676,0,7.05.917,5,9.732A5.289,5.289,0,0,1,5.176,12.3Z" transform="translate(17.166 31.285) rotate(120)" fill="#f3a3a6"/>
      <rect id="Rectangle_7058" data-name="Rectangle 7058" width="6.074" height="8.618" transform="translate(35.147 127.178)" fill="#c38385"/>
      <path id="Path_38064" data-name="Path 38064" d="M139.914,457.25c-.638,0-1.207-.015-1.636-.055a7.591,7.591,0,0,1-3.928-2.036,1.1,1.1,0,0,1-.278-1.242h0a1.091,1.091,0,0,1,.711-.629l4.264-1.218,6.9-4.659.078.139a12.3,12.3,0,0,1,.934,2.1.933.933,0,0,1-.067.777.742.742,0,0,1-.319.267,3.162,3.162,0,0,0,1.723.589,1.914,1.914,0,0,0,2.147-1.622l.012-.061.052-.035c.838-.54,1.355-.786,1.532-.734.11.032.3.09.8,5.059a5.108,5.108,0,0,1,.162,2.393c-.258,1.189-5.456.78-6.5.688-.029,0-3.922.281-6.588.281Z" transform="translate(-110.681 -316.238)" fill="#2f2e43"/>
      <rect id="Rectangle_7059" data-name="Rectangle 7059" width="6.074" height="8.618" transform="translate(53.366 123.624) rotate(-31.95)" fill="#c38385"/>
      <path id="Path_38065" data-name="Path 38065" d="M225.066,440.791a10.881,10.881,0,0,1-1.836-.168,1.1,1.1,0,0,1-.893-.905h0a1.088,1.088,0,0,1,.27-.911l2.973-3.29,3.394-7.606.139.075a12.311,12.311,0,0,1,1.9,1.285.924.924,0,0,1,.354.7.734.734,0,0,1-.13.4,3.146,3.146,0,0,0,1.772-.412,1.911,1.911,0,0,0,.963-2.512l-.023-.058.026-.055c.426-.9.731-1.384.911-1.433.113-.032.3-.081,3.353,3.873a5.089,5.089,0,0,1,1.4,1.944c.409,1.146-4.218,3.551-5.149,4.021a81.083,81.083,0,0,1-6.86,4.543,5.794,5.794,0,0,1-2.573.519Z" transform="translate(-173.392 -300.96)" fill="#2f2e43"/>
      <path id="Path_38066" data-name="Path 38066" d="M165.771,185.191H148.763l-1.543,15.821,6.753,58.457h8.682l-3.472-33.763,14.083,30.482,7.716-5.4-11-28.457s3.928-24.79.841-30.966-5.056-6.173-5.056-6.173Z" transform="translate(-120.076 -130.083)" fill="#2f2e43"/>
      <path id="Path_38067" data-name="Path 38067" d="M168.1,103.061H138.58l10.611-34.92H160.96Z" transform="translate(-113.942 -48.374)" fill="#296df6"/>
      <path id="Path_38068" data-name="Path 38068" d="M134.47,68.137s-7.33-.194-8.1,1.738c-.383.959-6.411,17.395-6.411,17.395L107.43,77.18l-3.63,2.1,16.156,21.3,7.2-13.318,7.32-19.132Z" transform="translate(-97.364 -48.368)" fill="#296df6"/>
      <ellipse id="Ellipse_104" data-name="Ellipse 104" cx="6.463" cy="6.463" rx="6.463" ry="6.463" transform="translate(31.516 3.731)" fill="#c38385"/>
      <path id="Path_38069" data-name="Path 38069" d="M166.1.154s7.78-1.993,10.162,8.36c0,0,.064,2.7,1.416,3.794s.9,6.753.9,6.753,2.573,4.244.386,6.173c0,0-.966,3.922.45,6.173s6.753,14.632-2.123,15.386c0,0-4.5-2.718-2.379-10.82s-.258-12.578-.258-12.578-6.817-2.471-6.431-7.745-4.374-10.484-4.693-10.417-3.667-1.865-5.146,4.052l-1.584-.27S156.133-.94,166.1.154Z" transform="translate(-126.869 0)" fill="#2f2e43"/>
      <path id="uuid-0abcf40d-6043-4456-8f5e-d5c30197e2bd" d="M241.28,224.808c.432,2.123-.36,4.064-1.764,4.334s-2.892-1.236-3.321-3.359a5.27,5.27,0,0,1,.084-2.559L234.57,214.2l4.415-.7,1.215,8.969a5.331,5.331,0,0,1,1.079,2.338Z" transform="translate(-182.087 -150.917)" fill="#f3a3a6"/>
      <path id="Path_38070" data-name="Path 38070" d="M198,67.869s6.457-.818,7.229,1.111,9.84,47.846,9.84,47.846h-5.981Z" transform="translate(-156.126 -48.059)" fill="#5f92f9"/>
      <path id="uuid-0f7b596a-a82a-4a0b-859d-e38649732ee3" d="M254.772,214.455c-1.566,1.5-2.028,3.542-1.027,4.563s3.078.638,4.647-.862a5.227,5.227,0,0,0,1.392-2.149l6.556-6.434-3.226-3.092L257,213.15a5.324,5.324,0,0,0-2.219,1.3h0Z" transform="translate(-195.325 -145.967)" fill="#f3a3a6"/>
      <path id="Path_38071" data-name="Path 38071" d="M267.39,134.96l12.1-15.508,6.367-16.665a6.281,6.281,0,1,1,11.4,5.21l-9.813,18.313-.014.029L270.639,139.05l-3.249-4.084Z" transform="translate(-205.387 -69.73)" fill="#bf9a34"/>
      <path id="Path_38072" data-name="Path 38072" d="M346.668,85.971l-7.548,2.48V77.591h6.846Z" transform="translate(-256.309 -54.855)" fill="#c38385"/>
      <ellipse id="Ellipse_105" data-name="Ellipse 105" cx="7.519" cy="7.519" rx="7.519" ry="7.519" transform="translate(76.226 10.475)" fill="#c38385"/>
      <path id="Path_38073" data-name="Path 38073" d="M328.752,37.143,327.716,38.4l-1.874-3.281s-2.393.125-2.393-1.653-2.2-1.825-2.2-1.825-3.11-5.427,3.33-4c0,0,4.464-3.06,6.686-.444,0,0,6.808,3.429,4.859,9.4l-3.237,6.153-.734-1.392S332.6,35.512,328.752,37.143Z" transform="translate(-243.092 -18.56)" fill="#2f2e43"/>
      <rect id="Rectangle_7060" data-name="Rectangle 7060" width="6.074" height="8.618" transform="translate(86.355 135.179)" fill="#c38385"/>
      <path id="Path_38074" data-name="Path 38074" d="M316.434,484.83c-.638,0-1.207-.014-1.636-.055a7.591,7.591,0,0,1-3.928-2.036,1.1,1.1,0,0,1-.279-1.241h0a1.091,1.091,0,0,1,.711-.63l4.264-1.218,6.9-4.659.078.139a12.308,12.308,0,0,1,.934,2.1.933.933,0,0,1-.067.777.742.742,0,0,1-.319.267,3.162,3.162,0,0,0,1.723.589,1.914,1.914,0,0,0,2.147-1.622l.012-.061.052-.035c.838-.54,1.355-.786,1.532-.734.11.032.3.09.8,5.059a5.108,5.108,0,0,1,.162,2.393c-.258,1.189-5.456.78-6.5.688-.029,0-3.922.281-6.588.281Z" transform="translate(-235.996 -335.818)" fill="#2f2e43"/>
      <rect id="Rectangle_7061" data-name="Rectangle 7061" width="6.074" height="8.618" transform="matrix(0.771, -0.637, 0.637, 0.771, 100.612, 126.133)" fill="#c38385"/>
      <path id="Path_38075" data-name="Path 38075" d="M398.868,444.919c-.493.406-.94.757-1.294,1a7.583,7.583,0,0,1-4.322.934,1.1,1.1,0,0,1-1.007-.78h0a1.1,1.1,0,0,1,.145-.94l2.509-3.658,2.35-7.989.148.058a12.34,12.34,0,0,1,2.057,1.021.936.936,0,0,1,.444.641.74.74,0,0,1-.075.412,3.176,3.176,0,0,0,1.7-.644,1.91,1.91,0,0,0,.618-2.619l-.029-.055.017-.058c.3-.951.542-1.468.714-1.54.107-.046.284-.122,3.838,3.391a5.061,5.061,0,0,1,1.651,1.74c.56,1.082-3.707,4.081-4.569,4.67-.02.02-2.843,2.715-4.9,4.415Z" transform="translate(-293.991 -304.368)" fill="#2f2e43"/>
      <path id="Path_38076" data-name="Path 38076" d="M316.71,232.111h20.837l-4.63,68.874h-6.945l-9.259-68.874Z" transform="translate(-240.4 -163.393)" fill="#2f2e43"/>
      <path id="Path_38077" data-name="Path 38077" d="M320.954,235.905l-4.244-3.794,2.12,37.879,23.732,22.571,5.918-4.888-13.828-17.941Z" transform="translate(-240.4 -163.393)" fill="#2f2e43"/>
      <path id="Path_38078" data-name="Path 38078" d="M320.954,88.352l10.289-1.671,3.2,5.587a37.945,37.945,0,0,1,4.722,23.45l-1.616,13.149H316.71l4.244-40.516Z" transform="translate(-240.4 -61.206)" fill="#ffcd44"/>
      <path id="uuid-b3acfcbb-0728-463d-abe9-71d573e8fb8c" d="M254.155,226.31c-1.729,1.308-2.422,3.284-1.549,4.415s2.985.989,4.714-.319a5.209,5.209,0,0,0,1.63-1.975L266.2,222.8l-2.849-3.446-6.849,5.921a5.334,5.334,0,0,0-2.355,1.038Z" transform="translate(-194.624 -155.07)" fill="#f3a3a6"/>
      <path id="Path_38079" data-name="Path 38079" d="M268.82,152.772l13.808-14.008,8.247-15.818a6.282,6.282,0,1,1,10.73,6.486l-11.861,17.057-.017.026L271.579,157.2l-2.756-4.432Z" transform="translate(-206.402 -84.444)" fill="#ffcd44"/>
    </g>
    <g id="Group_16730" data-name="Group 16730" transform="translate(0.197 104.85)">
      <path id="Path_38054" data-name="Path 38054" d="M757.611,609.011l-6.6,6.08,5.248-8.806a68.012,68.012,0,0,0-10.9-13.979s-14.03,13.442-14.03,24.008,6.281,14.255,14.03,14.255,14.03-3.689,14.03-14.255A18.535,18.535,0,0,0,757.611,609.011Z" transform="translate(-731.328 -591.72)" fill="#22bf85"/>
      <path id="Path_38055" data-name="Path 38055" d="M789.466,613.733v.521c-.031,6.054-1.052,10.777-3.055,14.1-.028.049-.059.1-.088.144l-.224-.137-.214-.134c2.222-3.592,3.009-8.668,3.037-13.949,0-.17.005-.343,0-.516-.008-2.235-.144-4.5-.364-6.693-.016-.17-.034-.343-.052-.516-.3-2.9-.743-5.667-1.191-8.073-.031-.17-.065-.34-.1-.508-.776-4.069-1.568-7.016-1.748-7.668-.021-.08-.034-.124-.036-.134l.245-.07,0,0,.247-.07c0,.01.047.157.119.431.276,1.021.993,3.793,1.7,7.449.031.165.064.335.1.505.366,1.952.724,4.133,1.008,6.422q.108.863.193,1.7c.021.173.039.346.054.516Q789.453,610.62,789.466,613.733Z" transform="translate(-771.872 -590.034)" fill="#fff" opacity="0.25"/>
      <path id="Path_38056" data-name="Path 38056" d="M770.536,617.106c-.173.023-.348.046-.526.064a14.231,14.231,0,0,1-1.454.075,13.837,13.837,0,0,1-5.982-1.351l-.327.412a14.347,14.347,0,0,0,6.309,1.454,14.732,14.732,0,0,0,1.552-.083c.175-.018.351-.041.523-.067a14.229,14.229,0,0,0,4.112-1.245l-.325-.418A13.792,13.792,0,0,1,770.536,617.106Z" transform="translate(-754.653 -608.822)" fill="#fff" opacity="0.25"/>
      <path id="Path_38057" data-name="Path 38057" d="M763.669,636.949q-.267.015-.534.015c-.054,0-.111,0-.165,0A13.91,13.91,0,0,1,751.553,631c-.1.152-.206.3-.307.459a14.425,14.425,0,0,0,11.724,6.02c.072,0,.144,0,.217,0,.18,0,.358-.008.536-.015a14.35,14.35,0,0,0,7.645-2.681c-.083-.152-.165-.3-.25-.456A13.814,13.814,0,0,1,763.669,636.949Z" transform="translate(-746.447 -620.108)" fill="#fff" opacity="0.25"/>
      <path id="Path_38058" data-name="Path 38058" d="M758.362,653.2c-.18.015-.361.026-.541.034s-.387.013-.58.013a13.947,13.947,0,0,1-13.371-10.035c-.116.209-.232.415-.343.624a14.458,14.458,0,0,0,13.714,9.927c.193,0,.387,0,.578-.013s.364-.015.544-.028a14.415,14.415,0,0,0,9.514-4.644c-.054-.191-.116-.379-.178-.57a13.9,13.9,0,0,1-9.336,4.692Z" transform="translate(-740.381 -629.236)" fill="#fff" opacity="0.25"/>
    </g>
  </g>
</svg>
