<svg id="eyes" xmlns="http://www.w3.org/2000/svg" width="340.516" height="93.935" viewBox="0 0 340.516 93.935">
  <g id="Group_45754" data-name="Group 45754" transform="translate(0 0)">
    <path id="Path_103347" data-name="Path 103347" d="M60.853,93.931c-15.968,0-55.674-17.506-56.537-30.742,0-3.416,27.621-19.641,56.537-19.641,24.6.427,52.221,8.966,64.737,24.764A96.1,96.1,0,0,0,95.379,56.785a32.99,32.99,0,0,1,1.726,9.393A23.085,23.085,0,0,1,73.8,89.235c-12.947,0-23.737-10.247-23.737-23.056A21.738,21.738,0,0,1,52.653,55.5c-21.147,2.135-37.547,8.539-37.547,12.809C15.105,78.133,60.853,93.931,60.853,93.931ZM203.274,45.257c34.958-35.439,86.747-42.27,137.242-24.764C294.337-14.946,231.758-2.991,203.274,45.257Zm42.295,11.528a23.063,23.063,0,0,0-2.158,9.393c0,12.809,10.79,23.056,23.737,23.056a23.085,23.085,0,0,0,23.305-23.056A21.738,21.738,0,0,0,287.863,55.5c21.579,2.135,37.547,8.539,37.547,12.809.432,9.82-45.747,25.618-45.316,25.618,15.537,0,55.674-17.506,56.105-30.742.432-3.416-27.621-19.641-56.537-19.641-24.168.427-52.221,8.966-64.737,24.764A98.492,98.492,0,0,1,245.568,56.785ZM287.863,55.5l-2.589-.427a18.89,18.89,0,0,1,3.453,11.1,18.559,18.559,0,0,1-37.116,0A17.579,17.579,0,0,1,255.063,55.5a48.556,48.556,0,0,1,7.337-.854l-.432.427a3.926,3.926,0,0,1,2.158-.427,5.318,5.318,0,0,1,5.179,5.551,4.96,4.96,0,0,1-5.179,5.124,5.328,5.328,0,0,1-5.611-5.124c0-.854,0-1.281.432-1.708a11.839,11.839,0,0,0-2.589,7.685,13.811,13.811,0,0,0,27.621,0,13.421,13.421,0,0,0-6.474-11.528A84.693,84.693,0,0,1,287.863,55.5ZM137.674,45.257C102.284,9.818,50.495,2.986,0,20.492,46.179-14.946,108.758-2.991,137.674,45.257ZM85.453,55.5a38.4,38.4,0,0,0-7.337-.854l.432.427a2.617,2.617,0,0,0-1.726-.427A5.683,5.683,0,0,0,71.211,60.2a5.328,5.328,0,0,0,5.611,5.124A4.96,4.96,0,0,0,82,60.2V58.493a14.627,14.627,0,0,1,2.158,7.685A13.832,13.832,0,0,1,70.347,79.841c-7.337,0-13.811-6.4-13.811-13.663A13.421,13.421,0,0,1,63.011,54.65a84.693,84.693,0,0,0-10.358.854l3.021-.427a16.611,16.611,0,0,0-3.884,11.1,18.6,18.6,0,0,0,18.558,18.36c10.358,0,18.989-8.112,18.989-18.36A15.511,15.511,0,0,0,85.453,55.5Z" transform="translate(0 0.004)" fill-rule="evenodd"/>
  </g>
</svg>
