<svg xmlns="http://www.w3.org/2000/svg" width="140.903" height="193.742" viewBox="0 0 140.903 193.742">
  <g id="hand_close" data-name="hand close" opacity="0.75">
    <path id="Path_103349" data-name="Path 103349" d="M10.949,48.188c-.5-4.436.136-9.945,7.116-11.5,8.061-1.8,10.992,4.27,11.319,7.055s2.908,42.084,2.908,42.084a.92.92,0,0,0,1.84,0s-1.556-61-1.556-62.571S31.8,12.612,43.31,11.338c9.192-.7,10.77,6.656,10.77,8.617s3.213,61.466,3.213,61.466a.919.919,0,0,0,1.838,0V14.435S58.03,1.671,70.506,1.671s11.72,12.764,11.72,12.764L83.633,81.99a.92.92,0,0,0,1.84,0l2.034-52.354s-.935-13.8,11-13.8c13.16.121,12.3,14.215,12.316,15.318.15,10.542-1.047,58.609-.218,67.1.38,3.889-.122,15.61,6.583,15.61s8.244-18.474,17.365-24.775c5.542-3.829,10.369-2.185,12.773-.461,6.357,4.565,4.458,11.771,2.672,16.559-1,2.68-9.9,25.845-15.519,37.173-1.906,3.841-4.7,14.314-10.123,21.43a114.246,114.246,0,0,1-17.04,17.291l.62,14.328H24.552l.86-18.359a48.784,48.784,0,0,1-9.7-16.716c-1.737-5.489-6.929-12.573-3.1-68.9C12.261,86.008,10.981,48.487,10.949,48.188Z" transform="translate(-10.816 -1.671)" fill="#c37f00"/>
  </g>
</svg>
