<svg xmlns="http://www.w3.org/2000/svg" width="292" height="142" viewBox="0 0 292 142">
  <g id="Help_and_Support" data-name="Help and Support" transform="translate(-51.051 20.12)">
    <g id="Group_16775" data-name="Group 16775" transform="translate(51.051 -20.12)">
      <path id="Path_38144" data-name="Path 38144" d="M156.367,150.982l-9.838-37.457L145.39,109.2l1.068-1,18.335-9.147,26.2.657,15.381,7.952.083,5.861.759,52.8,3.068,12.961H154.01l4.369-20.642Z" transform="translate(-122.161 -38.308)" fill="#f80"/>
      <path id="Path_38145" data-name="Path 38145" d="M475.171,508.069H460.505l-4.049-29.442,1.06-36.322.146-4.941,2.8-.92a17.861,17.861,0,0,1,5.109,5.861,24.246,24.246,0,0,1,2.922,13.749s.332,7.175.016,11.953C468.291,471.273,472.075,491.91,475.171,508.069Z" transform="translate(-376.248 -367.088)" fill="#f80"/>
      <path id="Path_38146" data-name="Path 38146" d="M345.378,480.119l-.051.374L341.436,508.8H324.571c1.352-16.039,2.942-36.091,2.728-39.3-.316-4.774.016-11.953.016-11.953a23.977,23.977,0,0,1,3.377-14.506,19.254,19.254,0,0,1,3.658-4.324,10.212,10.212,0,0,1,1-.776l2.8.916.732,4.185Z" transform="translate(-311.121 -367.82)" fill="#f80"/>
      <path id="Path_38147" data-name="Path 38147" d="M369.517,353.676a18.162,18.162,0,1,0,18.162-18.289h0a18.179,18.179,0,0,0-18.162,18.2Q369.517,353.63,369.517,353.676Z" transform="translate(-333.316 -317.543)" fill="#ffb7b7"/>
      <path id="Path_38148" data-name="Path 38148" d="M410.373,511.77h0a3.922,3.922,0,0,1-3.909,3.936H301.909A3.922,3.922,0,0,1,298,511.77h0a3.922,3.922,0,0,1,3.909-3.936h1.16a2.716,2.716,0,0,1-.1-.721V453.361a3.407,3.407,0,0,1,3.395-3.418h95.651a3.406,3.406,0,0,1,3.395,3.418v53.753a2.558,2.558,0,0,1-.1.721h1.16A3.922,3.922,0,0,1,410.373,511.77Z" transform="translate(-298 -373.706)" fill="#3f3d56"/>
      <path id="Path_38149" data-name="Path 38149" d="M407.106,498.467a6.084,6.084,0,1,1,6.042-6.084,6.063,6.063,0,0,1-6.042,6.084Zm0-11.149a5.065,5.065,0,1,0,5.03,5.065A5.047,5.047,0,0,0,407.106,487.318Z" transform="translate(-348.895 -391.531)" fill="#fff"/>
      <ellipse id="Ellipse_115" data-name="Ellipse 115" cx="5.536" cy="5.575" rx="5.536" ry="5.575" transform="translate(50.651 93.238)" fill="#fff"/>
      <path id="Path_38160" data-name="Path 38160" d="M405.118,331.185a12.364,12.364,0,0,1-3.482-4.261,5.76,5.76,0,0,0-1.2-1.693L397,327.891l2.1-3.681c-5.375-3.272-15.871-1.534-15.871-1.534-10.919-5.855-14.928,1.454-16.325,6.088a10.222,10.222,0,0,1-2.834,4.365c-2.693,2.586,1.548,7.616,1.548,7.616v.355l1.012,6.924a21.167,21.167,0,0,1,3.684-7.811c1.684-2.032,4.426-3.241,5.7-3.216,16.432.323,19.543.978,19.543.978s2.782,1.505,4.011,2.137c3.97,2.043,3,9.441,3,9.441l2.967-13.13C406.219,333.242,405.839,331.781,405.118,331.185Z" transform="translate(-330.184 -310.244)" fill="#2f2e41"/>
      <path id="Path_38195" data-name="Path 38195" d="M755.791,374.122a26.341,26.341,0,0,0-51.722-.214,9.794,9.794,0,0,0,3.661,18.847V373.184a9.672,9.672,0,0,0-1.629.148,24.482,24.482,0,0,1,47.64.082,9.664,9.664,0,0,0-2.081-.23h0v19.571h0a9.79,9.79,0,0,0,4.131-18.633Z" transform="translate(-675.217 -352.68)" fill="#296df6"/>
    </g>
    <g id="Group_16774" data-name="Group 16774" transform="translate(173.288 -9.468)">
      <path id="Path_38150" data-name="Path 38150" d="M744.5,368.264v-10.8a24.3,24.3,0,1,1,48.594,0v10.8a5.5,5.5,0,0,1-5.476,5.515H754.776l-2.683-5.741v5.741h-2.116a5.5,5.5,0,0,1-5.476-5.515Z" transform="translate(-712.746 -327.025)" fill="#2f2e41"/>
      <path id="Path_38151" data-name="Path 38151" d="M827.478,462.887l1.047,11.419L829,479.5l.759,8.261.1,1.065.617,6.71.015.073a6.073,6.073,0,0,0,5.865,4.289l28.185-.49,7.955-.139c.153.232.3.44.452.625a7.82,7.82,0,0,0,5.708,2.868,7.732,7.732,0,0,0,5.95-2.39c.154-.158.3-.324.441-.5a7.934,7.934,0,0,0,.506-9.25,7.785,7.785,0,0,0-11.524-1.811,6.958,6.958,0,0,0-.755.73l-8.733-1.282-21.993-3.223-.939-12.778c0-.058-.008-.116-.012-.178l-.759-10.311a6.723,6.723,0,0,0-6.782-6.25,6.46,6.46,0,0,0-1.664.236,6.589,6.589,0,0,0-1.725.749,6.751,6.751,0,0,0-3.186,6.385Z" transform="translate(-753.707 -387.092)" fill="#9e616a"/>
      <ellipse id="Ellipse_116" data-name="Ellipse 116" cx="15.93" cy="16.042" rx="15.93" ry="16.042" transform="translate(41.103 15.262)" fill="#9e616a"/>
      <path id="Path_38152" data-name="Path 38152" d="M833.108,434.208l2.9-.972s5.793,2.431,5.793,6.806.965,21.875.965,21.875l-13.034,1.458Z" transform="translate(-754.833 -376.168)" fill="#a700ff"/>
      <path id="Path_38153" data-name="Path 38153" d="M714.668,518.254h11.486l3.929-33.157,1.422-11.975.2-1.652,1.051-8.864a6.126,6.126,0,0,0-2.968-5.572,6.036,6.036,0,0,0-6.279.052,5.95,5.95,0,0,0-.679.49,6.1,6.1,0,0,0-2.2,4.466l-1.035,9.748Z" transform="translate(-698.015 -387.416)" fill="#9e616a"/>
      <path id="Path_38154" data-name="Path 38154" d="M735.985,460.514l-13.034-1.458s.966-17.5.966-21.876,5.793-6.806,5.793-6.806l2.9.972Z" transform="translate(-702.105 -374.765)" fill="#a700ff"/>
      <path id="Path_38155" data-name="Path 38155" d="M740.35,557.938h54.487a107.84,107.84,0,0,0-7.034-19.3c-.479-.984-.763-1.509-.763-1.509s-23.17-.459-37.654,5.374a7.1,7.1,0,0,0-2.431,1.745C744.448,546.859,742.256,551.758,740.35,557.938Z" transform="translate(-710.697 -427.1)" fill="#2f2e41"/>
      <path id="Path_38156" data-name="Path 38156" d="M746.958,424.626s-.46-.248,27.032.76l11.506,3.191,1.529.424s-1.448,29.167-5.31,34.515-2.9,8.264-1.931,8.75,3.379-.486,1.931,1.945-3.379.972-1.448,2.431,2.9,6.806,2.9,6.806l-42.481,5.833s-1.448-18.959-5.31-28.681a125.854,125.854,0,0,1-4.827-13.611l2.9-19.445Z" transform="translate(-705.855 -371.933)" fill="#a700ff"/>
      <path id="Path_38157" data-name="Path 38157" d="M760.5,349.8a15.692,15.692,0,1,1,31.383,0v7.136H760.5Z" transform="translate(-720.647 -327.515)" fill="#2f2e41"/>
      <path id="Path_38158" data-name="Path 38158" d="M790.714,513.114v1.409a3.1,3.1,0,0,1-3.089,3.112H684.857a3.1,3.1,0,0,1-3.09-3.111v-1.41A3.1,3.1,0,0,1,684.857,510h1.825a2.634,2.634,0,0,1-.1-.7V456.485a2.6,2.6,0,0,1,2.591-2.61h94.134a2.6,2.6,0,0,1,2.591,2.61V509.3a2.485,2.485,0,0,1-.1.7h1.825a3.1,3.1,0,0,1,3.09,3.111Z" transform="translate(-681.768 -386.287)" fill="#3f3d56"/>
      <path id="Path_38159" data-name="Path 38159" d="M787.654,501.043a5.915,5.915,0,1,1,5.873-5.914,5.894,5.894,0,0,1-5.873,5.914Zm0-10.809a4.9,4.9,0,1,0,4.861,4.895,4.878,4.878,0,0,0-4.861-4.895Z" transform="translate(-731.156 -403.612)" fill="#fff"/>
      <ellipse id="Ellipse_117" data-name="Ellipse 117" cx="5.367" cy="5.405" rx="5.367" ry="5.405" transform="translate(49.107 84.073)" fill="#fff"/>
      <path id="Path_38196" data-name="Path 38196" d="M755.791,374.122a26.341,26.341,0,0,0-51.722-.214,9.794,9.794,0,0,0,3.661,18.847V373.184a9.672,9.672,0,0,0-1.629.148,24.482,24.482,0,0,1,47.64.082,9.664,9.664,0,0,0-2.081-.23h0v19.571h0a9.79,9.79,0,0,0,4.131-18.633Z" transform="translate(-674.15 -352.68)" fill="#296df6"/>
    </g>
    <g id="Group_16773" data-name="Group 16773" transform="translate(312.467 81.44)">
      <path id="Path_38141" data-name="Path 38141" d="M601.513,503.578a4.05,4.05,0,1,0-4.049,4.078c.05,0,.1-.006.149-.008a36.516,36.516,0,0,1,1.589,10.11,32.35,32.35,0,0,1-.29,5.113c-.176,1.2-.505,2.581-1.69,3.142-.884.419-.114,1.737.766,1.32a4.647,4.647,0,0,0,2.278-3.439,27.365,27.365,0,0,0,.457-5.425,38,38,0,0,0-1.627-11.162A4.078,4.078,0,0,0,601.513,503.578Z" transform="translate(-582.936 -499.5)" fill="#001dff"/>
      <path id="Path_482" data-name="Path 482" d="M606.122,533.053s-5.43-13.459,10.859-23.553Z" transform="translate(-588.782 -504.403)" fill="#22bf85"/>
      <path id="Path_483" data-name="Path 483" d="M592.272,546.079s-1.656-9.593-14.476-9.511Z" transform="translate(-575.224 -517.673)" fill="#22bf85"/>
      <path id="Rectangle_7092" data-name="Rectangle 7092" d="M0,0H30.584a0,0,0,0,1,0,0V4.9a10,10,0,0,1-10,10H10A10,10,0,0,1,0,4.9V0A0,0,0,0,1,0,0Z" transform="translate(0 24.793)" fill="#bbb"/>
    </g>
  </g>
</svg>
