<svg xmlns="http://www.w3.org/2000/svg" width="86" height="55.988" viewBox="0 0 86 55.988">
  <g id="LVPEI_Full_Logo" data-name="LVPEI Full Logo" transform="translate(-6 -5)">
    <g id="Group_40204" data-name="Group 40204" transform="translate(20 5)">
      <path id="Path_40010" data-name="Path 40010" d="M138.665,5c16.227,0,29.388,10.557,29.39,23.572,0,8.164-5.174,15.357-13.035,19.589l-.1-.1c7.374-4.075,12.2-10.819,12.194-18.449,0-12.441-12.824-22.531-28.636-22.531s-28.632,10.09-28.63,22.531a17.9,17.9,0,0,0,.218,2.783h-.4a19.149,19.149,0,0,1-.386-3.824C109.28,15.557,122.439,5,138.665,5" transform="translate(-109.28 -5)" fill-rule="evenodd"/>
      <path id="Path_40011" data-name="Path 40011" d="M179.527,103.248V82.98H180.8v20.268h-1.269Zm-12.735,0h0V82.98h8.875v1.305h-7.605v8.121h7.428v1.308h-7.428v8.224h7.888v1.308h-9.157ZM155.484,92.6h3.25a3.9,3.9,0,0,0,2.938-1.074,4.139,4.139,0,0,0,1.041-3.017,4.205,4.205,0,0,0-1.041-3.041,3.9,3.9,0,0,0-2.938-1.081h-3.25Zm-1.269,10.651V82.98h4.154a5.861,5.861,0,0,1,4.223,1.465,6.151,6.151,0,0,1,0,8.1A5.867,5.867,0,0,1,158.368,94h-2.884v9.245h-1.269ZM137.355,82.98h1.29l5.793,17.227h.009L150.24,82.98h1.287l-6.944,20.47H144.3Zm-7.545,20.268h0V82.98h1.269v18.961h8.137v1.308Z" transform="translate(-125.205 -65.491)" fill-rule="evenodd"/>
      <path id="Path_40012" data-name="Path 40012" d="M129.533,187.8v-.6a1.423,1.423,0,0,0,.408.2,1.463,1.463,0,0,0,.449.069,1.167,1.167,0,0,0,.231-.02.6.6,0,0,0,.164-.058.276.276,0,0,0,.1-.09.183.183,0,0,0,.031-.108.2.2,0,0,0-.049-.139.564.564,0,0,0-.141-.114,2.116,2.116,0,0,0-.213-.1c-.085-.034-.173-.069-.267-.1a1.386,1.386,0,0,1-.547-.323.64.64,0,0,1-.177-.458.631.631,0,0,1,.1-.361.792.792,0,0,1,.267-.249,1.251,1.251,0,0,1,.386-.141,2.314,2.314,0,0,1,.471-.047,3.073,3.073,0,0,1,.431.027,1.979,1.979,0,0,1,.348.076v.561a1.253,1.253,0,0,0-.359-.144,1.617,1.617,0,0,0-.2-.034,1.33,1.33,0,0,0-.182-.011,1.072,1.072,0,0,0-.218.02.534.534,0,0,0-.164.058.294.294,0,0,0-.108.085.191.191,0,0,0-.036.112.186.186,0,0,0,.04.119.423.423,0,0,0,.119.1,1.241,1.241,0,0,0,.182.092c.072.031.155.061.244.1a3.2,3.2,0,0,1,.339.141,1.171,1.171,0,0,1,.253.173.608.608,0,0,1,.164.22.7.7,0,0,1,.054.285.677.677,0,0,1-.1.379.765.765,0,0,1-.267.247,1.457,1.457,0,0,1-.395.139,2.63,2.63,0,0,1-.471.038,3.389,3.389,0,0,1-.489-.034,1.683,1.683,0,0,1-.4-.114" transform="translate(-124.98 -144.754)" fill-rule="evenodd"/>
      <path id="Path_40013" data-name="Path 40013" d="M142.681,189.061a.5.5,0,0,0-.379.141.594.594,0,0,0-.132.41c0,.368.173.554.516.554s.493-.188.493-.567c0-.357-.166-.538-.5-.538m-.018,1.561a1.29,1.29,0,0,1-.872-.269,1,1,0,0,1,.009-1.474,1.382,1.382,0,0,1,.895-.269,1.281,1.281,0,0,1,.868.269.876.876,0,0,1,.316.711.938.938,0,0,1-.325.756A1.33,1.33,0,0,1,142.663,190.622Z" transform="translate(-134.25 -147.43)" fill-rule="evenodd"/>
      <path id="Path_40014" data-name="Path 40014" d="M160.313,188.7a1.184,1.184,0,0,1-.458.07c-.48,0-.724-.215-.724-.648v-.879h-.361V186.8h.361v-.415l.684-.168v.583h.5v.437h-.5v.776c0,.2.094.3.276.3a.546.546,0,0,0,.222-.054v.435Z" transform="translate(-147.67 -145.576)" fill-rule="evenodd"/>
      <path id="Path_40015" data-name="Path 40015" d="M170.547,187.542h-.686v-1.09c0-.285-.114-.422-.357-.422a.385.385,0,0,0-.294.119.409.409,0,0,0-.117.3v1.094h-.684V184.7h.684v1.207h.009a.814.814,0,0,1,.684-.33c.5,0,.756.26.756.787v1.178Z" transform="translate(-155.148 -144.397)" fill-rule="evenodd"/>
      <path id="Path_40016" data-name="Path 40016" d="M182.03,189.8v-.13l-.4.045c-.222.022-.334.112-.334.262a.206.206,0,0,0,.081.166.362.362,0,0,0,.222.065.453.453,0,0,0,.316-.114.408.408,0,0,0,.119-.294m.644.778h-.65v-.276h-.009a.747.747,0,0,1-.662.323.765.765,0,0,1-.507-.157.525.525,0,0,1-.186-.422c0-.372.253-.588.765-.646l.606-.07c0-.211-.135-.314-.395-.314a1.484,1.484,0,0,0-.756.2v-.446a2.029,2.029,0,0,1,.39-.114,2.488,2.488,0,0,1,.453-.045c.637,0,.951.274.951.819v1.144Z" transform="translate(-164.65 -147.437)" fill-rule="evenodd"/>
      <path id="Path_40017" data-name="Path 40017" d="M193.763,188.7a1.184,1.184,0,0,1-.458.07c-.48,0-.724-.215-.724-.648v-.879h-.361V186.8h.361v-.415l.684-.168v.583h.5v.437h-.5v.776c0,.2.094.3.276.3a.555.555,0,0,0,.222-.054Z" transform="translate(-173.618 -145.576)" fill-rule="evenodd"/>
      <path id="Path_40018" data-name="Path 40018" d="M206.923,189.8v-.13l-.406.045c-.222.022-.334.112-.334.262a.206.206,0,0,0,.081.166.358.358,0,0,0,.222.065.449.449,0,0,0,.316-.114.4.4,0,0,0,.121-.294m.644.778h-.65v-.276h-.009a.753.753,0,0,1-.664.323.765.765,0,0,1-.507-.157.532.532,0,0,1-.186-.422c0-.372.253-.588.765-.646l.606-.07c0-.211-.135-.314-.4-.314a1.485,1.485,0,0,0-.756.2v-.446a2.01,2.01,0,0,1,.393-.114,2.488,2.488,0,0,1,.453-.045q.952,0,.951.819v1.144Z" transform="translate(-183.958 -147.437)" fill-rule="evenodd"/>
      <rect id="Rectangle_18628" data-name="Rectangle 18628" width="0.684" height="2.842" transform="translate(24.384 40.304)"/>
      <rect id="Rectangle_18629" data-name="Rectangle 18629" width="0.684" height="2.842" transform="translate(25.882 40.304)"/>
      <path id="Path_40019" data-name="Path 40019" d="M239.312,190.575h-.684V189.48c0-.28-.119-.419-.357-.419a.353.353,0,0,0-.276.126.458.458,0,0,0-.108.312v1.074H237.2v-1.106c0-.274-.114-.406-.352-.406a.354.354,0,0,0-.28.119.473.473,0,0,0-.108.327v1.068h-.684v-1.92h.684v.3h.009a.8.8,0,0,1,.3-.249.925.925,0,0,1,.422-.1.651.651,0,0,1,.646.357.856.856,0,0,1,.747-.357c.484,0,.724.258.724.772v1.193Z" transform="translate(-207.408 -147.43)" fill-rule="evenodd"/>
      <path id="Path_40020" data-name="Path 40020" d="M255.628,189.8v-.13l-.4.045c-.222.022-.334.112-.334.262a.206.206,0,0,0,.081.166.362.362,0,0,0,.222.065.449.449,0,0,0,.316-.114.408.408,0,0,0,.119-.294m.646.778h-.65v-.276h-.009a.752.752,0,0,1-.662.323.761.761,0,0,1-.507-.157.532.532,0,0,1-.186-.422c0-.372.253-.588.765-.646l.606-.07c0-.211-.135-.314-.395-.314a1.485,1.485,0,0,0-.756.2v-.446a1.982,1.982,0,0,1,.39-.114,2.488,2.488,0,0,1,.453-.045c.637,0,.951.274.951.819Z" transform="translate(-221.744 -147.437)" fill-rule="evenodd"/>
      <path id="Path_40021" data-name="Path 40021" d="M267.793,188.81l-.9,2.075a1.051,1.051,0,0,1-.982.749,1.389,1.389,0,0,1-.408-.049v-.473a.636.636,0,0,0,.3.07.375.375,0,0,0,.37-.215l.114-.238-.9-1.918h.76l.413,1.168a1.172,1.172,0,0,1,.063.258h.009a1.549,1.549,0,0,1,.072-.253l.419-1.173Z" transform="translate(-230.369 -147.585)" fill-rule="evenodd"/>
      <path id="Path_40022" data-name="Path 40022" d="M282.19,190.533v-.48a1.667,1.667,0,0,0,.339.13,1.373,1.373,0,0,0,.321.043.794.794,0,0,0,.285-.043c.072-.031.108-.072.108-.13a.112.112,0,0,0-.049-.1.533.533,0,0,0-.119-.065c-.049-.018-.108-.034-.164-.049s-.117-.031-.173-.049c-.085-.031-.164-.061-.231-.092a.65.65,0,0,1-.168-.114.591.591,0,0,1-.108-.153.572.572,0,0,1-.036-.2.439.439,0,0,1,.085-.276.611.611,0,0,1,.213-.193,1.113,1.113,0,0,1,.312-.108,1.946,1.946,0,0,1,.366-.034,1.9,1.9,0,0,1,.3.02,1.955,1.955,0,0,1,.3.058v.457a1.353,1.353,0,0,0-.28-.1,1.455,1.455,0,0,0-.294-.031c-.045,0-.085,0-.126.007a.894.894,0,0,0-.108.031.266.266,0,0,0-.072.049.116.116,0,0,0-.027.074.112.112,0,0,0,.04.087.291.291,0,0,0,.1.065,1.083,1.083,0,0,0,.137.049c.054.011.1.027.155.043a2.136,2.136,0,0,1,.249.092.789.789,0,0,1,.186.112.519.519,0,0,1,.123.152.512.512,0,0,1,.04.211.478.478,0,0,1-.085.292.64.64,0,0,1-.227.2,1.265,1.265,0,0,1-.33.112,2.166,2.166,0,0,1-.386.034,2.278,2.278,0,0,1-.682-.1" transform="translate(-243.409 -147.437)" fill-rule="evenodd"/>
      <path id="Path_40023" data-name="Path 40023" d="M293.5,189.412c0-.274-.13-.41-.386-.41a.4.4,0,0,0-.285.114.523.523,0,0,0-.146.3Zm.637.363H292.69c.022.276.227.419.61.419a1.328,1.328,0,0,0,.646-.15v.426a1.891,1.891,0,0,1-.8.141,1.233,1.233,0,0,1-.837-.258.91.91,0,0,1-.3-.718.954.954,0,0,1,.325-.76,1.163,1.163,0,0,1,.787-.276,1.038,1.038,0,0,1,.751.249.883.883,0,0,1,.267.675Z" transform="translate(-251.026 -147.422)" fill-rule="evenodd"/>
      <path id="Path_40024" data-name="Path 40024" d="M305.274,189.412c0-.274-.128-.41-.386-.41a.4.4,0,0,0-.285.114.51.51,0,0,0-.146.3Zm.637.363H304.46c.022.276.227.419.61.419a1.328,1.328,0,0,0,.646-.15v.426a1.891,1.891,0,0,1-.8.141,1.232,1.232,0,0,1-.836-.258.91.91,0,0,1-.3-.718.954.954,0,0,1,.325-.76,1.163,1.163,0,0,1,.787-.276,1.038,1.038,0,0,1,.751.249.883.883,0,0,1,.267.675Z" transform="translate(-260.157 -147.422)" fill-rule="evenodd"/>
    </g>
    <text id="L_V_Prasad_Eye_Institute" data-name="L V Prasad Eye Institute" transform="translate(6 58.988)" font-size="8" font-family="Helvetica"><tspan x="0" y="0">L V Prasad Eye Institute</tspan></text>
  </g>
</svg>
