<svg xmlns="http://www.w3.org/2000/svg" width="80" height="88" viewBox="0 0 80 88">
  <g id="Search_Patient" data-name="Search Patient" transform="translate(-12.6)">
    <path id="uuid-fb20b2b5-bc5b-4117-a1ee-c5d1a8aa62bd" d="M170.859,47.635c.4-1.009,1.256-1.607,1.915-1.337s.872,1.308.474,2.317a2.608,2.608,0,0,1-.732,1.05l-1.742,4.251L168.74,53l1.933-4.094a2.656,2.656,0,0,1,.185-1.275h0Z" transform="translate(-144.352 -39.522)" fill="#a0616a"/>
    <path id="Path_38211" data-name="Path 38211" d="M116.809,94.473s-2.921-1.42-2.718-2.439,8.9-22.754,8.9-22.754l4.029,2.657L116.809,94.474Z" transform="translate(-97.599 -59.223)" fill="#e6e6e6"/>
    <path id="Path_38212" data-name="Path 38212" d="M227.006,88H199.069a7.39,7.39,0,0,1-7.369-7.395V7.395A7.39,7.39,0,0,1,199.069,0h27.937a7.39,7.39,0,0,1,7.369,7.395v73.21A7.39,7.39,0,0,1,227.006,88Z" transform="translate(-163.991)" fill="#d7d7d8"/>
    <path id="Path_38213" data-name="Path 38213" d="M238.222,96.94H210.245a5.472,5.472,0,0,1-5.455-5.474V18.274a5.472,5.472,0,0,1,5.455-5.474h27.977a5.472,5.472,0,0,1,5.455,5.474V91.466A5.472,5.472,0,0,1,238.222,96.94Z" transform="translate(-175.187 -10.942)" fill="#fff"/>
    <path id="Path_38214" data-name="Path 38214" d="M308.575,23.981h-7.911a1.9,1.9,0,0,1,0-3.8h7.911a1.9,1.9,0,0,1,0,3.8Z" transform="translate(-255.572 -17.25)" fill="#d7d7d8"/>
    <rect id="Rectangle_7169" data-name="Rectangle 7169" width="30.779" height="4.348" rx="2.174" transform="translate(33.658 29.294)" fill="#296df6"/>
    <rect id="Rectangle_7170" data-name="Rectangle 7170" width="9.506" height="0.758" rx="0.379" transform="translate(34.297 25.68)" fill="#296df6"/>
    <rect id="Rectangle_7171" data-name="Rectangle 7171" width="30.779" height="4.348" rx="2.174" transform="translate(33.658 44.012)" fill="#d7d7d8"/>
    <rect id="Rectangle_7172" data-name="Rectangle 7172" width="9.506" height="0.758" rx="0.379" transform="translate(34.297 40.398)" fill="#d7d7d8"/>
    <rect id="Rectangle_7173" data-name="Rectangle 7173" width="30.779" height="4.348" rx="2.174" transform="translate(33.658 58.73)" fill="#d7d7d8"/>
    <rect id="Rectangle_7174" data-name="Rectangle 7174" width="9.506" height="0.758" rx="0.379" transform="translate(34.297 55.116)" fill="#d7d7d8"/>
    <path id="Path_38215" data-name="Path 38215" d="M518.334,122.934s-2.983.338-3.175,4.972c-.161,3.861-.487,6.014,1.078,6.82a2.36,2.36,0,0,0,1.815.116l6.391-2.109s.1-6.952-2.116-8.64A4.759,4.759,0,0,0,518.334,122.934Z" transform="translate(-440.536 -105.02)" fill="#2f2e41"/>
    <path id="Path_38216" data-name="Path 38216" d="M543.185,175.555l-3.234,1.067V171.95h2.934Z" transform="translate(-461.863 -146.988)" fill="#ffb6b6"/>
    <path id="uuid-e639489a-d12b-4c23-97cb-2af79ea40b7d" d="M478.7,343.245c-.175,1.07-.887,1.838-1.588,1.714s-1.13-1.092-.953-2.163a2.607,2.607,0,0,1,.493-1.182l.8-4.525,2.181.459-1.023,4.412a2.656,2.656,0,0,1,.088,1.285Z" transform="translate(-407.263 -288.155)" fill="#ffb6b6"/>
    <path id="uuid-56df27a3-bbb6-4bd2-b7f5-888148e3fe66" d="M596.066,342.589c.216,1.063-.179,2.034-.88,2.169s-1.442-.618-1.656-1.681a2.646,2.646,0,0,1,.042-1.28l-.852-4.516,2.2-.35.606,4.489a2.672,2.672,0,0,1,.538,1.17h0Z" transform="translate(-506.999 -288.018)" fill="#ffb6b6"/>
    <rect id="Rectangle_7175" data-name="Rectangle 7175" width="3.029" height="4.313" transform="translate(77.076 80.869)" fill="#ffb6b6"/>
    <path id="Path_38217" data-name="Path 38217" d="M495.092,575.774c-.318,0-.6-.007-.816-.028a3.782,3.782,0,0,1-1.959-1.019.552.552,0,0,1-.139-.621h0a.545.545,0,0,1,.354-.315l2.127-.61,3.443-2.331.039.07a6.162,6.162,0,0,1,.466,1.05.469.469,0,0,1-.033.389.37.37,0,0,1-.159.134,1.574,1.574,0,0,0,.859.295.955.955,0,0,0,1.07-.811l.006-.031.026-.017c.418-.27.676-.393.764-.367.055.016.148.045.4,2.532a2.564,2.564,0,0,1,.081,1.2c-.129.6-2.721.39-3.24.344-.014,0-1.956.141-3.285.141Z" transform="translate(-420.966 -487.98)" fill="#2f2e41"/>
    <path id="Path_38233" data-name="Path 38233" d="M0,0,3.032,0,3.025,4.3l-3.032,0Z" transform="translate(86.16 79.09) rotate(-31.95)" fill="#ffb6b6"/>
    <path id="Path_38218" data-name="Path 38218" d="M581.84,556.786a5.406,5.406,0,0,1-.916-.084.552.552,0,0,1-.446-.453h0a.546.546,0,0,1,.134-.456l1.483-1.646,1.693-3.806.069.038a6.139,6.139,0,0,1,.949.643.463.463,0,0,1,.176.348.369.369,0,0,1-.065.2,1.565,1.565,0,0,0,.884-.206.958.958,0,0,0,.48-1.257l-.012-.029.013-.028c.213-.452.365-.693.454-.717.056-.016.149-.041,1.672,1.938a2.546,2.546,0,0,1,.7.973c.2.573-2.1,1.777-2.568,2.012a40.4,40.4,0,0,1-3.421,2.273,2.88,2.88,0,0,1-1.283.26Z" transform="translate(-496.523 -469.583)" fill="#2f2e41"/>
    <path id="Path_38219" data-name="Path 38219" d="M514.621,308.62H506.14l-.77,7.918,3.368,29.254h4.33l-1.732-16.9,7.023,15.254,3.848-2.7-5.484-14.241s1.959-12.406.419-15.5S514.621,308.62,514.621,308.62Z" transform="translate(-432.285 -263.818)" fill="#2f2e41"/>
    <path id="Path_38220" data-name="Path 38220" d="M511.449,209.045H496.73l5.292-17.475h5.869Z" transform="translate(-424.895 -163.76)" fill="#296df6"/>
    <path id="Path_38221" data-name="Path 38221" d="M486.807,191.574s-3.656-.1-4.04.87-4.907,23.944-4.907,23.944h2.983l5.966-24.814Z" transform="translate(-408.755 -163.761)" fill="#296df6"/>
    <path id="Path_38222" data-name="Path 38222" d="M556.15,191.222s3.22-.409,3.6.556,4.907,23.944,4.907,23.944h-2.983Z" transform="translate(-475.719 -163.389)" fill="#296df6"/>
    <ellipse id="Ellipse_124" data-name="Ellipse 124" cx="3.223" cy="3.234" rx="3.223" ry="3.234" transform="translate(75.265 19.787)" fill="#ffb6b6"/>
    <path id="Path_38223" data-name="Path 38223" d="M519.787,131.7s-1.773,7.228.2,10.606l-2.777-.592s-1.076-7.91,1.088-9.349l1.491-.666Z" transform="translate(-442.181 -112.581)" fill="#2f2e41"/>
    <path id="Path_38225" data-name="Path 38225" d="M115.1,150.41l3.7,1.222V146.28h-3.362Z" transform="translate(-98.471 -125.045)" fill="#a0616a"/>
    <ellipse id="Ellipse_125" data-name="Ellipse 125" cx="3.692" cy="3.705" rx="3.692" ry="3.705" transform="translate(16.183 15.307)" fill="#a0616a"/>
    <path id="Path_38226" data-name="Path 38226" d="M108.605,101.036l.509.62.92-1.617s1.175.061,1.175-.814,1.078-.9,1.078-.9,1.526-2.674-1.635-1.97c0,0-2.193-1.507-3.282-.219,0,0-3.343,1.69-2.387,4.631l1.59,3.033.36-.687s-.218-2.882,1.672-2.079Z" transform="translate(-89.671 -81.734)" fill="#2f2e41"/>
    <rect id="Rectangle_7177" data-name="Rectangle 7177" width="3.029" height="4.313" transform="translate(18.545 85.229) rotate(180)" fill="#a0616a"/>
    <path id="Path_38227" data-name="Path 38227" d="M106.639,575.953c-.518.046-3.11.253-3.24-.344a2.565,2.565,0,0,1,.081-1.2c.249-2.488.341-2.516.4-2.532.088-.026.346.1.764.367l.026.017.006.03a.954.954,0,0,0,1.07.812,1.573,1.573,0,0,0,.859-.295.37.37,0,0,1-.159-.133.469.469,0,0,1-.033-.389,6.057,6.057,0,0,1,.466-1.05l.039-.07,3.443,2.331,2.126.61a.549.549,0,0,1,.354.315h0a.552.552,0,0,1-.139.621,3.776,3.776,0,0,1-1.959,1.019c-.214.02-.5.028-.816.028-1.329,0-3.271-.138-3.285-.141Z" transform="translate(-88.428 -488.254)" fill="#2f2e41"/>
    <path id="Path_38228" data-name="Path 38228" d="M105.412,298.848l-7.946-.408a18.839,18.839,0,0,0,.321,9.462l.185,29.076h4.49l4.233-29.993Z" transform="translate(-82.997 -255.116)" fill="#2f2e41"/>
    <path id="Path_38229" data-name="Path 38229" d="M95.728,153.973l-4.361-2.323s-4.7,6.893-4.05,10.626,1.805,10.684,1.805,10.684l9.621.408-1.68-13.688Z" transform="translate(-74.654 -129.635)" fill="#e6e6e6"/>
    <rect id="Rectangle_7178" data-name="Rectangle 7178" width="3.029" height="4.313" transform="translate(20.701 85.229) rotate(180)" fill="#a0616a"/>
    <path id="Path_38230" data-name="Path 38230" d="M121.539,575.953c-.518.046-3.11.253-3.24-.344a2.565,2.565,0,0,1,.081-1.2c.249-2.488.341-2.516.4-2.532.088-.026.346.1.764.367l.026.017.006.03a.954.954,0,0,0,1.07.812,1.573,1.573,0,0,0,.859-.295.37.37,0,0,1-.159-.133.469.469,0,0,1-.033-.389,6.058,6.058,0,0,1,.466-1.05l.039-.07,3.443,2.331,2.126.61a.549.549,0,0,1,.354.315h0a.552.552,0,0,1-.139.621,3.776,3.776,0,0,1-1.959,1.019c-.214.02-.5.028-.816.028-1.329,0-3.271-.138-3.285-.141Z" transform="translate(-101.172 -488.254)" fill="#2f2e41"/>
    <path id="Path_38231" data-name="Path 38231" d="M107.077,298.848l-9.621-.408a18.839,18.839,0,0,0,.321,9.462l1.86,29.076h4.49l4.233-29.993Z" transform="translate(-82.988 -255.116)" fill="#2f2e41"/>
    <path id="uuid-e3777ca2-fb97-40f5-b301-a7df89d05aed" d="M168.467,321.425c.354,1.025.093,2.04-.583,2.268s-1.51-.419-1.865-1.446a2.616,2.616,0,0,1-.127-1.275l-1.442-4.362,2.135-.64,1.2,4.368a2.647,2.647,0,0,1,.687,1.087h0Z" transform="translate(-140.682 -270.101)" fill="#a0616a"/>
    <path id="Path_38232" data-name="Path 38232" d="M108.54,176.878s3.136-.836,3.647.07,8.039,23.076,8.039,23.076l-4.78.624-6.9-23.77Z" transform="translate(-92.86 -150.9)" fill="#e6e6e6"/>
  </g>
</svg>
