<svg xmlns="http://www.w3.org/2000/svg" width="90" height="88" viewBox="0 0 90 88">
  <g id="Add_New_Patient" data-name="Add New Patient" transform="translate(-7.45)">
    <path id="Path_38179" data-name="Path 38179" d="M789.573,353.163a76.441,76.441,0,0,1-6.745,14.439c-.063.1-.126.207-.19.312l-6.994-2.158c.04-.1.084-.209.132-.33,2.821-7.115,19.841-50.468,19.077-59.016C794.935,307.109,797.6,330.264,789.573,353.163Z" transform="translate(-702.357 -280.387)" fill="#22bf85"/>
    <path id="Path_38180" data-name="Path 38180" d="M804.47,585.324c-.1.095-.193.189-.291.281l-5.247-1.619.249-.294c1.554-1.851,6.174-7.392,10.685-13.223,4.848-6.266,9.571-12.865,10.233-15.576C819.966,555.509,815.826,574.279,804.47,585.324Z" transform="translate(-722.649 -497.693)" fill="#22bf85"/>
    <path id="Path_38181" data-name="Path 38181" d="M558.973,114.451h-.006v-10.97A4.536,4.536,0,0,0,554.376,99H519.164a4.536,4.536,0,0,0-4.591,4.478v5.624a.367.367,0,0,0-.364.362v2.785a.367.367,0,0,0,.364.362v2.918h-.019a.368.368,0,0,0-.372.363v5.386a.368.368,0,0,0,.372.363h.019v2.139h-.006a.368.368,0,0,0-.372.363v5.439a.368.368,0,0,0,.372.363h.006v52.575A4.536,4.536,0,0,0,519.164,187h35.212a4.536,4.536,0,0,0,4.591-4.478V125.118h.006a.655.655,0,0,0,.663-.647V115.1A.655.655,0,0,0,558.973,114.451Z" transform="translate(-474.529 -99.004)" fill="#3f3d56"/>
    <path id="Path_38182" data-name="Path 38182" d="M577.443,120.713v76.536a3.484,3.484,0,0,1-3.526,3.438H542.058a3.483,3.483,0,0,1-3.526-3.438V120.713a3.483,3.483,0,0,1,3.526-3.439h4.768v.6a2.87,2.87,0,0,0,2.9,2.832h16.209a2.868,2.868,0,0,0,2.9-2.832v-.6h5.083A3.484,3.484,0,0,1,577.443,120.713Z" transform="translate(-495.747 -114.982)" fill="#fff"/>
    <path id="Path_38183" data-name="Path 38183" d="M349.943,440.652a1.414,1.414,0,0,0-1.167.077,1.351,1.351,0,0,0-.689.922l-11.353,6.021,2,2.191,10.543-6.6a1.388,1.388,0,0,0,1.524-1.016A1.348,1.348,0,0,0,349.943,440.652Z" transform="translate(-319.909 -397.706)" fill="#ffb8b8"/>
    <path id="Path_38184" data-name="Path 38184" d="M188,641.274l1.415-.892-2.856-5.747-2.088,1.317Z" transform="translate(-160.857 -555.008)" fill="#ffb8b8"/>
    <path id="Path_38185" data-name="Path 38185" d="M0,0,5.257.06,5.28,2.07l-3.3-.037A2,2,0,0,1,0,.075V0Z" transform="translate(32.131 84.933) rotate(147.104)" fill="#2f2e41"/>
    <path id="Path_38186" data-name="Path 38186" d="M88.511,645.026H90.2l.8-6.339H88.511Z" transform="translate(-77.246 -558.553)" fill="#ffb8b8"/>
    <path id="Path_38187" data-name="Path 38187" d="M0,0H5.3V2H1.969A1.946,1.946,0,0,1,0,.075Z" transform="translate(16.199 88) rotate(180)" fill="#2f2e41"/>
    <path id="Path_38188" data-name="Path 38188" d="M568.295,193.623h-3.473a.314.314,0,1,1,0-.627h3.473a.314.314,0,1,1,0,.627Z" transform="translate(-518.375 -181.203)" fill="#3f3d56"/>
    <path id="Path_38189" data-name="Path 38189" d="M568.295,200.623h-3.473a.314.314,0,1,1,0-.627h3.473a.314.314,0,1,1,0,.627Z" transform="translate(-518.375 -187.325)" fill="#3f3d56"/>
    <path id="Path_38190" data-name="Path 38190" d="M568.295,207.623h-3.473a.314.314,0,1,1,0-.627h3.473a.314.314,0,1,1,0,.627Z" transform="translate(-518.375 -193.446)" fill="#3f3d56"/>
    <path id="Path_38191" data-name="Path 38191" d="M790.779,194.045h-.117l-.045-.036a.964.964,0,1,0-.723.325,1.01,1.01,0,0,0,.628-.223l.044.036v.115l.739.721.221-.216Zm-.885,0a.65.65,0,1,1,.664-.652v0a.654.654,0,0,1-.659.65Z" transform="translate(-713.935 -180.74)" fill="#3f3d56"/>
    <path id="Path_38192" data-name="Path 38192" d="M597.155,270.756h-6.24a1.381,1.381,0,1,1,0-2.76h6.24a1.381,1.381,0,1,1,0,2.76Z" transform="translate(-540.159 -246.793)" fill="#296df6"/>
    <path id="Path_38193" data-name="Path 38193" d="M616.257,303.5H590.272a.753.753,0,1,1,0-1.506h25.986a.753.753,0,1,1,0,1.506Z" transform="translate(-540.159 -276.527)" fill="#e6e6e6"/>
    <path id="Path_38194" data-name="Path 38194" d="M599.817,327.5h-9.545a.753.753,0,1,1,0-1.506h9.545a.753.753,0,1,1,0,1.506Z" transform="translate(-540.159 -297.516)" fill="#e6e6e6"/>
    <path id="Path_38195" data-name="Path 38195" d="M597.155,536.756h-6.24a1.381,1.381,0,1,1,0-2.76h6.24a1.381,1.381,0,1,1,0,2.76Z" transform="translate(-540.159 -479.418)" fill="#296df6"/>
    <path id="Path_38196" data-name="Path 38196" d="M616.257,569.5H590.272a.753.753,0,1,1,0-1.506h25.986a.753.753,0,1,1,0,1.506Z" transform="translate(-540.159 -509.152)" fill="#e6e6e6"/>
    <path id="Path_38197" data-name="Path 38197" d="M599.817,593.5h-9.545a.753.753,0,1,1,0-1.506h9.545a.753.753,0,1,1,0,1.506Z" transform="translate(-540.159 -530.141)" fill="#e6e6e6"/>
    <path id="Path_38198" data-name="Path 38198" d="M597.155,659.756h-6.24a1.381,1.381,0,1,1,0-2.76h6.24a1.381,1.381,0,1,1,0,2.76Z" transform="translate(-540.159 -586.985)" fill="#296df6"/>
    <path id="Path_38199" data-name="Path 38199" d="M616.257,692.5H590.272a.753.753,0,1,1,0-1.506h25.986a.753.753,0,1,1,0,1.506Z" transform="translate(-540.159 -616.72)" fill="#e6e6e6"/>
    <path id="Path_38200" data-name="Path 38200" d="M599.817,716.5h-9.545a.753.753,0,1,1,0-1.506h9.545a.753.753,0,1,1,0,1.506Z" transform="translate(-540.159 -637.708)" fill="#e6e6e6"/>
    <path id="Path_38201" data-name="Path 38201" d="M482.249,386.8H432.593a1.081,1.081,0,0,1-1.093-1.066V372.563a1.082,1.082,0,0,1,1.093-1.067h49.656a1.082,1.082,0,0,1,1.093,1.067v13.174A1.081,1.081,0,0,1,482.249,386.8Z" transform="translate(-402.484 -337.307)" fill="#296df6"/>
    <path id="Path_38202" data-name="Path 38202" d="M289.164,598.343c.475,3.248-2.039,17.64-1.76,17.638l3.61-.019c.129-.241,1.786-8.006,2.305-9.252a23.1,23.1,0,0,0,1.743-5.326,20.753,20.753,0,0,0-.039-5.246.326.326,0,0,0-.1-.286.346.346,0,0,0-.3-.09l-4.843-.243c-1-.05-1.235-.263-1.083.693C288.809,596.926,289.059,597.621,289.164,598.343Z" transform="translate(-276.906 -533.174)" fill="#2f2e41"/>
    <path id="Path_38203" data-name="Path 38203" d="M296.773,553.024c-.984,1.38-2.016,2.969-1.689,4.621a6.546,6.546,0,0,0,2.154,3.137c3.7,3.621,10.987,19.6,10.987,19.6,3.518-2.2-.084.063,3.486-2.258-.316-.024-7.506-25.232-8.1-25.266A22.082,22.082,0,0,0,296.773,553.024Z" transform="translate(-283.563 -495.752)" fill="#2f2e41"/>
    <path id="Path_38204" data-name="Path 38204" d="M305.941,438.355a32.513,32.513,0,0,0-4.013-1.776.617.617,0,0,0-.194.006.405.405,0,0,0-.248.487c.043.2-.308,3.416-.4,4.88-.158,2.555,1.385,8.344,1.371,8.521a2.617,2.617,0,0,1-.8,1.668c.12.146,7.753.437,8.272.61.1-.13-.591-9.311-.623-9.83C309.256,442.134,306.6,438.952,305.941,438.355Z" transform="translate(-288.838 -394.22)" fill="#e6e6e6"/>
    <path id="Path_38205" data-name="Path 38205" d="M282.914,474.119a1.355,1.355,0,0,0,.728-.892,1.321,1.321,0,0,0-.234-1.117l3.22-17.382-3.005-.039-2.236,17.189a1.332,1.332,0,0,0-.258,1.782A1.41,1.41,0,0,0,282.914,474.119Z" transform="translate(-271.255 -410.061)" fill="#ffb8b8"/>
    <path id="Path_38206" data-name="Path 38206" d="M293.864,446.885a.581.581,0,0,1-.355-.09,6.324,6.324,0,0,1,1.568-2.468,7.538,7.538,0,0,1,2.812.107,3.352,3.352,0,0,1,2.171,1.641c.17.346-1.061,2.089-1.621,1.833A22.65,22.65,0,0,0,293.864,446.885Z" transform="translate(-282.231 -400.929)" fill="#e6e6e6"/>
    <ellipse id="Ellipse_123" data-name="Ellipse 123" cx="3.375" cy="3.292" rx="3.375" ry="3.292" transform="translate(11.568 35.588)" fill="#ffb8b8"/>
    <path id="Path_38207" data-name="Path 38207" d="M268.03,373.422a2.854,2.854,0,0,0,2.492-1.013,2.7,2.7,0,0,0,.478-2.591c-.134-.394-.359-.755-.482-1.152a1.257,1.257,0,0,1,.147-1.186c.534-.623,1.563-.231,2.386-.355a2.017,2.017,0,0,0,1.62-1.815,2.716,2.716,0,0,0-1.077-2.265,4.625,4.625,0,0,0-2.454-.9,6.71,6.71,0,0,0-5.956,2.554,6.342,6.342,0,0,0-.856,6.29,4.489,4.489,0,0,0,1.827,2.232,2.9,2.9,0,0,0,2.839.09" transform="translate(-256.402 -329.098)" fill="#2f2e41"/>
    <path id="Path_38208" data-name="Path 38208" d="M512.12,400.256h-8.626c-.548,0-.993-.619-.993-1.38s.446-1.38.993-1.38h8.626c.548,0,.993.619.993,1.38S512.667,400.256,512.12,400.256Z" transform="translate(-464.35 -360.045)" fill="#fff"/>
    <path id="Path_38209" data-name="Path 38209" d="M535.3,433H503.272a.753.753,0,1,1,0-1.506H535.3a.753.753,0,1,1,0,1.506Z" transform="translate(-464.35 -389.779)" fill="#e6e6e6"/>
    <path id="Path_38210" data-name="Path 38210" d="M518.863,457H503.272a.753.753,0,1,1,0-1.506h15.591a.753.753,0,1,1,0,1.506Z" transform="translate(-464.35 -410.767)" fill="#e6e6e6"/>
  </g>
</svg>
