<svg xmlns="http://www.w3.org/2000/svg" xmlns:xlink="http://www.w3.org/1999/xlink" width="144" height="144" viewBox="0 0 144 144">
  <defs>
    <filter id="Rectangle_7193" x="0" y="0" width="144" height="144" filterUnits="userSpaceOnUse">
      <feOffset dy="4" input="SourceAlpha"/>
      <feGaussianBlur stdDeviation="4" result="blur"/>
      <feFlood flood-opacity="0.141"/>
      <feComposite operator="in" in2="blur"/>
      <feComposite in="SourceGraphic"/>
    </filter>
  </defs>
  <g id="Congratulations" transform="translate(-129 -315)">
    <g transform="matrix(1, 0, 0, 1, 129, 315)" filter="url(#Rectangle_7193)">
      <rect id="Rectangle_7193-2" data-name="Rectangle 7193" width="120" height="120" rx="60" transform="translate(12 8)" fill="#fff"/>
    </g>
    <path id="Subtraction_11" data-name="Subtraction 11" d="M523.7-7562.08a60.263,60.263,0,0,1-22.92-21.654,59.7,59.7,0,0,1-6.478-14.751A60.115,60.115,0,0,1,492-7615a59.625,59.625,0,0,1,4.715-23.355,60.007,60.007,0,0,1,5.532-10.192,60.433,60.433,0,0,1,7.326-8.88,60.415,60.415,0,0,1,8.88-7.327,60.02,60.02,0,0,1,10.192-5.532A59.632,59.632,0,0,1,552-7675a59.722,59.722,0,0,1,33.3,10.081,59.685,59.685,0,0,0-13.474-5.234A60.212,60.212,0,0,0,557-7672a59.622,59.622,0,0,0-23.355,4.715,59.975,59.975,0,0,0-10.192,5.532,60.468,60.468,0,0,0-8.88,7.326,60.44,60.44,0,0,0-7.326,8.88,60,60,0,0,0-5.532,10.192A59.627,59.627,0,0,0,497-7612a60.2,60.2,0,0,0,1.91,15.073,59.676,59.676,0,0,0,5.409,13.666,60.241,60.241,0,0,0,8.429,11.779,60.364,60.364,0,0,0,10.953,9.4Z" transform="translate(-351 7998)" fill="#286df6"/>
    <g id="Group_17231" data-name="Group 17231" transform="translate(160.85 330.519)">
      <path id="Path_38371" data-name="Path 38371" d="M409.614,226.438a17.091,17.091,0,0,1-1.879.594,3,3,0,0,1-2.129-.015l-.081-.033a8.63,8.63,0,0,1-5.253-7.825c0-.057,0-.118,0-.177a8.422,8.422,0,0,1,.041-.849,8.584,8.584,0,0,1,.184-1.142h-.008a3.138,3.138,0,0,1-.827-2.52,4.165,4.165,0,0,1,1.881-3.114,6.589,6.589,0,0,1,2.735-.965,6.934,6.934,0,0,1,.786-.046h2.469a10.668,10.668,0,0,1,1.55-.244h0c4.968-.412,8.887,2.882,8.521,6.889l-.009.013c-.106.172-.2.336-.282.492s-.148.286-.206.418c-.453,1.024,1.7,16.917.928,17.159-.44.137-2.213-11.689-1.895-9.441C416.541,228.452,411.9,225.592,409.614,226.438Z" transform="translate(-386.568 -195.967)" fill="#2f2e41"/>
      <path id="Path_38372" data-name="Path 38372" d="M92.612,383.741,99.5,398.414,73,395.73l5.53-14.085Z" transform="translate(-62.081 -324.54)" fill="#ffb6b6"/>
      <path id="Path_38373" data-name="Path 38373" d="M403.716,585.6a38.591,38.591,0,0,1-14.311,1.917l-2.108-3.419s-.088,1.273-.22,3.22a37.238,37.238,0,0,1-6.8-1.442,97.122,97.122,0,0,1-12.145-5.233c-.81-4.826-1.113-12.267,3.362-16.6l24.089,4.414s3.865,2.891,2.831,3.926-1.194.874-.515,1.553,2.147,1.588,2.162,2.182C400.064,576.348,401.711,580.554,403.716,585.6Z" transform="translate(-359.36 -496.977)" fill="#2f2e41"/>
      <path id="Path_38374" data-name="Path 38374" d="M403.245,322.007l-5.82.406-3.762,3.635-1.317.235a4.912,4.912,0,0,0-4.041,5.124c.271,4.591.878,11.451,2.146,13.676,1.966,3.451,3.59,2.368,1.966,3.451s-2.715.232-1.966,1.943-1.011,3.906-1.011,3.906l-.7.7.743.3,23.671,3.08s-2.047-9.2-.767-11.463,4.384-9.094,1.614-11.768l-2.708-9.531-4.659-1.374Z" transform="translate(-376.922 -291.159)" fill="#286df6"/>
      <path id="Path_38375" data-name="Path 38375" d="M646.019,493.13a2.691,2.691,0,0,1-2.556-3.2l-11.1-7.52,1.325-3.583,13.122,9.028a2.687,2.687,0,0,1-.788,5.277Z" transform="translate(-584.465 -424.512)" fill="#ffb6b6"/>
      <path id="Path_38376" data-name="Path 38376" d="M504.88,341.053l-1.613.639,8.607,16.81,17.818,12.145,2.568-4.341L518.7,354.591l-5.43-10.414A6.683,6.683,0,0,0,504.88,341.053Z" transform="translate(-474.688 -306.955)" fill="#286df6"/>
      <path id="Path_38389" data-name="Path 38389" d="M5.844,0A5.844,5.844,0,1,1,0,5.844,5.844,5.844,0,0,1,5.844,0Z" transform="translate(17.267 17.682)" fill="#ffb6b6"/>
      <path id="Path_38377" data-name="Path 38377" d="M414.733,224.081c-.1.051-.194.1-.291.146s-.2.1-.306.143c-1.956.887-3.549.985-4.515-.29a5.412,5.412,0,0,0-.445-1.946,3.128,3.128,0,0,1-.516,1.946h-1.946c-2,1.33-3.033,2.553-1.642,6.92.091.287.712,10.481.889,11.265-3.034-1.164-5.652-13.522-5.718-16.779,0-.053,0-.108,0-.162a7.117,7.117,0,0,1,.041-.781,7.312,7.312,0,0,1,.184-1.05h-.008a2.743,2.743,0,0,1-.827-2.317,6.683,6.683,0,0,1,1.857-1.665,11.851,11.851,0,0,1,2.033-.763l.05-.012c.214-.058.433-.111.652-.157a12.256,12.256,0,0,1,1.368-.207c.034,0,.066,0,.1,0a1.026,1.026,0,0,1,.522.143h0a1.031,1.031,0,0,1,.5.877h2.168c.08,0,.16,0,.24.007,3.02.12,5.446,1.412,5.6,4.38C414.73,223.878,414.733,223.978,414.733,224.081Z" transform="translate(-386.54 -203.026)" fill="#2f2e41"/>
      <circle id="Ellipse_135" data-name="Ellipse 135" cx="3.85" cy="3.85" r="3.85" transform="translate(11.524 13.59)" fill="#2f2e41"/>
      <path id="Path_38378" data-name="Path 38378" d="M407.215,191.068a3.8,3.8,0,0,1-4.66,2.816,3.85,3.85,0,0,1-2.816-4.66c.509-2.064,3.015-1.469,4.66-2.816C406.726,184.5,407.805,188.262,407.215,191.068Z" transform="translate(-386.556 -175.409)" fill="#2f2e41"/>
      <path id="Path_38379" data-name="Path 38379" d="M390.689,406.7c3.281-13.381,9.783-24.882,20.55-33.893a3.029,3.029,0,0,1,4.156-1.019l25.6,15.52a3.029,3.029,0,0,1,1.019,4.156c-4.11,13.73-10.265,25.645-20.55,33.893a3.029,3.029,0,0,1-4.156,1.019l-25.6-15.52a3.029,3.029,0,0,1-1.019-4.156Z" transform="translate(-378.583 -333.119)" fill="#f2f2f2"/>
      <path id="Path_38380" data-name="Path 38380" d="M395.238,411.209a3.029,3.029,0,0,1-1.019-4.156c3.281-13.381,9.783-24.882,20.55-33.893a2.991,2.991,0,0,1,1.129-1.066l-.5-.305a3.029,3.029,0,0,0-4.156,1.019c-10.767,9.011-17.269,20.512-20.55,33.893a3.029,3.029,0,0,0,1.019,4.156l25.6,15.52a3.016,3.016,0,0,0,3.027.048Z" transform="translate(-378.583 -333.119)" opacity="0.2" style="mix-blend-mode: normal;isolation: isolate"/>
      <path id="Path_38381" data-name="Path 38381" d="M523.243,516.236l-17.182-10.353a1.2,1.2,0,0,1,1.242-2.062l17.182,10.353a1.2,1.2,0,1,1-1.242,2.062Z" transform="translate(-476.569 -445.621)" fill="#fff"/>
      <path id="Path_38382" data-name="Path 38382" d="M532.589,470.366l-3.78-2.278a1.2,1.2,0,1,1,1.236-2.066l.006,0,3.78,2.278a1.2,1.2,0,0,1-1.242,2.062Z" transform="translate(-495.91 -413.48)" fill="#fff"/>
      <path id="Path_38383" data-name="Path 38383" d="M504.985,546.521,487.8,536.168a1.2,1.2,0,0,1,1.24-2.063h0l17.182,10.353a1.2,1.2,0,1,1-1.242,2.062Z" transform="translate(-461.043 -471.374)" fill="#fff"/>
      <circle id="Ellipse_136" data-name="Ellipse 136" cx="5.018" cy="5.018" r="5.018" transform="translate(43.837 41.058)" fill="#286df6"/>
      <ellipse id="Ellipse_137" data-name="Ellipse 137" cx="19.451" cy="19.452" rx="19.451" ry="19.452" transform="translate(40.907 55.826)" fill="#fff"/>
      <path id="Path_38384" data-name="Path 38384" d="M528.008,678.235a19.723,19.723,0,1,1,19.723-19.723A19.723,19.723,0,0,1,528.008,678.235Zm0-38.9a19.18,19.18,0,1,0,19.18,19.18A19.18,19.18,0,0,0,528.008,639.332Z" transform="translate(-467.65 -583.235)" fill="#21bf85"/>
      <path id="Path_38385" data-name="Path 38385" d="M551.131,694.411a2.163,2.163,0,0,1-1.731-.866l-5.307-7.076a2.164,2.164,0,0,1,3.462-2.6l3.472,4.629,8.917-13.375a2.164,2.164,0,0,1,3.6,2.4l-10.613,15.92a2.165,2.165,0,0,1-1.74.963Z" transform="translate(-493.426 -609.01)" fill="#21bf85"/>
      <g id="Group_17234" data-name="Group 17234" transform="translate(192.875 128.493) rotate(-149)">
        <ellipse id="Ellipse_138" data-name="Ellipse 138" cx="3.146" cy="2.189" rx="3.146" ry="2.189" transform="translate(152.476 30.474) rotate(-4.887)" fill="#28aff6"/>
        <ellipse id="Ellipse_139" data-name="Ellipse 139" cx="3.146" cy="2.189" rx="3.146" ry="2.189" transform="translate(171.957 23.865) rotate(-4.887)" fill="#ff0093"/>
        <ellipse id="Ellipse_140" data-name="Ellipse 140" cx="3.146" cy="2.189" rx="3.146" ry="2.189" transform="translate(143.241 15.611) rotate(-4.887)" fill="#f80"/>
        <ellipse id="Ellipse_141" data-name="Ellipse 141" cx="1.383" cy="1.989" rx="1.383" ry="1.989" transform="translate(136.353 11.341) rotate(-12.732)" fill="#22fd87"/>
        <ellipse id="Ellipse_142" data-name="Ellipse 142" cx="1.383" cy="1.989" rx="1.383" ry="1.989" transform="translate(130.535 -0.285) rotate(-12.732)" fill="#ff0093"/>
        <ellipse id="Ellipse_143" data-name="Ellipse 143" cx="1.383" cy="1.989" rx="1.383" ry="1.989" transform="translate(158.449 16.043) rotate(-12.732)" fill="#22fd87"/>
        <ellipse id="Ellipse_144" data-name="Ellipse 144" cx="1.383" cy="1.989" rx="1.383" ry="1.989" transform="translate(149.94 23.106) rotate(-12.732)" fill="#f80"/>
        <ellipse id="Ellipse_145" data-name="Ellipse 145" cx="1.383" cy="1.989" rx="1.383" ry="1.989" transform="translate(165.431 28.86) rotate(-12.732)" fill="#ff0093"/>
      </g>
      <g id="Group_17233" data-name="Group 17233" transform="matrix(0.174, -0.985, 0.985, 0.174, 56.835, 95.858)">
        <ellipse id="Ellipse_146" data-name="Ellipse 146" cx="2.189" cy="3.146" rx="2.189" ry="3.146" transform="translate(68.919 -54.923) rotate(-75.779)" fill="#28aff6"/>
        <ellipse id="Ellipse_147" data-name="Ellipse 147" cx="2.189" cy="3.146" rx="2.189" ry="3.146" transform="translate(48.348 -55.056) rotate(-75.779)" fill="#ff0093"/>
        <ellipse id="Ellipse_148" data-name="Ellipse 148" cx="2.189" cy="3.146" rx="2.189" ry="3.146" transform="translate(72.779 -37.856) rotate(-75.779)" fill="#f80"/>
        <ellipse id="Ellipse_149" data-name="Ellipse 149" cx="1.989" cy="1.383" rx="1.989" ry="1.383" transform="translate(81.243 -30.328) rotate(-83.624)" fill="#22fd87"/>
        <ellipse id="Ellipse_150" data-name="Ellipse 150" cx="1.989" cy="1.383" rx="1.989" ry="1.383" transform="translate(82.934 -17.438) rotate(-83.624)" fill="#ff0093"/>
        <ellipse id="Ellipse_152" data-name="Ellipse 152" cx="1.989" cy="1.383" rx="1.989" ry="1.383" transform="translate(72.255 -45.893) rotate(-83.624)" fill="#f80"/>
        <ellipse id="Ellipse_153" data-name="Ellipse 153" cx="1.989" cy="1.383" rx="1.989" ry="1.383" transform="translate(59.502 -56.399) rotate(-83.624)" fill="#ff0093"/>
      </g>
      <path id="Path_38387" data-name="Path 38387" d="M349.3,501.758a2.854,2.854,0,0,1-1.352-4.131l-8.245-11.59,2.645-3.069,9.693,13.838a2.85,2.85,0,0,1-2.74,4.952Z" transform="translate(-335.598 -428.035)" fill="#ffb6b6"/>
      <path id="Path_38388" data-name="Path 38388" d="M327.014,361.475h0a2.035,2.035,0,0,0-2.6.458l-11.141,15.581L323.6,392.177l4.04-4.339-6.284-9.876,8.352-7.952A6.683,6.683,0,0,0,327.014,361.475Z" transform="translate(-313.123 -324.482)" fill="#286df6"/>
      <ellipse id="Ellipse_154" data-name="Ellipse 154" cx="1.989" cy="1.383" rx="1.989" ry="1.383" transform="matrix(-0.966, 0.259, -0.259, -0.966, 26.708, 27.424)" fill="#333"/>
    </g>
  </g>
</svg>
