<svg xmlns="http://www.w3.org/2000/svg" width="230.07" height="180" viewBox="0 0 230.07 180">
  <g id="find_patient_empty" data-name="find patient empty" transform="translate(-63.93)">
    <g id="Group_17209" data-name="Group 17209">
      <path id="Path_38333" data-name="Path 38333" d="M10.191,126.63H154.6a10.2,10.2,0,0,1,10.191,10.214h0A10.2,10.2,0,0,1,154.6,147.059H10.191A10.2,10.2,0,0,1,0,136.844H0A10.2,10.2,0,0,1,10.191,126.63Z" transform="translate(90 -86.721)" fill="#286df6"/>
      <path id="Path_38335" data-name="Path 38335" d="M421.8,93.95h29.982a1.294,1.294,0,0,1,1.3,1.3h0a1.294,1.294,0,0,1-1.3,1.3H421.8a1.294,1.294,0,0,1-1.3-1.3h0A1.294,1.294,0,0,1,421.8,93.95Z" transform="translate(-288.276 -64.341)" fill="#dfdfe0"/>
      <path id="Path_38336" data-name="Path 38336" d="M1.3,0H31.278a1.294,1.294,0,0,1,1.3,1.3h0a1.294,1.294,0,0,1-1.3,1.3H1.3A1.29,1.29,0,0,1,0,1.3H0A1.294,1.294,0,0,1,1.3,0Z" transform="translate(90)" fill="#dfdfe0"/>
      <path id="Path_38337" data-name="Path 38337" d="M1.3,35.91h88a1.3,1.3,0,0,1,1.3,1.3h0a1.294,1.294,0,0,1-1.3,1.3H1.3a1.294,1.294,0,0,1-1.3-1.3H0A1.3,1.3,0,0,1,1.3,35.91Z" transform="translate(90 -24.593)" fill="#dfdfe0"/>
      <path id="Path_38338" data-name="Path 38338" d="M233.77,234.144a12.275,12.275,0,0,0,17.961,10.908l11.9,18.91a2.337,2.337,0,0,0,3.38.627h0a2.349,2.349,0,0,0,.5-3.249l-13.084-18.2a12.29,12.29,0,1,0-20.65-8.995Zm1.685,0a10.594,10.594,0,1,1,10.594,10.618A10.606,10.606,0,0,1,235.455,234.144Z" transform="translate(-70.262 -151.925)" fill="#484662"/>
    </g>
    <path id="Path_38321" data-name="Path 38321" d="M717.825,88.838s-6.471.731-6.889,10.775c-.349,8.371-1.06,13.035,2.339,14.781a5.133,5.133,0,0,0,3.94.252l13.867-4.57s.208-15.065-4.594-18.727-8.663-2.512-8.663-2.512Z" transform="translate(-487.173 -60.723)" fill="#36344e"/>
    <path id="Path_38322" data-name="Path 38322" d="M742.528,145.483,735.51,147.8V137.67h6.367Z" transform="translate(-504.232 -94.282)" fill="#faafb2"/>
    <path id="uuid-ea0a1472-32fb-4242-948a-de51795c4bd3-46-44" d="M677.389,315.851c-.38,2.32-1.924,3.984-3.446,3.716s-2.45-2.367-2.069-4.686a5.674,5.674,0,0,1,1.069-2.562l1.739-9.808,4.732.993-2.217,9.562a5.744,5.744,0,0,1,.192,2.786Z" transform="translate(-460.547 -207.171)" fill="#faafb2"/>
    <path id="Path_38323" data-name="Path 38323" d="M718.056,475.273h-6.572l-3.814-35.2h10.163Z" transform="translate(-485.146 -301.378)" fill="#faafb2"/>
    <path id="Path_38324" data-name="Path 38324" d="M685.46,546.538c-.692,0-1.308-.016-1.77-.06a8.209,8.209,0,0,1-4.248-2.206,1.2,1.2,0,0,1-.3-1.346h0a1.192,1.192,0,0,1,.77-.684l4.613-1.321,7.471-5.052.085.151a13.392,13.392,0,0,1,1.009,2.275,1.016,1.016,0,0,1-.072.845.805.805,0,0,1-.346.29,3.433,3.433,0,0,0,1.865.637,2.073,2.073,0,0,0,2.324-1.759l.013-.066.057-.038c.906-.586,1.465-.851,1.657-.794.119.035.321.1.862,5.487a5.544,5.544,0,0,1,.176,2.6c-.28,1.292-5.905.848-7.031.744-.031,0-4.242.3-7.128.3h0Z" transform="translate(-465.525 -366.986)" fill="#36344e"/>
    <path id="Path_38325" data-name="Path 38325" d="M765.286,475.273h-6.575l-3.811-35.2h10.16Z" transform="translate(-517.525 -301.378)" fill="#faafb2"/>
    <path id="Path_38326" data-name="Path 38326" d="M732.69,546.538c-.692,0-1.308-.016-1.77-.06a8.209,8.209,0,0,1-4.248-2.206,1.2,1.2,0,0,1-.3-1.346h0a1.192,1.192,0,0,1,.77-.684l4.613-1.321,7.471-5.052.085.151a13.388,13.388,0,0,1,1.009,2.275,1.016,1.016,0,0,1-.072.845.805.805,0,0,1-.346.29,3.433,3.433,0,0,0,1.865.637,2.073,2.073,0,0,0,2.324-1.759l.013-.066.057-.038c.909-.586,1.465-.851,1.657-.794.119.035.321.1.862,5.487a5.546,5.546,0,0,1,.176,2.6c-.28,1.292-5.905.848-7.031.744-.031,0-4.242.3-7.129.3h0Z" transform="translate(-497.903 -366.986)" fill="#36344e"/>
    <path id="Path_38327" data-name="Path 38327" d="M724.308,195.13H692.37l11.48-37.87h12.735Z" transform="translate(-474.658 -107.698)" fill="#dfdfe0"/>
    <path id="Path_38328" data-name="Path 38328" d="M692.944,157.258s-7.933-.208-8.767,1.885-10.647,51.891-10.647,51.891H680l12.943-53.772h0Z" transform="translate(-461.742 -107.692)" fill="#dfdfe0"/>
    <ellipse id="Ellipse_130" data-name="Ellipse 130" cx="6.993" cy="7.009" rx="6.993" ry="7.009" transform="translate(225.152 32.171)" fill="#faafb2"/>
    <path id="Path_38329" data-name="Path 38329" d="M718.721,97.51s-3.849,15.663.431,22.985l-6.028-1.283s-2.336-17.141,2.361-20.258Z" transform="translate(-488.487 -66.779)" fill="#36344e"/>
    <path id="Path_38330" data-name="Path 38330" d="M702.079,277.42H681.118L669.65,324.6a4.078,4.078,0,0,0,2.981,4.371c6.292,1.689,21.392,4.081,44.242-2.584a4.092,4.092,0,0,0,2.758-5.156L702.079,277.42Z" transform="translate(-459.066 -189.989)" fill="#36344e"/>
    <path id="Path_38331" data-name="Path 38331" d="M745.88,156.637l6.518-.287a8.943,8.943,0,0,1,6.889,4.151c4.607,7.3,13.226,22.682,5.531,24.79-10.144,2.777-15.059-12.682-15.059-12.682l-3.88-15.972h0Z" transform="translate(-511.342 -107.075)" fill="#dfdfe0"/>
    <path id="uuid-298a271f-a3d1-4ea5-9ac1-ac2853dfa275-47-45" d="M736.509,160.033c-1.34-1.929-1.387-4.2-.11-5.074s3.4-.013,4.742,1.916a5.665,5.665,0,0,1,1.013,2.584l5.569,8.251-4.085,2.594-5.056-8.408a5.7,5.7,0,0,1-2.072-1.863Z" transform="translate(-504.206 -105.888)" fill="#faafb2"/>
    <path id="Path_38332" data-name="Path 38332" d="M749.25,183.752l4.6-4.242,9.1,8.487-8.458,5.8Z" transform="translate(-513.652 -122.936)" fill="#dfdfe0"/>
    <path id="Path_38334" data-name="Path 38334" d="M203.31,569.135a.373.373,0,0,0,.374.375H433.006a.375.375,0,0,0,0-.75H203.684A.373.373,0,0,0,203.31,569.135Z" transform="translate(-139.38 -389.51)" fill="#484565"/>
  </g>
</svg>
