<svg xmlns="http://www.w3.org/2000/svg" width="232" height="200" viewBox="0 0 232 200">
  <g id="Privacy_Policy" data-name="Privacy Policy" transform="translate(-70 -140)">
    <path id="Path_38060" data-name="Path 38060" d="M89.613,30.927c15.012,0,26.015,12.982,37.719,12.647,13.577-.388,27.385-14.007,41.351-12.647C194.124,33.4,188.847,44,205.2,48.8c22.63,6.642,17.736,6.453,17.736,10.34,0,15.277-55.893,9.507-114.807,9.507-25.51,0-54.714-.565-66.38-3.447-14.641-3.616-28.4-10.545-28.4-19.207,0-7.883,35.933-3.317,43.379-5.165C63.213,39.216,61.1,30.927,89.613,30.927Z" transform="translate(78.622 270.283)" fill="#b2e8d4"/>
    <g id="Group_16770" data-name="Group 16770" transform="translate(70 140)">
      <path id="Path_38116" data-name="Path 38116" d="M971.738,718.867V696.188S980.576,712.266,971.738,718.867Z" transform="translate(-930.724 -537.686)" fill="#22bf85"/>
      <path id="Path_38117" data-name="Path 38117" d="M936.9,734.931,920.19,719.594S938.011,723.957,936.9,734.931Z" transform="translate(-895.336 -553.754)" fill="#22bf85"/>
      <path id="Path_38118" data-name="Path 38118" d="M743.241,558.012a2.851,2.851,0,0,1,3.088-3.095l3.012-5.778,3.958.974-4.368,8.1a2.867,2.867,0,0,1-5.69-.2Z" transform="translate(-562.499 -418.2)" fill="#ffb7b7"/>
      <path id="Path_38119" data-name="Path 38119" d="M623.079,597.319h-3.34l-1.589-12.881h4.929Z" transform="translate(-424.359 -401.215)" fill="#ffb7b7"/>
      <path id="Path_38120" data-name="Path 38120" d="M779.745,757.847H768.977v-.136a4.192,4.192,0,0,1,4.191-4.191h6.577Z" transform="translate(-580.174 -558.507)" fill="#2f2e41"/>
      <path id="Path_38121" data-name="Path 38121" d="M701.714,590.355l-3.222.878-4.922-12.01,4.755-1.3Z" transform="translate(-476.135 -396.746)" fill="#ffb7b7"/>
      <path id="Path_38122" data-name="Path 38122" d="M868.471,749.145l-10.389,2.833-.036-.131a4.191,4.191,0,0,1,2.941-5.146h0l6.345-1.73Z" transform="translate(-641.218 -552.638)" fill="#2f2e41"/>
      <path id="Path_38123" data-name="Path 38123" d="M610.775,446.817l-1.666,25.3,3.579,28.382,5.862-1.789.247-25.359,4.689-14.623,13.883,39.057,6.355-2.345-5.245-25.359-2.962-23.817Z" transform="translate(-418.153 -306.358)" fill="#2f2e41"/>
      <path id="Path_38124" data-name="Path 38124" d="M796.245,437.806l-9.871,1.456-3.556,3.517-1.1,12.636.686,11.193-2.859,19.738s7.189-3.991,12.76,1,13.366.883,13.527-2.44Z" transform="translate(-587.427 -341.77)" fill="#f80"/>
      <path id="Path_38125" data-name="Path 38125" d="M816.834,453.253v-.014l4.9-15.984.063,0c.349-.023,8.57-.507,10.409,3.552l.009.02-.559,16.61.769,26.014-15.205,3.293-.111.024Z" transform="translate(-613.028 -341.369)" fill="#2f2e41"/>
      <path id="Path_38126" data-name="Path 38126" d="M784.73,455.162l.9-13.55c-6.4.4-6.3,4.934-6.294,5.132l-.07,20.268-1.281,21.683,4.659-.349Z" transform="translate(-586.358 -344.383)" fill="#2f2e41"/>
      <path id="Path_38127" data-name="Path 38127" d="M753.485,518.67l5.68-13.182,3.964-7.28,2.07,13.132-7.186,10.779Z" transform="translate(-569.54 -383.236)" fill="#2f2e41"/>
      <path id="Path_38128" data-name="Path 38128" d="M828.212,533.382a2.851,2.851,0,0,1,3.864-2.046l4.582-4.633,3.494,2.1-6.563,6.451a2.867,2.867,0,0,1-5.378-1.871Z" transform="translate(-620.793 -402.798)" fill="#ffb7b7"/>
      <path id="Path_38129" data-name="Path 38129" d="M840.651,475.011l9.343-10.249-6.184-8.825.637-4.314,3.645-4.5.071.092c.389.5,9.519,12.364,9.781,16.855.263,4.507-12.86,15.908-13.419,16.391l-.078.067Z" transform="translate(-629.379 -348.164)" fill="#2f2e41"/>
      <circle id="Ellipse_110" data-name="Ellipse 110" cx="6.64" cy="6.64" r="6.64" transform="translate(196.482 81.645)" fill="#ffb7b7"/>
      <path id="Path_38130" data-name="Path 38130" d="M805.178,388.075l.322-.648-1.62-.8a4.748,4.748,0,0,0-5.02-2.09c-3.234.817-4.688,1.306-4.688,1.306l-1.616.813.811.807-1.455.489.972.483-1.131.65.609,3.332s1.011-2.527,2.955-1.561,5.5-.5,5.5-.5l3.089,5.978s.637-2.1,1.773-1.537C805.678,394.792,808.58,390.169,805.178,388.075Z" transform="translate(-595.81 -305.098)" fill="#2f2e41"/>
      <path id="Path_38131" data-name="Path 38131" d="M300.97,252.044,199.99,279.892,166.738,159.321l100.979-27.849Z" transform="translate(-166.738 -131.472)" fill="#fff"/>
      <path id="Path_38132" data-name="Path 38132" d="M300.97,252.044,199.99,279.892,166.738,159.321l100.979-27.849ZM201.28,277.62,298.7,250.753,266.427,133.745l-97.417,26.866Z" transform="translate(-166.738 -131.472)" fill="#f1f1f1"/>
      <path id="Path_38133" data-name="Path 38133" d="M344.158,242.33l-25.312,6.981a1.4,1.4,0,0,1-1.718-.975l-6.981-25.312a1.4,1.4,0,0,1,.975-1.718l25.312-6.981a1.4,1.4,0,0,1,1.718.975l6.981,25.312a1.4,1.4,0,0,1-.975,1.718ZM311.27,221.844a.839.839,0,0,0-.585,1.031l6.981,25.312a.839.839,0,0,0,1.031.585l25.312-6.981a.839.839,0,0,0,.585-1.031l-6.981-25.312a.839.839,0,0,0-1.031-.585Z" transform="translate(-265.153 -188.316)" fill="#e5e5e5"/>
      <path id="Path_38134" data-name="Path 38134" d="M324.077,259.2l-25.312,6.981a1.258,1.258,0,0,1-1.546-.878L290.238,240a1.258,1.258,0,0,1,.878-1.546l25.312-6.981a1.258,1.258,0,0,1,1.546.878l6.981,25.312a1.258,1.258,0,0,1-.878,1.546Z" transform="translate(-251.49 -200.088)" fill="#296df6"/>
      <rect id="Rectangle_7077" data-name="Rectangle 7077" width="73.274" height="2.832" transform="translate(31.273 82.052) rotate(-15.418)" fill="#f1f1f1"/>
      <rect id="Rectangle_7078" data-name="Rectangle 7078" width="73.274" height="2.832" transform="translate(33.236 89.169) rotate(-15.418)" fill="#f1f1f1"/>
      <rect id="Rectangle_7079" data-name="Rectangle 7079" width="73.274" height="2.832" transform="translate(35.199 96.286) rotate(-15.418)" fill="#f1f1f1"/>
      <rect id="Rectangle_7080" data-name="Rectangle 7080" width="73.274" height="2.832" transform="translate(38.654 108.812) rotate(-15.418)" fill="#f1f1f1"/>
      <rect id="Rectangle_7081" data-name="Rectangle 7081" width="73.274" height="2.832" transform="translate(40.616 115.929) rotate(-15.418)" fill="#f1f1f1"/>
      <rect id="Rectangle_7082" data-name="Rectangle 7082" width="73.274" height="2.832" transform="translate(42.579 123.046) rotate(-15.418)" fill="#f1f1f1"/>
      <path id="Path_38135" data-name="Path 38135" d="M468.636,329.733H363.887V204.661H468.636Z" transform="translate(-302.081 -181.716)" fill="#fff"/>
      <path id="Path_38136" data-name="Path 38136" d="M468.636,329.733H363.887V204.661H468.636Zm-102.9-1.848H466.788V206.508H365.735Z" transform="translate(-302.081 -181.716)" fill="#e5e5e5"/>
      <rect id="Rectangle_7083" data-name="Rectangle 7083" width="59.889" height="2.832" transform="translate(87.595 76.712)" fill="#296df6"/>
      <rect id="Rectangle_7084" data-name="Rectangle 7084" width="59.889" height="2.832" transform="translate(87.595 84.074)" fill="#296df6"/>
      <rect id="Rectangle_7085" data-name="Rectangle 7085" width="59.889" height="2.832" transform="translate(87.595 91.436)" fill="#296df6"/>
      <circle id="Ellipse_111" data-name="Ellipse 111" cx="1.848" cy="1.848" r="1.848" transform="translate(80.878 76.695)" fill="#296df6"/>
      <rect id="Rectangle_7086" data-name="Rectangle 7086" width="59.889" height="2.832" transform="translate(87.595 44.989)" fill="#e5e5e5"/>
      <rect id="Rectangle_7087" data-name="Rectangle 7087" width="59.889" height="2.832" transform="translate(87.595 52.351)" fill="#e5e5e5"/>
      <rect id="Rectangle_7088" data-name="Rectangle 7088" width="59.889" height="2.832" transform="translate(87.595 59.713)" fill="#e5e5e5"/>
      <circle id="Ellipse_112" data-name="Ellipse 112" cx="1.848" cy="1.848" r="1.848" transform="translate(80.878 44.664)" fill="#e5e5e5"/>
      <rect id="Rectangle_7089" data-name="Rectangle 7089" width="59.889" height="2.832" transform="translate(87.595 108.743)" fill="#e5e5e5"/>
      <rect id="Rectangle_7090" data-name="Rectangle 7090" width="59.889" height="2.832" transform="translate(87.595 116.105)" fill="#e5e5e5"/>
      <rect id="Rectangle_7091" data-name="Rectangle 7091" width="59.889" height="2.832" transform="translate(87.595 123.467)" fill="#e5e5e5"/>
      <circle id="Ellipse_113" data-name="Ellipse 113" cx="1.848" cy="1.848" r="1.848" transform="translate(80.878 108.418)" fill="#e5e5e5"/>
      <circle id="Ellipse_114" data-name="Ellipse 114" cx="21.41" cy="21.41" r="21.41" transform="translate(140.255 115.968)" fill="#296df6"/>
      <path id="Path_38137" data-name="Path 38137" d="M668.907,543.36v-4.1a5.932,5.932,0,1,0-11.864,0v4.1a3.084,3.084,0,0,0-2.946,3.08v9.681h17.755V546.44A3.084,3.084,0,0,0,668.907,543.36Zm-5.932-7.94a3.847,3.847,0,0,1,3.843,3.843v4.089h-7.686v-4.089A3.847,3.847,0,0,1,662.976,535.421Z" transform="translate(-501.31 -407.348)" fill="#fff"/>
      <path id="Path_38138" data-name="Path 38138" d="M680.516,577.073a1.6,1.6,0,1,0-2.494,1.319v3.469h1.8v-3.469A1.594,1.594,0,0,0,680.516,577.073Z" transform="translate(-517.255 -436.281)" fill="#6c63ff"/>
    </g>
  </g>
</svg>
