<svg xmlns="http://www.w3.org/2000/svg" width="60" height="52" viewBox="0 0 60 52">
  <g id="question" transform="translate(-8.216)">
    <g id="Group_18861" data-name="Group 18861" transform="translate(8.216)">
      <path id="Path_38501" data-name="Path 38501" d="M350.79,245.509c2.186-.656,4.509-1.341,6.242-2.9a5.557,5.557,0,0,0,1.953-5.615,6.911,6.911,0,0,0-4.539-4.17,18.621,18.621,0,0,0-3.473-.781c-1.277-.186-2.559-.338-3.841-.485q-7.786-.891-15.63-1.088c-2.58-.065-5.16-.063-7.741-.026a15.814,15.814,0,0,1-6.87-.947,6.334,6.334,0,0,1-3.635-3.969,6.4,6.4,0,0,1,1.867-5.766,15.114,15.114,0,0,1,2.517-2.1c.976-.674,1.985-1.3,3.017-1.884a42.006,42.006,0,0,1,6.35-2.927c1.082-.394,2.181-.733,3.289-1.046a28.15,28.15,0,0,0,2.778-.89c1.748-.7,3.411-1.877,3.855-3.812a5.956,5.956,0,0,0-1.534-5.186,8.243,8.243,0,0,0-5.7-2.379,18.341,18.341,0,0,0-6.819,1.2c-2.344.792-4.637,1.7-7.03,2.344a47.3,47.3,0,0,1-7.235,1.345,19.627,19.627,0,0,1-3.631.174,4.39,4.39,0,0,1-2.754-1.094,2.724,2.724,0,0,1-.886-2.347c.024-.162.269-.093.246.068a2.687,2.687,0,0,0,1.485,2.593,6.34,6.34,0,0,0,3.492.524,45.674,45.674,0,0,0,7.517-1.087,60.408,60.408,0,0,0,7.109-2.194,25.964,25.964,0,0,1,6.866-1.764,10.252,10.252,0,0,1,6.019,1.225,6.659,6.659,0,0,1,3.105,4.333,5.022,5.022,0,0,1-1.478,4.783,12.112,12.112,0,0,1-5.058,2.327,46.347,46.347,0,0,0-6.573,2.353,41.261,41.261,0,0,0-6.183,3.476c-1.889,1.291-3.754,2.916-4.351,5.219a4.807,4.807,0,0,0,.239,3.224,5.892,5.892,0,0,0,1.891,2.244,11.087,11.087,0,0,0,6.574,1.71c2.572.032,5.143-.055,7.716-.013q7.864.129,15.7.957,1.962.208,3.92.459a35.439,35.439,0,0,1,3.506.569A8.855,8.855,0,0,1,358.4,235.3a4.953,4.953,0,0,1,.422,5.415,8.9,8.9,0,0,1-4.762,3.958,33.79,33.79,0,0,1-3.206,1.082A.128.128,0,0,1,350.79,245.509Z" transform="translate(-299.468 -195.282)" fill="#ddd"/>
      <ellipse id="Ellipse_163" data-name="Ellipse 163" cx="2.038" cy="2.038" rx="2.038" ry="2.038" transform="translate(0 3.864)" fill="#ddd"/>
      <ellipse id="Ellipse_164" data-name="Ellipse 164" cx="2.038" cy="2.038" rx="2.038" ry="2.038" transform="translate(14.14 7.728)" fill="#ddd"/>
      <ellipse id="Ellipse_165" data-name="Ellipse 165" cx="2.038" cy="2.038" rx="2.038" ry="2.038" transform="translate(26.115)" fill="#ddd"/>
      <ellipse id="Ellipse_167" data-name="Ellipse 167" cx="2.038" cy="2.038" rx="2.038" ry="2.038" transform="translate(23.482 18.684)" fill="#ddd"/>
      <ellipse id="Ellipse_169" data-name="Ellipse 169" cx="2.038" cy="2.038" rx="2.038" ry="2.038" transform="translate(23.175 33.226)" fill="#ddd"/>
      <ellipse id="Ellipse_171" data-name="Ellipse 171" cx="2.038" cy="2.038" rx="2.038" ry="2.038" transform="translate(55.924 34.395)" fill="#ddd"/>
      <circle id="Ellipse_176" data-name="Ellipse 176" cx="2.074" cy="2.074" r="2.074" transform="translate(15.128 21.789)" fill="#ddd"/>
      <circle id="Ellipse_177" data-name="Ellipse 177" cx="2.074" cy="2.074" r="2.074" transform="translate(36.313 8.813)" fill="#ddd"/>
    </g>
    <g id="Group_18862" data-name="Group 18862" transform="translate(46.606 20.398)">
      <circle id="Ellipse_170" data-name="Ellipse 170" cx="1.935" cy="1.935" r="1.935" transform="translate(2.501 17.214)" fill="#f2f2f2"/>
      <circle id="Ellipse_172" data-name="Ellipse 172" cx="2.419" cy="2.419" r="2.419" transform="translate(5.651 0.844)" fill="#2f2e41"/>
      <path id="Path_38532" data-name="Path 38532" d="M706.039,413.142a.811.811,0,0,0,.854.9l1.107,2.66.837-1.241-1.18-2.336a.815.815,0,0,0-1.619.014Z" transform="translate(-706.034 -407.778)" fill="#a0616a"/>
      <path id="Path_38504" data-name="Path 38504" d="M556.379,538.654h-.989l-.47-3.813h1.459Z" transform="translate(-552.779 -508.044)" fill="#a0616a"/>
      <path id="Path_38505" data-name="Path 38505" d="M538.309,578.626h1.907v1.2h-3.107A1.2,1.2,0,0,1,538.309,578.626Z" transform="translate(-536.404 -548.298)" fill="#2f2e41"/>
      <path id="Path_38506" data-name="Path 38506" d="M651.379,538.654h-.989l-.47-3.813h1.459Z" transform="translate(-640.119 -508.044)" fill="#a0616a"/>
      <path id="Path_38507" data-name="Path 38507" d="M633.309,578.626h1.907v1.2h-3.107A1.2,1.2,0,0,1,633.309,578.626Z" transform="translate(-623.744 -548.298)" fill="#2f2e41"/>
      <circle id="Ellipse_173" data-name="Ellipse 173" cx="1.981" cy="1.981" r="1.981" transform="translate(5.722 1.735)" fill="#a0616a"/>
      <path id="Path_38508" data-name="Path 38508" d="M735.457,440.337l.886-2.036a2.531,2.531,0,0,0-.56-2.871,2.567,2.567,0,0,0-.248-.215,2.5,2.5,0,0,0-1.531-.53,2.6,2.6,0,0,0-1.081.24l-.086.04c-.056.027-.11.056-.164.085a2.554,2.554,0,0,0-1.266,1.926l-.391,3.277c-.1.257-3.608,9.547-2.38,16.639a.36.36,0,0,0,.308.3l1.244.169a.363.363,0,0,0,.4-.285l2.088-9.951a.282.282,0,0,1,.548-.019l2.95,10.465a.361.361,0,0,0,.348.264.416.416,0,0,0,.07-.006l1.52-.293a.361.361,0,0,0,.293-.388C738.185,454.655,737,442.178,735.457,440.337Z" transform="translate(-726.575 -428.251)" fill="#2f2e41"/>
      <path id="Path_38510" data-name="Path 38510" d="M789.731,500.795a.811.811,0,0,0,.68-1.041l2.329-1.7-1.4-.525-2,1.692a.815.815,0,0,0,.39,1.571Z" transform="translate(-782.139 -486.03)" fill="#a0616a"/>
      <path id="Path_38511" data-name="Path 38511" d="M720.464,442.359a1.375,1.375,0,0,1-.266-.026,1.315,1.315,0,0,1-.963-.775l-1.551-1.891a.363.363,0,0,1,.09-.539l1.1-.683a.363.363,0,0,1,.5.12l1.093,1.8,2.094-1.547a.784.784,0,0,1,.912,1.255l-2.089,1.906A1.311,1.311,0,0,1,720.464,442.359Z" transform="translate(-716.668 -431.658)" fill="#2f2e41"/>
      <path id="Path_38512" data-name="Path 38512" d="M807.93,451.945h-.008a.364.364,0,0,1-.267-.127l-.981-1.145a.363.363,0,0,1,.074-.538l1.837-1.225-1.664-2a.784.784,0,0,1,1.2-.982l2.023,1.977a1.332,1.332,0,0,1-.3,2.172l-1.653,1.754a.364.364,0,0,1-.264.114Z" transform="translate(-798.478 -438.4)" fill="#2f2e41"/>
      <path id="Path_38513" data-name="Path 38513" d="M782.816,435.281a.373.373,0,0,1-.047,0,.36.36,0,0,1-.3-.247l-.737-2.26a.249.249,0,0,1,.129-.3l.024-.011.065-.03a2.627,2.627,0,0,1,1.1-.244,2.526,2.526,0,0,1,1.384.416.252.252,0,0,1,.073.346l-1.383,2.167A.359.359,0,0,1,782.816,435.281Z" transform="translate(-775.617 -425.953)" fill="#e6e6e6"/>
      <circle id="Ellipse_174" data-name="Ellipse 174" cx="0.792" cy="0.792" r="0.792" transform="translate(9.185 0.6)" fill="#2f2e41"/>
      <path id="Path_38514" data-name="Path 38514" d="M772.208,361.365h0a2.1,2.1,0,0,0-2.1,2.1v.887H771.2l.522-.887.157.887h3.311l-.887-.887A2.1,2.1,0,0,0,772.208,361.365Z" transform="translate(-764.944 -360.843)" fill="#2f2e41"/>
      <path id="Path_38515" data-name="Path 38515" d="M834.809,355.745a1.222,1.222,0,0,1,1.329-.838,1.693,1.693,0,0,1,1.141.943,9.28,9.28,0,0,1,.507,1.446,2.618,2.618,0,0,0,.79,1.289,1.175,1.175,0,0,0,1.418.076,1.622,1.622,0,0,1-3.022.579,3.51,3.51,0,0,1-.325-1.23,2.687,2.687,0,0,0-.392-1.2,1,1,0,0,0-1.113-.414Z" transform="translate(-824.425 -354.895)" fill="#2f2e41"/>
    </g>
    <g id="Group_18860" data-name="Group 18860" transform="translate(15.483 21.417)">
      <path id="Path_38519" data-name="Path 38519" d="M126.538,539.109h.989L128,535.3h-1.459Z" transform="translate(-121.818 -509.481)" fill="#ffb8b8"/>
      <path id="Path_38520" data-name="Path 38520" d="M0,0H3.107V1.2H1.2A1.2,1.2,0,0,1,0,0H0Z" transform="translate(7.615 30.546) rotate(179.997)" fill="#2f2e41"/>
      <path id="Path_38521" data-name="Path 38521" d="M82.538,539.109h.989L84,535.3H82.538Z" transform="translate(-81.366 -509.481)" fill="#ffb8b8"/>
      <path id="Path_38522" data-name="Path 38522" d="M0,0H3.107V1.2H1.2A1.2,1.2,0,0,1,0,0H0Z" transform="translate(4.067 30.546) rotate(179.997)" fill="#2f2e41"/>
      <path id="Path_38523" data-name="Path 38523" d="M255.836,569.577l-.966-.051a.377.377,0,0,1-.356-.4l1.154-12.778,5.315,1.434.512-.14-1.6,11.312a.379.379,0,0,1-.351.318l-1.041.048a.377.377,0,0,1-.4-.387l.189-6.789a.126.126,0,0,0-.249-.029l-1.819,7.162a.375.375,0,0,1-.368.3Z" transform="translate(-253.8 -541.122)" fill="#2f2e41"/>
      <circle id="Ellipse_175" data-name="Ellipse 175" cx="1.981" cy="1.981" r="1.981" transform="translate(2.917 0.809)" fill="#ffb8b8"/>
      <path id="Path_38524" data-name="Path 38524" d="M265.472,438.511l.218,4.7.079,1.709a.374.374,0,0,0,.248.337l5.107,1.85a.361.361,0,0,0,.129.023.374.374,0,0,0,.376-.386l-.209-8.448a2.978,2.978,0,0,0-2.479-2.877l-.15-.022a2.923,2.923,0,0,0-2.352.761A3,3,0,0,0,265.472,438.511Z" transform="translate(-263.872 -429.903)" fill="#ccc"/>
      <path id="Path_38525" data-name="Path 38525" d="M341.173,527.935a.812.812,0,0,1-.433-1.228l-1.732-2.3,1.495-.093,1.416,2.2a.815.815,0,0,1-.745,1.422Z" transform="translate(-331.481 -511.669)" fill="#ffb8b8"/>
      <path id="Path_38526" data-name="Path 38526" d="M317.772,459.761a.375.375,0,0,1-.2-.2l-2.609-6.217a1.005,1.005,0,0,1,1.853-.778l2.609,6.217a.377.377,0,0,1-.2.493l-1.158.486a.374.374,0,0,1-.288,0Z" transform="translate(-309.298 -445.14)" fill="#ccc"/>
      <path id="Path_38527" data-name="Path 38527" d="M298,489.016l2.506-4.8a.393.393,0,0,1,.53-.166l3.638,1.9a.393.393,0,0,1,.166.53l-2.506,4.8a.393.393,0,0,1-.53.166l-3.638-1.9A.393.393,0,0,1,298,489.016Z" transform="translate(-293.739 -474.614)" fill="#3f3d56"/>
      <path id="Path_38528" data-name="Path 38528" d="M277.661,496.681a.811.811,0,0,0-1.251-.36l-2.4-1.593,0,1.5,2.281,1.283a.815.815,0,0,0,1.376-.828Z" transform="translate(-271.719 -484.472)" fill="#ffb8b8"/>
      <path id="Path_38529" data-name="Path 38529" d="M248.57,450.42l-1.962-1.554a1.384,1.384,0,0,1-.631-2.188l1.782-2.335a.814.814,0,0,1,1.381.829l-1.41,2.306,2.072.983a.377.377,0,0,1,.157.542l-.836,1.324a.377.377,0,0,1-.255.17h-.006A.379.379,0,0,1,248.57,450.42Z" transform="translate(-245.664 -437.874)" fill="#ccc"/>
      <path id="Path_38530" data-name="Path 38530" d="M276.744,371.648a.172.172,0,0,1,.15-.227.4.4,0,0,1,.28.138,1.116,1.116,0,0,0,.248.213.213.213,0,0,0,.28-.051.39.39,0,0,0-.015-.3,2.976,2.976,0,0,1-.131-.788,1.387,1.387,0,0,1,.2-.843,1.115,1.115,0,0,1,.955-.406,6.419,6.419,0,0,1,1.073.19.36.36,0,0,0,.351-.059.452.452,0,0,0,.018-.4,2.8,2.8,0,0,0-.425-1.012,1.524,1.524,0,0,0-.973-.548,2.333,2.333,0,0,0-1.086.123,2.911,2.911,0,0,0-1.426.993,2.357,2.357,0,0,0-.45,1.742,2.15,2.15,0,0,0,.8,1.359Z" transform="translate(-273.342 -367.532)" fill="#2f2e41"/>
    </g>
    <g id="Group_18863" data-name="Group 18863" transform="translate(25.519 5.483)">
      <path id="Path_38533" data-name="Path 38533" d="M3.709,0A3.9,3.9,0,0,1,7.419,4.065,3.9,3.9,0,0,1,3.709,8.129,3.9,3.9,0,0,1,0,4.065,3.9,3.9,0,0,1,3.709,0Z" transform="translate(7.353 38.349)" fill="#296df6"/>
      <path id="Path_38502" data-name="Path 38502" d="M482.964,220.369c-5.8.045-10.544,5.207-10.626,11.559,0,.059,0,.471,0,1.01a2.861,2.861,0,0,0,2.721,2.982h0a2.862,2.862,0,0,0,2.722-2.986c0-.368,0-.621,0-.637a5.547,5.547,0,0,1,4.187-5.555,5.093,5.093,0,0,1,5.767,3.457,5.953,5.953,0,0,1-2.009,6.859h0s-3.873,2.732-5.054,6.48h0a9.048,9.048,0,0,0-.312,2.365c0,.329.018,3.209.052,5.547a2.943,2.943,0,0,0,2.805,3.024h0a2.688,2.688,0,0,0,1.99-.907,3.233,3.233,0,0,0,.816-2.186c-.012-2.141-.018-4.634-.018-4.815,0-2.3,2.026-4.594,3.69-6.09a12.468,12.468,0,0,0,3.849-6.715,8.363,8.363,0,0,0,.2-1.664,12.32,12.32,0,0,0-3.163-8.324A10.243,10.243,0,0,0,482.964,220.369Z" transform="translate(-472.299 -220.369)" fill="#296df6"/>
      <path id="Path_38516" data-name="Path 38516" d="M475.392,284.6h0a2.861,2.861,0,0,1-2.721-2.981c0-.54,0-.952,0-1.011a12.51,12.51,0,0,1,1.238-5.294,12.4,12.4,0,0,0-2.045,6.707c0,.059,0,.471,0,1.01a2.861,2.861,0,0,0,2.721,2.982h0a2.773,2.773,0,0,0,2.62-2.173A2.581,2.581,0,0,1,475.392,284.6Z" transform="translate(-471.865 -270.463)" fill="#3f3d56"/>
      <path id="Path_38531" data-name="Path 38531" d="M565.874,669.977a3.991,3.991,0,0,1-2.126-2.782,4.361,4.361,0,0,1,.75-3.535,4.261,4.261,0,0,0-1.455,4.051,3.931,3.931,0,0,0,2.723,3.169,3.524,3.524,0,0,0,3.777-1.347A3.439,3.439,0,0,1,565.874,669.977Z" transform="translate(-555.629 -624.491)" fill="#3f3d56"/>
      <path id="Path_38518" data-name="Path 38518" d="M575.028,465.995h0a2.944,2.944,0,0,1-2.805-3.025c-.034-2.337-.052-5.217-.052-5.546a9.049,9.049,0,0,1,.312-2.365h0a8.835,8.835,0,0,1,.443-1.122,10.053,10.053,0,0,0-1.249,2.536h0a9.046,9.046,0,0,0-.312,2.365c0,.329.018,3.209.052,5.547a2.943,2.943,0,0,0,2.805,3.024h0a2.854,2.854,0,0,0,2.693-2.213A2.663,2.663,0,0,1,575.028,465.995Z" transform="translate(-563.341 -433.297)" fill="#3f3d56"/>
      <path id="Path_38517" data-name="Path 38517" d="M558.823,276.825a5.1,5.1,0,0,1,4.135,2.66,6.13,6.13,0,0,1,.353,5.24,6.089,6.089,0,0,0,.739-6.077,4.987,4.987,0,0,0-9.4.158A4.957,4.957,0,0,1,558.823,276.825Z" transform="translate(-547.973 -270.542)" fill="#3f3d56"/>
    </g>
  </g>
</svg>
