<svg id="swipe_up" data-name="swipe up" xmlns="http://www.w3.org/2000/svg" xmlns:xlink="http://www.w3.org/1999/xlink" width="120" height="120" viewBox="0 0 120 120">
  <defs>
    <clipPath id="clip-path">
      <rect id="Rectangle_6749" data-name="Rectangle 6749" width="69" height="69" fill="#333"/>
    </clipPath>
  </defs>
  <g id="Group_16432" data-name="Group 16432">
    <rect id="Rectangle_6751" data-name="Rectangle 6751" width="120" height="120" fill="#333" opacity="0"/>
    <g id="Mask_Group_14" data-name="Mask Group 14" transform="translate(45 25.5)" clip-path="url(#clip-path)">
      <rect id="Rectangle_6748" data-name="Rectangle 6748" width="69" height="69" fill="#333" opacity="0"/>
      <path id="hand" d="M34.92,9.037C34.661,3.761,31.44,0,26.208,0c-5.46,0-8.729,4.095-8.729,9.734V25.907L16.473,25.6c-4.621-1.35-8.242-1.426-10.965-.065A9.709,9.709,0,0,0,0,35a2.91,2.91,0,0,0,1.613,2.541l9.167,4.562.378.2.364.227,7.308,4.873.75.538a13.447,13.447,0,0,1,3.982,4.979l.113.242.308.6a8.729,8.729,0,0,0,8.847,4.359l9.382-1.346.641-.116a8.73,8.73,0,0,0,6.552-6.272l4.067-15.224.165-.7a12.612,12.612,0,0,0-9.092-14.743q-.5-.133-1-.224l-8.61-1.564V9.734Zm-11.607.145c.131-2.295,1.11-3.362,2.895-3.362,1.922,0,2.91,1.237,2.91,3.913V20.373l.029.415a2.91,2.91,0,0,0,2.36,2.448l11.27,2.053.268.066a6.791,6.791,0,0,1,4.807,8.314L43.787,48.892l-.142.408a2.909,2.909,0,0,1-2.256,1.721l-9.382,1.347-.421.03a2.91,2.91,0,0,1-2.63-1.683l-.113-.243-.473-.948a19.262,19.262,0,0,0-6.308-6.957l-7.308-4.873-.677-.421-.7-.377L5.984,33.218l.149-.464A3.768,3.768,0,0,1,8.111,30.74c1.7-.849,5.5-.3,11.168,2.034a2.91,2.91,0,0,0,4.019-2.69V9.734Z" transform="translate(-4.063 43.45) rotate(-60)" fill="#333"/>
    </g>
    <path id="Path_37866" data-name="Path 37866" d="M24.969,49.637A2.7,2.7,0,0,0,27.64,47.31l.024-.365V-18.8l7.977,7.966a2.7,2.7,0,0,0,3.509.261l.3-.261a2.692,2.692,0,0,0,.261-3.506l-.261-.3L26.875-27.211a2.7,2.7,0,0,0-3.509-.261l-.3.261L10.485-14.644a2.691,2.691,0,0,0,0,3.809,2.7,2.7,0,0,0,3.509.261l.3-.261L22.273-18.8V46.944A2.694,2.694,0,0,0,24.969,49.637Zm0,14.363a17.955,17.955,0,0,0,6.292-34.776v5.937a12.578,12.578,0,1,1-12.58,0V29.223A17.955,17.955,0,0,0,24.969,64Z" transform="translate(-7 39.5)" fill="#333"/>
  </g>
</svg>
