<svg id="swipe_down" data-name="swipe down" xmlns="http://www.w3.org/2000/svg" xmlns:xlink="http://www.w3.org/1999/xlink" width="120" height="120" viewBox="0 0 120 120">
  <defs>
    <clipPath id="clip-path">
      <rect id="Rectangle_6749" data-name="Rectangle 6749" width="69" height="69" fill="#333"/>
    </clipPath>
  </defs>
  <g id="Group_16431" data-name="Group 16431">
    <rect id="Rectangle_6751" data-name="Rectangle 6751" width="120" height="120" fill="#333" opacity="0"/>
    <g id="Mask_Group_14" data-name="Mask Group 14" transform="translate(45 25.5)" clip-path="url(#clip-path)">
      <rect id="Rectangle_6748" data-name="Rectangle 6748" width="69" height="69" fill="#333" opacity="0"/>
      <path id="hand" d="M34.92,9.037C34.661,3.761,31.44,0,26.208,0c-5.46,0-8.729,4.095-8.729,9.734V25.907L16.473,25.6c-4.621-1.35-8.242-1.426-10.965-.065A9.709,9.709,0,0,0,0,35a2.91,2.91,0,0,0,1.613,2.541l9.167,4.561.378.2.364.227,7.308,4.874.75.538a13.447,13.447,0,0,1,3.982,4.979l.113.243.308.6a8.729,8.729,0,0,0,8.847,4.359l9.382-1.347.641-.116a8.73,8.73,0,0,0,6.552-6.272l4.067-15.224.165-.7a12.612,12.612,0,0,0-9.092-14.743q-.5-.133-1-.224l-8.61-1.564V9.734Zm-11.607.145c.131-2.295,1.11-3.362,2.895-3.362,1.922,0,2.91,1.237,2.91,3.913V20.373l.029.415a2.911,2.911,0,0,0,2.36,2.448l11.27,2.053.268.066a6.791,6.791,0,0,1,4.807,8.314L43.787,48.892l-.142.408a2.909,2.909,0,0,1-2.256,1.721l-9.382,1.347-.421.03a2.91,2.91,0,0,1-2.63-1.683l-.113-.243-.473-.948a19.263,19.263,0,0,0-6.308-6.957l-7.308-4.873-.677-.421-.7-.377L5.984,33.218l.149-.464A3.768,3.768,0,0,1,8.111,30.74c1.7-.849,5.5-.3,11.168,2.034a2.91,2.91,0,0,0,4.019-2.69V9.734Z" transform="translate(22.891 72.559) rotate(-120)" fill="#333"/>
    </g>
    <path id="Path_37866" data-name="Path 37866" d="M24.969-13.637A2.7,2.7,0,0,1,27.64-11.31l.024.365V54.8l7.977-7.966a2.7,2.7,0,0,1,3.509-.261l.3.261a2.692,2.692,0,0,1,.261,3.506l-.261.3L26.875,63.211a2.7,2.7,0,0,1-3.509.261l-.3-.261L10.485,50.644a2.694,2.694,0,0,1,3.509-4.069l.3.261L22.273,54.8V-10.944A2.694,2.694,0,0,1,24.969-13.637Zm0-14.363A17.961,17.961,0,0,1,42.938-10.046,17.961,17.961,0,0,1,31.261,6.776V.838a12.561,12.561,0,0,0,6.287-10.885A12.573,12.573,0,0,0,24.969-22.614,12.573,12.573,0,0,0,12.391-10.046,12.562,12.562,0,0,0,18.68.841V6.777A17.961,17.961,0,0,1,7-10.046,17.961,17.961,0,0,1,24.969-28Z" transform="translate(-7 39.5)" fill="#333"/>
  </g>
</svg>
