<?xml version="1.0" encoding="UTF-8"?>
<svg version="1.1" viewBox="0 0 2048 1145" width="1280" height="1280" xmlns="http://www.w3.org/2000/svg">
<path transform="translate(0)" d="m0 0h2048v1145h-2048z" fill="#FCFCFD"/>
<path transform="translate(996,149)" d="m0 0h44l27 2 33 5 30 7 26 8 27 10 28 13 24 13 4 3 49 2 16 1 9 4 6 4 5 5 5 7 2 8 1 17v29l4 2 9 10 9 11 15 20 13 20 9 15 14 27 8 17 10 26 7 22 7 27v3l5-2h6l-2 4h-2l-1 6h-4l2 7v8l2 10 3 31v54l-4 35-5 27-7 31-3 8-8 23-10 24-1 3-1 14-1 63-2 12-5 16-5 12-6 12-8 10-4 4-5 6-4 1v2l-3 3-5 3h-2v2l-16 8-13 5-15 3-35 2-37 1h-426l-62-1-33-2-20-4-16-8-5-2v-2l-4-1-6-4-5-5-5-4-5-6v-2l-3-1-1-4h-2v-3h-2v-3h-2l-8-16-5-12-4-21-1-7-1-80-9-21-10-30-8-32-5-29-3-32v-47l2-28 4-28 6-27 5-18 1-3-6-3v-3l8 1 3-12 11-28 12-25 10-19 11-18 13-19 13-17 11-13 11-12 3-5 2-38 3-9 6-9 8-7 8-3 7-1 55-2 13-8 23-12 20-9 24-9 29-9 36-8 28-4z" fill="#FCFCFD"/>
<path transform="translate(995,20)" d="m0 0h46l42 3 40 6 36 8 34 10 28 10 28 12 27 13 23 13 23 14 19 13 12 9 3 3 13-22 9-12 3-2 7 1 16 10 10 8 2 3-1 9-4 8-9 11-15 16h3l4 1 10 10-5 4-16 10-10 8-7 9-1 7h2l4 6 6 3h10l28-6 22-6 30-9 11-5 3-1-1 9-4 6-10 5-15 4h-4l4 6 12 15 13 18 10 15 13 21 11 19 2 5 3-1v-3h3l-1 5-3 6 6 8 11 24 13 34 10 30 3 13 6-2h4l-2 4-6 3 4 18 5 26 3 23 2 26 1 20v61l-3 38-5 33-9 39-9 29-6 17-11 28-19 39-9 16-4 4 6 7v3l-4-1-4-3-7 12-11 16-12 17-10 13-13 16-10 11-7 8-12 13-14 14-8 7-12 11-22 18-18 13-10 7-17 11-13 8-27 15-31 15-27 11-22 8-34 10-36 8-31 5-31 3-16 1h-58l-36-3-34-5-33-7-30-8-38-13-30-13-25-12-5-3v-3l-8-1-4-2-3-3-3-1-1 3h-7l-4-1 1-4 8 1v-2l-6-2-12-7-22-15-19-14-16-13-10-9-8-7-12-11-22-22-7-8-13-15-13-16-14-19-12-18-12-19-13-24-8-15-8-16-4-10-1-7-3 6h-2v-10l2-3-4-4-12-36-8-28-6-26-5-29v-8l-2-3v-3h-2l2-4-2-8-1-18v-62l3-42 5-35 6-29 7-27 4-12 2-4-8-3v-3l11 1 1-9 10-27 9-20 9-19 12-22 12-20 18-27 14-19 13-16 9-10 9-11 33-33 8-7 14-12 15-12 19-14 18-12 21-13 18-10 27-14 28-12 27-10 25-8 30-8 36-7 28-4 22-2zm1 129-26 2-33 5-31 7-29 9-24 9-20 9-20 10-16 10-55 2-10 2-8 4-7 7-6 11-1 5-2 38-3 5-8 8-9 11-10 12-13 18-13 20-13 23-13 26-11 28-5 15v2l-8-1v3l6 3-7 25-6 29-4 32-1 18v47l3 32 5 29 8 32 10 30 9 21 1 80 4 23 3 10 8 18 3 5h2v3h2v3h2l2 5h2l2 5 8 7 9 8 3 2h3v2l16 8 13 4 12 2 33 2 62 1h436l48-2 20-2 15-4 17-8 6-3v-2l4-2 3-1 3-3v-2l5-2 4-5 5-5 8-11 8-16 5-14 4-20 1-63 1-14 8-20 8-21 5-16 2-7 6-25 5-27 4-35v-54l-3-31-2-12v-6l-2-7h4l1-6 4-2v-2h-6l-5 2-2-11-8-29-9-26-11-25-13-26-10-17-18-27-13-17-12-14-7-8h-2v-29l-1-17-3-10-5-7-8-6-8-4-3-1-16-1-49-2-10-6-26-14-25-11-28-10-27-8-34-7-32-4-17-1z" fill="#E1F4FD"/>
<path transform="translate(704,430)" d="m0 0h2l1 111 1 19 1 8 24 10 42 15 54 19 32 11h4l10-20-1-5-8-14-3-5v-2h-2l-5-10-5-7-5-9-7-12v-5l6-7 9-5h7l5 4 17 29 7 10 3-3 4-10 6-13 6-12 4-4h9l10 5 4 4v9l-16 35-11 25-7 15-8 18 3 2 95 34 16 4h17l12-3 51-18 22-8h2v-4l-5 2-16 6-4 1h-8l-1-1-1-7v-14l1-6-6-2 3 6 1 20 1 4 6 2-3 2h-9v2l-16 1 2-8-7-3-8-8 1-11-3-6-1-9-3-5-7 1-7 4-13 2-3 3-3 1-4-2-1 2-3 1h-17l-13-4-9-6-7-7-7-11-3-13v-11l2-4h2l1-9 6-11 7-8 7-6 10-5 7-2h17l11 4 11 7 9 10 5 10 3-8 7-8 4-9 6-4h14l5 3 3 4 1 42 4 6 4 3h11l5-3 3-7 1-40 4-6 4-2h15l5 3 4 8 2-11 5-7 2-16h2l1-6 7-6h18l5 5v69l-8 7-1 2h-3v2l-4 3 1 3 10 2 5 5 1 2v17l-2 4h8l-1 4-6 5 7-1 49-17 53-19 29-11 13-7 2-2 1-108 4 2 7 10v2h2l7 11 5 14 3 6 7 7 2 1v2l5 2 10 9 1 3v8l-4 10-6 7-8 7-3 1v5l-5 4-6 3h-3v2l-8 4 10-3 16-7 17-12 8-9 5-1 2 3 2 10 1 16 1 52 1 128 1 3-1 79-2 12-5 16-5 12-6 12-8 10-4 4-5 6-4 1v2l-3 3-5 3h-2v2l-16 8-13 5-15 3-35 2-37 1h-426l-62-1-33-2-20-4-16-8-5-2v-2l-4-1-6-4-5-5-5-4-5-6v-2l-3-1-1-4h-2v-3h-2v-3h-2l-8-16-5-12-4-21-1-7v-232l1-47 2-27 3-19 5-17 9-13 14-12 18-13z" fill="#65BCFC"/>
<path transform="translate(1332,287)" d="m0 0 4 2 9 10 9 11 15 20 13 20 9 15 14 27 8 17 10 26 7 22 7 27v3l5-2h6l-2 4h-2l-1 6h-4l2 7v8l2 10 3 31v54l-4 35-5 27-7 31-3 8-8 23-10 24-2 3-2-5-1-139-1-41-1-16-3-12-5 1-7 8-12 9-14 8-16 6-3-1 7-4h2v-2l12-6 2-6 8-7 6-5 5-9 1-4v-8l-3-5-7-6-5-3v-2l-4-2-7-7-6-15-3-8-4-5v-2h-2l-9-13-2-1z" fill="#9DD8FE"/>
<path transform="translate(1156,489)" d="m0 0h18l5 5v69l-8 7-1 2h-3v2l-4 3 1 3 10 2 5 5 1 2v17l-2 4h8l-1 4-6 5 1 2-59 21-9 3v-4l-5 2-16 6-4 1h-8l-1-1-1-7v-14l1-6-6-2 3 6 1 20 1 4 6 2-3 2h-9v2l-16 1 2-8-7-3-8-8 1-11-3-6-1-9-3-5-7 1-7 4-13 2-3 3-3 1-4-2-1 2-3 1h-17l-13-4-9-6-7-7-7-11-3-13v-11l2-4h2l1-9 6-11 7-8 7-6 10-5 7-2h17l11 4 11 7 9 10 5 10 3-8 7-8 4-9 6-4h14l5 3 3 4 1 42 4 6 4 3h11l5-3 3-7 1-40 4-6 4-2h15l5 3 4 8 2-11 5-7 2-16h2l1-6z" fill="#F0FAFE"/>
<path transform="translate(650,879)" d="m0 0 6 1 14 7 22 7 14 3 14 2 30 2 220 2 36 1h29l13-1h44l115-1h68l57-3 15-2 9-2h8l8 1 6-1-5 8-4 3h-2v2l-3 3-5 3h-2v2l-16 8-13 5-15 3-35 2-37 1h-426l-62-1-33-2-20-4-16-8-5-2v-2l-4-1-6-4-5-5-5-4-5-6v-2l-3-1-1-4h-2v-3h-2l-1-4z" fill="#0775DE"/>
<path transform="translate(764,934)" d="m0 0h486l1 2-20 12-22 12-24 11-26 10-29 9-26 6-31 5-32 3h-47l-33-3-30-5-32-8-36-12-32-14-25-13-18-11-3-2-21-1z" fill="#9FD9FE"/>
<path transform="translate(707,282)" d="m0 0h1l-1 259h-1v-111l-16 10-16 11-16 12-12 10-8 12-5 17-3 19-2 27-1 47-1 152-3-4-11-28-8-26-7-30-5-32-2-24v-47l2-28 4-28 6-27 5-18 1-3-6-3v-3l8 1 3-12 11-28 12-25 10-19 11-18 13-19 13-17 11-13 11-12z" fill="#9FD9FE"/>
<path transform="translate(996,149)" d="m0 0h44l27 2 33 5 30 7 26 8 27 10 28 13 24 13 4 4h-442l4-4 22-12 25-12 26-10 25-8 28-7 28-5 25-3z" fill="#9FD9FE"/>
<path transform="translate(664,512)" d="m0 0 5 2 8 6 4 5v2h2l5 21 7 9 10 8 2 1v-6h1l1 8 24 10 42 15 54 19 32 11h4l10-20-1-5-8-14-3-5v-2h-2l-5-10-5-7-5-9-7-12v-5l6-7 9-5h7l5 4 17 29 7 10 3-3 4-10 6-13 6-12 4-4h9l10 5 4 4v9l-16 35-11 25-7 15-8 18 3 2 95 34 16 4 15 1v1h-9l3 9-1 5-5 3-13-2-24-9-18-7-54-18-15-4-17-6-16-8-21-8-57-19-31-12-15-7-16-8-30-19-13-9-6-6v-2h-2l-4-7v-8l1-10 2-6z" fill="#85D3FE"/>
<path transform="translate(650,879)" d="m0 0 6 1 14 7 22 7 14 3 14 2 30 2 220 2 36 1h29l13-1h44l115-1h68l57-3 15-2 9-2h8l8 1 6-1-5 8-4 3h-2l-1 2-1-2-7 2-1 2-21 3-16 2-32 2-6 1-74 1h-310l-128-1-45-2-14-2-15-4-11-5-10-4-1-1h-9l-2 3-4-1-5-6v-2l-3-1-1-4h-2v-3h-2l-1-4z" fill="#1B8AEE"/>
<path transform="translate(890,340)" d="m0 0h15l6 5 2 8v37l8-6 4-2h16l10 4 11 10 6 10 3 10v49l-5 5-3 1h-13l-6-4-2-2-1-13v-23l-1-10-4-5-2-1h-11l-8 6-1 2-1 41-3 5-6 4h-12l-8-4-2-5v-113l3-6z" fill="#457EFD"/>
<path transform="translate(1333,454)" d="m0 0 4 2 7 10v2h2l7 11 5 14 3 6 7 7 2 1v2l5 2 10 9 1 3v8l-4 10-6 7-8 7-3 1v5l-5 4-6 3h-3v2l-8 4 10-3 16-7 17-12 8-9 5-1 2 3 2 10 1 16 1 52 1 128 1 3-1 79-2-4-2-5-2-16-2-23v-28l1-20 1-51-1-31-1-68-3-10-2-3-4-2-1-2h-9l-13 8-15 6-14 9-3 3-8 1-12-2-5-3 1-4 13-8 3-3-10 2-16 5-11 3-15 1 3-2 38-14 15-8 2-2z" fill="#85D4FE"/>
<path transform="translate(1018,381)" d="m0 0h7l10 3 5 4 3 1 2-4 3-3 3-1h11l7 3 3 5v74l-6 7h-16l-6-3-1-4-9 6-3 1h-17l-9-4-9-7-7-8-3-9h-2l-2-7v-18l3-8 5-9 9-10 10-6z" fill="#447DFD"/>
<path transform="translate(981,522)" d="m0 0h17l11 4 11 7 9 10 5 10 2 8v14l-4 13-9 13-9 7-7 4-14 3h-8l-12-3-13-7-7-7-1-4h-2v-3h-2l-2-5v-3h-2l-1-8v-18l4-9 6-9 8-8 10-6z" fill="#447CFD"/>
<path transform="translate(1198,339)" d="m0 0h8l7 3 4 5v60l8-7 8-8 11-7h6l8 7 5 9-1 5-13 13-7 6 2 4 17 14 5 4 3 5-1 5-6 9-7 6-7-1-11-8-9-8-5-5-5-4-1 17-6 7-3 1h-11l-7-3-3-5v-116l4-5z" fill="#437CFD"/>
<path transform="translate(760,347)" d="m0 0h109l4 4 1 3v12l-5 6-38 1-1 3-1 88-4 5-4 2h-13l-5-2-4-7v-89h-22l-15-1-6-4-1-2v-13l2-4z" fill="#447DFD"/>
<path transform="translate(1094,381)" d="m0 0h12l6 3 2 2v5l11-8 6-2h9l9 3 9 5 7 7 6 10 3 10v47l-6 7-3 1h-12l-6-3-3-4-1-42-3-6-2-1v-2l-12-1-6 2-2 4-2 2-1 42-3 5-3 3-3 1h-12l-6-3-3-3v-77l5-5z" fill="#447DFD"/>
<path transform="translate(1054,524)" d="m0 0h14l5 3 3 4 1 42 4 6 4 3h11l5-3 3-7 1-40 4-6 4-2h15l5 3 2 3v77l-5 5-6 1h-12v-2l-4-2-2-4-7 4-4 1v2l-5 1h-9l-10-3-10-6-7-8v-3h-2l-2-4v-4h-2l-2-8-1-10 1-35 3-5z" fill="#447DFD"/>
<path transform="translate(854,522)" d="m0 0h7l5 4 17 29 7 10 3-3 4-10 6-13 6-12 4-4h9l10 5 4 4v9l-16 35-11 25-7 15-8 18-7-1-20-7-1-5 9-18-1-5-8-14-3-5v-2h-2l-5-10-5-7-5-9-7-12v-5l6-7z" fill="#447DFD"/>
<path transform="translate(1381,98)" d="m0 0 7 1 16 10 10 8 2 3-1 9-4 8-9 11-16 17-13 12-13 10-9 1-9-6-2-3v-11l7-17 10-19 12-20 9-12z" fill="#437CFD"/>
<path transform="translate(1333,454)" d="m0 0 4 2 7 10v2h2l7 11 5 14 3 6 7 7 2 1v2l5 2 10 9 1 3v8l-4 10-6 7-8 7-3 1v5l-5 4-9 4h-2l1-9-5-6v-3l-10 10h-2z" fill="#65BCFC"/>
<path transform="translate(1334,443)" d="m0 0 1 2 6 2 10 6 19 9 13 11 6 7 4 9 3 14 2 13v15l-3 9-6 6h-2v2l-15 11-7 4-2-1 2-6 8-7 6-5 5-9 1-4v-8l-3-5-7-6-5-3v-2l-4-2-7-7-6-15-3-8-4-5v-2h-2l-9-13-2-1z" fill="#85D4FF"/>
<path transform="translate(675,900)" d="m0 0 9 2 19 6 18 3 13 1 33 1 163 1h316l50-1 22-1 26-3 4 2-16 3-43 3-7 1-74 1h-310l-128-1-45-2-14-2-15-4-11-5-10-4z" fill="#0A80EC"/>
<path transform="translate(1156,489)" d="m0 0h18l5 5v69l-7 6h-13l-8-3-2-3v-68z" fill="#437CFD"/>
<path transform="translate(1083,392)" d="m0 0h2l1 73 5 4 3 1h13v3l-3 2h-14l-9-1-10-1-8 2-12 1-7-3h-8l-5 2-6 1-11-1-10-3-9-6-5-5-13-2-4-6-1 8h-1v-40l5-5 7-2v21l1 7h2l5 10 8 9 9 6 6 2h17l9-5 3-1 1 4 6 2h16l5-6 1-58h2l2-5z" fill="#F2FAFD"/>
<path transform="translate(943,554)" d="m0 0 1 3-1 6-2 1-1 3v11l3 13 7 11 8 8 12 6 8 2h17l6-2 1 3-11 8-3 4-4 8-3 3-4 15-5 1-1 5-10-3-6-2 2-1 1-4 8-1 4-12-8 11h-8l-16-3-5-3-6-7v-13l4-3 10-2 15 1 7 1-5-4-10-15-6-5-4-9-1-4v-11l1-12 3-6h2z" fill="#F2FAFD"/>
<path transform="translate(705,430)" d="m0 0h1l1 111v25l-5-2-11-10-5-9-4-19 2-32 3-14 9-19 5-8 3-13z" fill="#0775DE"/>
<path transform="translate(837,540)" d="m0 0 2 2 2-1 9 15 11 18v3h2l13 23-1 5-8 16-2 3-7-1-35-12 3-1-1-5v-11l5-6 10-3 8-5-1-11-2-7-2-5-6-12-1-4z" fill="#F1FAFE"/>
<path transform="translate(1186,351)" d="m0 0h1l1 112 3 5 6 2h11l5-3 3-4 1-13 1-4 4 2 6 5 4 5 14 11 5 2-1 5-5-1-7-3v2l-12-3-9 1-4 2-3-1-3 2-10 1h-5l-1 1h-16v3l-11 2-7-1-9-3-4-2-2-5-2-8v-11l-3-22-3-6-3-2h-16l2-4 5-5 4-2 10 1 2 1v2l3 1 3 6 1 42 5 5 3 1h12l5-3 4-5h2l3 6 8 4-4-5-1-6-3-6-1-12 1-12 3-1 1 7 2-65z" fill="#F1FAFD"/>
<path transform="translate(939,553)" d="m0 0 2 1-3 5v26l4 11v2l4 2 6 7 7 11 5 5-8-1-15-1-10 2-3 2v13l7 8 13 3 6 1h8l9-12v3l-5 11-8 2-1 3-7-1-39-14 2-1-1-9 4-10 1-1h-1v-11l3-6 4-1 2-6 1-2v-6l-4-4 8-21 6-10z" fill="#FCFCFD"/>
<path transform="translate(923,412)" d="m0 0h11l5 4 2 3 1 16v17l1 13 5 4 2 1h15l-1 4-2 1h-16l-7-4-1-5-2 1-5-12-4-1-4 2-4-1 2-7-1-1v-9l2-6h-3l-5-7-1-4 5-6z" fill="#F2FBFD"/>
<path transform="translate(1334,460)" d="m0 0 4 5 7 14 2 15v51l-5 9-7 7h-2v-62z" fill="#0C75E0"/>
<path transform="translate(981,414)" d="m0 0h2v21l1 7h2l5 10 8 9 9 6 6 2h17l9-5 3-1 1 4 6 2 13 1v1l-8 1-1 2h-8l-2-1h-8l-5 2-6 1-11-1-10-3-9-6-5-5-13-2-4-6-1 8h-1v-40l5-5z" fill="#DDF3FE"/>
<path transform="translate(1159,581)" d="m0 0h11l7 3 3 5v17l-6 7h-16l-6-3-4-5v-15l4-6z" fill="#447DFD"/>
<path transform="translate(1126,411)" d="m0 0 10 1 2 1v2l3 1 3 6 1 42 5 5 3 1h12l5-3 4-5h2l3 6 6 3 4 1 4 2-2 3h-16v3l-11 2-7-1-9-3-4-2-2-5-2-8v-11l-3-22-3-6-3-2h-16l2-4 5-5z" fill="#F1FAFD"/>
<path transform="translate(837,540)" d="m0 0 2 2 2-1 9 15 11 18v3h2l13 23-1 5-8 16-2 3-7-1-21-7 9-6 9-3 9-5 1-6-14-26-10-17-4-8-1-4z" fill="#DDF3FE"/>
<path transform="translate(984,552)" d="m0 0h11l8 6 2 3v13l-4 6-5 3-3 2h-7l-8-4-4-5-1-3v-9l1-4h2l2-4h2v-2z" fill="#EFF9FD"/>
<path transform="translate(1509,981)" d="m0 0h10l6 4 4 5 1 3v8l-4 7-5 4-3 1h-8l-6-3-5-6-1-2v-10l4-7z" fill="#86D3FE"/>
<path transform="translate(939,553)" d="m0 0 2 1-6 12-1 6v16l2 10 3 6v3l-11 4-6 6v9l2 12 4 6v3l4 1-2 1-19-7 2-1-1-9 4-10 1-1h-1v-11l3-6 4-1 2-6 1-2v-6l-4-4 8-21 6-10z" fill="#F1FAFD"/>
<path transform="translate(1467,204)" d="m0 0h7l4 1-1 4-8 5-26 7-29 6-24 4h-13l-6-5-1-3 9 1h10l29-6 15-4z" fill="#A0DAFF"/>
<path transform="translate(1045,534)" d="m0 0h1v33l2 18h2l2 8h2l4 7 7 6 11 5 5 1h14v-2l7-4 4-1 4 5 2 1v2l17-1-1 4-4 2h-13l-10-3h-6l-8 3h-8l-12-3-9-6-8-9-10-20-1-7 2-3h1l-1-14-1-4 2-4 1-7h2v-2l-2-1z" fill="#E0F4FE"/>
<path transform="translate(1185,353)" d="m0 0h1v19l-2 65-1 17h-1l-1-18h-1l-1 11 2 10 3 6-1 4 2 1 2 4-6-2-5-5v-3h-2l-1-48 1-3 1-11 4-7 3-20 2-17z" fill="#F1FAFE"/>
<path transform="translate(1116,421)" d="m0 0h15l5 4 3 10 2 17v11l2 11h-2v-2l-2-1-2-4h-1l-2-6-5-6-7 1-3-5v-3l2-1v-12h2l-2-3-1-3-3-1v-2l-2-4z" fill="#F2FBFD"/>
<path transform="translate(1024,411)" d="m0 0 8 1 4 2 4 5 1 10-3 6-6 5h-10l-6-4-3-3-1-3v-7l2-5 3-3h2v-2z" fill="#F0FAFD"/>
<path transform="translate(836,547)" d="m0 0 3 1 7 12 1 6 2 8v6l-5 4-6 3-8 2-4 5v16l-9-1-3-2 3-1 2-8 2-13 3-5 6-4 9-3v-2l-3 2-4-1 4-1 1-3v-8l-2-11z" fill="#F2FAFD"/>
<path transform="translate(560,133)" d="m0 0 7 1 7 6 2 5-1 8-5 6-4 2h-9l-7-6-2-4v-7l4-7z" fill="#88D3FE"/>
<path transform="translate(881,351)" d="m0 0h1l1 111 1 5 5 2 3 1 12 1v3l-2 1h-14l-6-3-3-6v-59l-3-25-2-6v-18l2 1 3-6z" fill="#EDF9FD"/>
<path transform="translate(1476,195)" d="m0 0 4 1-10 5-26 8-29 8-28 6h-10l-7-4-3-4v-2h-2v-7l4-4 2 7 6 8 2 1h7l56-14z" fill="#F2FBFE"/>
<path transform="translate(1376,103)" d="m0 0 1 2-10 17-10 16-8 20-3 9v4l10 7h6l9-5 6-4h2l-2 4-10 9-7 5-9 1-9-6-2-3v-11l7-17 10-19 12-20z" fill="#0B77E1"/>
<path transform="translate(941,563)" d="m0 0h2l1 20h2l2 5v3h2v3h2l4 6 7 6 13 6 9 2h8l11-2-3 4h-2l-1 2-3 1h-17l-13-4-9-6-7-7-7-11-3-13v-11z" fill="#D9F1FE"/>
<path transform="translate(1143,591)" d="m0 0h5l1 14 4 5 5 2 15 1-2 4-8 6-12 2-5 3-3-1 2-3h2l-1-7-5-5-2-7 1-9z" fill="#E1F4FD"/>
<path transform="translate(1334,460)" d="m0 0 4 5 7 14 2 15v51h-1l-2-17-3-28-6-11-1-1z" fill="#0A80EC"/>
<path transform="translate(1186,351)" d="m0 0h1l1 112 3 5 6 2-2 3-6 1-6-7-1-6-3-6-1-12 1-12 3-1 1 7 2-65z" fill="#C9EAFD"/>
<path transform="translate(981,414)" d="m0 0h2l-1 9-3 1 1 14 3 13 2 1 4 8-12-1-4-6-1 8h-1v-40l5-5z" fill="#E7F6FD"/>
<path transform="translate(1042,539)" d="m0 0h3v2h-2v12l-2-1 1 3 1 21h-1l-1-5-1 3 2 8 8 16 2 5-5-3-7-5-5-2-2-10 2-8v-14l-1-7 3-9z" fill="#F1FAFE"/>
<path transform="translate(694,558)" d="m0 0 4 2 9 6v-6h1l1 8 24 10 76 27v1h-11l-7-4-18-6-10-4-12-4-16-4-17-6-15-8-7-7z" fill="#9FD9FE"/>
<path transform="translate(1570,117)" d="m0 0h5v19h14v5h-14v18h-6l-1-17-12-1v-5h13v-12z" fill="#9FD9FF"/>
<path transform="translate(1104,534)" d="m0 0h1v38l-3 7-6 4h-11l3-2-1-7 7-3 3-5 4-25z" fill="#ECF8FE"/>
<path transform="translate(1480,195)" d="m0 0h1l-1 9-2 2-10-1-35 10-15 4-29 6h-10l-4-1v-2h12l28-6 22-6 30-9 11-5z" fill="#E2F5FE"/>
<path transform="translate(705,430)" d="m0 0h1v13l-3 14-9 19-3 8-3 15-1 16-1 26h-1l-3-15 2-32 3-14 9-19 5-8 3-13z" fill="#0E82EC"/>
<path transform="translate(1510,987)" d="m0 0h8l5 5 1 2v6l-5 6-2 1h-7l-5-4-1-2v-8l4-5z" fill="#FBFCFD"/>
<path transform="translate(831,372)" d="m0 0h23v1l13 1v2h5l3 5 2 20 2 12v27l-3-4v-9h-1v-19l-1-2v-5h-1v-12h-1l-2-8-7-2 2-2-35-1z" fill="#F2FBFD"/>
<path transform="translate(986,562)" d="m0 0h6l4 4v5l-3 3-8 1-5-5 1 5 3 3 1 5-6-1-5-6-1-3v-9h3l5 1z" fill="#FAFCFD"/>
<path transform="translate(1084,392)" d="m0 0h1l1 73 1 2h-2l5 6-5-2-4-7v-54l1-9 1-1z" fill="#D1EEFE"/>
<path transform="translate(1218,446)" d="m0 0 4 2 6 5 4 5 14 11 5 2-1 5-5-1-9-5-14-12-3-5-2 4v-7z" fill="#DFF3FE"/>
<path transform="translate(558,139)" d="m0 0h7l5 4 1 6-3 5-3 2h-7l-5-5v-7z" fill="#FBFCFD"/>
<path transform="translate(1148,524)" d="m0 0h1l1 39 1 3 8 2 11 1v3l-11 2-7-1-5-3-5-6 3-8 1-18 1-1z" fill="#D7F0FE"/>
<path transform="translate(845,564)" d="m0 0 2 2 2 8v6l-5 4-6 3-8 2-4 5v16h-3l-2-9 1-14 3-3 14-3 6-6z" fill="#FDFDFD"/>
<path transform="translate(458 1e3)" d="m0 0h3l1 14 10 1v4h-10v14l-5 1v-15h-10l-1-2 1-2h10v-14z" fill="#88D3FE"/>
<path transform="translate(1041,463)" d="m0 0h2l1 4 6 2 13 1v1l-8 1-1 2h-8l-2-1h-8l-5 2-6 1-10-1 1-2-12-6 2-1 8 3h17l9-5z" fill="#EBF8FE"/>
<path transform="translate(1518,985)" d="m0 0 5 1 5 8 1 10-5 6-6 3h-8l-6-3-4-8v-9l3-2v10l2 2 5 3h7l5-4 3-4-1-7-6-5z" fill="#96D7FE"/>
<path transform="translate(923,412)" d="m0 0h11l5 4 2 3 1 16v26h-1l-2-12-2-23-3-5-2-2-11-1-5 2-2 1 2-4z" fill="#D6F0FE"/>
<path transform="translate(1126,411)" d="m0 0 10 1 2 1v2l3 1 3 6v38h-1l-1-21-1-1-2-12-3-5-2-2-4-1h-9l-6 4 2-4 5-5z" fill="#CBEBFE"/>
<path transform="translate(1121,417)" d="m0 0h9l5 2 4 4 2 6 1 9 1 1v25l1 5-3-3-1-7-1-14-2-15-3-6-3-2h-12l-2-2z" fill="#EEF9FE"/>
<path transform="translate(921,417)" d="m0 0 11 1 5 5 1 3v22l-2 1-2-12-1-9-2-3h-12l-4-2 1-4z" fill="#F3FBFD"/>
<path transform="translate(938,451)" d="m0 0h2l3 14 5 4 2 1h15l-1 4-2 1h-16l-7-4-1-5-2 1z" fill="#F1FAFE"/>
<path transform="translate(984,552)" d="m0 0h11l8 6 2 3v13l-3 4-2-7-1-6-5-5-1-3-10-1-1-3z" fill="#DAF1FE"/>
<path transform="translate(1024,411)" d="m0 0 8 1 4 2 4 5 1 10-2 5-3-4-3-9-2-3-10-2-2-1v-2zm-7 4 2 1-6 5 2-4z" fill="#D8F1FE"/>
<path transform="translate(1354,916)" d="m0 0 2 1-4 5-14 7-13 4-14 1-12-1v-1l20-2 15-4 17-8z" fill="#D3EDFD"/>
<path transform="translate(1103,605)" d="m0 0h3l4 5 2 1v2l17-1-1 4-4 2h-13l-3-1-6-10z" fill="#D3EEFE"/>
<path transform="translate(1376,103)" d="m0 0 1 2-10 17-10 16-4 10-3 3-2 5-3 1 2-6 10-19 12-20z" fill="#2286F0"/>
<path transform="translate(1334,460)" d="m0 0 4 5 7 14 2 15v42h-1l-1-15-1-32-3-12-7-12z" fill="#1B8AEE"/>
<path transform="translate(880,460)" d="m0 0h2l2 7 5 2 3 1 12 1v3l-2 1h-14l-6-3-3-6v-5z" fill="#F0FAFE"/>
<path transform="translate(1391,103)" d="m0 0 5 1 12 8 6 5-2 4-4-2-13-10-4-4z" fill="#69BEFC"/>
<path transform="translate(874,364)" d="m0 0 1 3v9l1 6-2-1-2-4-5-1v-2h-35v-1l37-2 4-5z" fill="#F5FBFD"/>
<path transform="translate(858,576)" d="m0 0 4 4 1 2 2-1 10 17 1 5-2 2v-2h-2l-11-20-3-5z" fill="#9CD7FE"/>
<path transform="translate(1147,608)" d="m0 0h3l8 4 14 1-4 4h-14l-5-3z" fill="#96D5FE"/>
<path transform="translate(982,461)" d="m0 0h6l6 4 10 6-1 3-8-4-5-3-14-2v-3z" fill="#F2FBFD"/>
<path transform="translate(1041,463)" d="m0 0h2l1 4 6 2 13 1v1l-8 1-1 2h-8l-5-2-2-5-2-1z" fill="#D3EEFE"/>
<path transform="translate(893,550)" d="m0 0 5 1-5 12-3 3-3-3 1-9z" fill="#EDF9FD"/>
<path transform="translate(797,465)" d="m0 0 6 2v2l16 2 2 2-3 2h-11l-7-3-3-5z" fill="#F0FAFE"/>
<path transform="translate(831,372)" d="m0 0h23v1l13 1v1l-7 1h-30z" fill="#CBEBFE"/>
<path transform="translate(458 1e3)" d="m0 0h3l1 14 10 1v1l-11 1-3 1v-2h-11v-1h10v-14z" fill="#A0DAFF"/>
<path transform="translate(1116,421)" d="m0 0h15l5 4 3 10 1 18-4-8-1-17-3-4-15-1z" fill="#FDFDFD"/>
<path transform="translate(1502,991)" d="m0 0 1 3v7l2 2 5 3 5 1 3 2v2h-10l-5-4-3-5v-9z" fill="#A0DAFF"/>
<path transform="translate(943,603)" d="m0 0 5 2 5 9-1 3-4-1-7-8-1-4z" fill="#F2FBFE"/>
<path transform="translate(733,934)" d="m0 0h18l34 1 2 1v2l-7-1h-35l-11-1z" fill="#F1FAFE"/>
<path transform="translate(867,622)" d="m0 0 13 5 7 3h6l2-4 1 3-2 5-7-1-20-7z" fill="#117FEE"/>
<path transform="translate(1085,467)" d="m0 0 4 1 5 2h13v3l-3 2h-14l-1-3-4-3z" fill="#F1FAFE"/>
<path transform="translate(757,373)" d="m0 0 41 1-1 3-37-1z" fill="#E4F5FE"/>
<path transform="translate(1218,446)" d="m0 0 4 2 6 5 1 4 1 3-4-1-7-6-2 4v-7z" fill="#97D5FE"/>
<path transform="translate(1024,411)" d="m0 0 8 1 2 4 3 3v2l-5-2-4-2-7-1-2-1v-2zm-7 4 2 1-6 5 2-4z" fill="#A0D9FE"/>
<path transform="translate(794,373)" d="m0 0h5v12l-3-4-1-2-1 7-5-5-2-3-7-1v-1h17l1-2z" fill="#F2FBFD"/>
<path transform="translate(392,870)" d="m0 0 4 2 4 4 4 1v4h-11l1-7h-2z" fill="#53AFF7"/>
<path transform="translate(1251,934)" d="m0 0h45l-4 2-4 1h-9l-3-1-25-1z" fill="#D0ECFD"/>
<path transform="translate(984,552)" d="m0 0h11l-1 2 6 4 2 4-5-2-7-3-7-1-1-3z" fill="#9BD7FE"/>
<path transform="translate(1015,426)" d="m0 0 5 5 4 8-6-1-5-5v-6z" fill="#F9FCFD"/>
<path transform="translate(1126,411)" d="m0 0 10 1v3l4 5-9-3-7-1-2-3z" fill="#98D6FE"/>
<path transform="translate(1377,896)" d="m0 0 2 1-2 4-11 11-8 6-2-1 1-3 4-3h3l1-3h2v-2l6-4z" fill="#D7EFFD"/>
<path transform="translate(978,423)" d="m0 0h4l1 18 1 5-1-2-3-1-1-5z" fill="#D2EEFE"/>
<path transform="translate(930,587)" d="m0 0 2 3 1 11-7 5-3-1 2-3h2z" fill="#FDFDFD"/>
<path transform="translate(1101,607)" d="m0 0h2l5 9-12-1-1-5z" fill="#DEF3FE"/>
<path transform="translate(1351,148)" d="m0 0 1 3-5 12-2 8h-1l-1-5-2 1 3-9 4-2 1-5z" fill="#1180EA"/>
<path transform="translate(1376,103)" d="m0 0 1 2-10 17-4 4-1-2 9-15z" fill="#2186F1"/>
<path transform="translate(1251,935)" d="m0 0h25v1l-19 2-11 2v-2z" fill="#F0FAFE"/>
<path transform="translate(1033,585)" d="m0 0h1l2 8 7 3 6 5-2 1-6-4-8-3-1-2v-7z" fill="#FCFCFD"/>
<path transform="translate(1556,136)" d="m0 0h10l1 5h-11z" fill="#86D4FF"/>
<path transform="translate(501,765)" d="m0 0h4v9l-1 2h-4v-9z" fill="#57B0F7"/>
<path transform="translate(1103,605)" d="m0 0h3l4 6-1 1 5 2v2l-7-1-5-8z" fill="#9DD8FE"/>
<path transform="translate(923,412)" d="m0 0h11l-2 2 4 2 1 4-8-3-6-1z" fill="#9CD8FE"/>
<path transform="translate(1442,485)" d="m0 0h6l-2 4h-2l-1 6h-2v-5h-3l2-4z" fill="#218EEF"/>
<path transform="translate(933,426)" d="m0 0 3 3 1 3 1 16-2 1-2-12z" fill="#FDFDFD"/>
<path transform="translate(1501,986)" d="m0 0h2l-2 5v11l3 5-1 2-4-5-1-2v-10z" fill="#77C8FD"/>
<path transform="translate(1505,986)" d="m0 0h2l-1 5-1 2v11l-3-3v-9l-2 1 2-5z" fill="#90D5FE"/>
<path transform="translate(659,896)" d="m0 0h8v3l-2 1-2 3-4-1-2-4h2z" fill="#0E81EB"/>
<path transform="translate(498,728)" d="m0 0 4 1 1 10h-4l-1-4z" fill="#40A3F4"/>
<path transform="translate(1421,632)" d="m0 0h4v11h-4z" fill="#3BA0F4"/>
<path transform="translate(399,613)" d="m0 0h10v3l-2 1h-10v-3z" fill="#47A6F5"/>
<path transform="translate(943,554)" d="m0 0 1 3-1 6-2 1-2 10h-1v-12l3-6h2z" fill="#F0FAFE"/>
<path transform="translate(376,875)" d="m0 0 10 2v3h-9l-2-1z" fill="#50ACF6"/>
<path transform="translate(325,720)" d="m0 0 4 1v10h-4z" fill="#47A7F5"/>
<path transform="translate(483,674)" d="m0 0 3 1 3 7v3h-4l-3-7z" fill="#3FA3F4"/>
<path transform="translate(213,650)" d="m0 0h4v11l-4-1z" fill="#47A8F5"/>
<path transform="translate(407,387)" d="m0 0h10l1 4h-11z" fill="#3FA3F5"/>
<path transform="translate(709,1054)" d="m0 0 10 1 1 4-10-1z" fill="#3A9DF4"/>
<path transform="translate(404,884)" d="m0 0 4 1 1 3 3 1 1 4-5-1-4-5z" fill="#51ADF6"/>
<path transform="translate(416,875)" d="m0 0h7l-1 4-10 1 1-4z" fill="#4DAAF6"/>
<path transform="translate(1547,440)" d="m0 0h4l-1 4-6 3h-4l2-4z" fill="#3EA1F4"/>
<path transform="translate(444,390)" d="m0 0 10 1 1 4-10-1z" fill="#399AF4"/>
<path transform="translate(1338,176)" d="m0 0 4 4v2l4 2 7 4-3 1-8-4-4-5z" fill="#E6F6FE"/>
<path transform="translate(728,1057)" d="m0 0 7 1 3 1v3h-7l-4-1z" fill="#379BF3"/>
<path transform="translate(637,1034)" d="m0 0 7 1 4 2v3l-7-1-4-2z" fill="#3A9FF4"/>
<path transform="translate(1114,639)" d="m0 0h10v2l-12 4 1-5z" fill="#F6FBFD"/>
<path transform="translate(219,576)" d="m0 0h3l-1 10-4 1 1-10z" fill="#41A3F4"/>
<path transform="translate(516,409)" d="m0 0 9 2 2 1v3l-8-1-3-2z" fill="#3A9FF4"/>
<path transform="translate(480,398)" d="m0 0 9 1 2 1v3l-9-1-2-1z" fill="#359BF2"/>
<path transform="translate(673,1045)" d="m0 0 7 1 3 1v4l-10-2z" fill="#379DF3"/>
<path transform="translate(1759,982)" d="m0 0h11v4h-7l-4-1z" fill="#3395F3"/>
<path transform="translate(1741,979)" d="m0 0 10 1v4l-10-1z" fill="#369BF3"/>
<path transform="translate(459,935)" d="m0 0 7 4 2 4h-4l-6-5z" fill="#3DA1F4"/>
<path transform="translate(436,870)" d="m0 0h5v3l-8 3h-3l1-4z" fill="#41A3F4"/>
<path transform="translate(1485,842)" d="m0 0 4 1 4 7v2l-4-1-4-6z" fill="#40A2F4"/>
<path transform="translate(416,614)" d="m0 0 9 1 2 1v3l-9-1-2-1z" fill="#3A9FF3"/>
<path transform="translate(216,594)" d="m0 0h3v10l-4 1v-8z" fill="#3FA2F4"/>
<path transform="translate(223,557)" d="m0 0h3l-1 9-1 2h-3l1-10z" fill="#3FA1F4"/>
<path transform="translate(390,388)" d="m0 0h9l-1 4h-10v-3z" fill="#3DA1F4"/>
<path transform="translate(1726,260)" d="m0 0h3l-1 9-1 2h-3l1-9z" fill="#41A3F4"/>
<path transform="translate(1595,210)" d="m0 0 3 1-1 3-6 5h-3l1-4z" fill="#49A8F5"/>
<path transform="translate(764,1063)" d="m0 0h10l1 4h-7l-4-1z" fill="#2B95F1"/>
<path transform="translate(1778,983)" d="m0 0h9l1 4h-10z" fill="#3096F2"/>
<path transform="translate(1722,977)" d="m0 0h10l1 4h-7l-4-1z" fill="#3295F3"/>
<path transform="translate(1704,973)" d="m0 0 10 1 1 4-7-1-4-1z" fill="#3799F3"/>
<path transform="translate(1668,964)" d="m0 0 8 1 3 2v2h-7l-4-2z" fill="#389EF3"/>
<path transform="translate(1650,958)" d="m0 0 9 2 2 4-11-2z" fill="#40A0F4"/>
<path transform="translate(702,928)" d="m0 0 11 2 7 1v1l-9 1-9-2z" fill="#C8E8FD"/>
<path transform="translate(1566,918)" d="m0 0 4 1 6 4v3l-4-1-6-4z" fill="#3B9FF3"/>
<path transform="translate(357,872)" d="m0 0 9 1 2 1-1 3-8-1z" fill="#45A5F5"/>
<path transform="translate(339,865)" d="m0 0 6 1 5 3v2l-8-1-3-2z" fill="#3EA2F4"/>
<path transform="translate(1432,724)" d="m0 0h3l3 10-4 1-2-5z" fill="#379DF3"/>
<path transform="translate(342,400)" d="m0 0 3 1-1 3-7 3h-3l1-4z" fill="#419EF5"/>
<path transform="translate(1642,379)" d="m0 0 3 1-1 3-7 5h-2l1-4z" fill="#3FA1F4"/>
<path transform="translate(1489,363)" d="m0 0h3l-1 5-3 5h-3l1-5z" fill="#41A4F5"/>
<path transform="translate(1669,354)" d="m0 0h3l-1 4-5 5h-3l1-4z" fill="#399EF3"/>
<path transform="translate(1555,251)" d="m0 0h4l-2 4-4 5h-3l1-4z" fill="#44A4F5"/>
<path transform="translate(1567,237)" d="m0 0h4l-1 4-5 5-3-1 2-5z" fill="#43A4F4"/>
<path transform="translate(1581,223)" d="m0 0h3l-1 4-5 5h-3l1-4z" fill="#399DF4"/>
<path transform="translate(1641,181)" d="m0 0 4 1-1 3-10 2v-3z" fill="#3F9FF5"/>
<path transform="translate(1654,178)" d="m0 0h9l-2 4h-9v-3z" fill="#399DF3"/>
<path transform="translate(746,1060)" d="m0 0 10 1v4l-10-1z" fill="#2793F1"/>
<path transform="translate(691,1050)" d="m0 0 9 1 1 4-9-1z" fill="#359AF3"/>
<path transform="translate(655,1040)" d="m0 0 8 1 3 2v2h-7l-4-2z" fill="#3299F2"/>
<path transform="translate(1582,928)" d="m0 0 5 1 5 3v3l-5-1-5-3z" fill="#349CF3"/>
<path transform="translate(417,898)" d="m0 0 4 1 5 5-1 3h-2v-2l-4-2-3-4z" fill="#3A9FF4"/>
<path transform="translate(1536,896)" d="m0 0 4 1 6 5v2l-5-1-2-1v-2l-3-1z" fill="#3DA0F4"/>
<path transform="translate(1509,871)" d="m0 0 4 1 5 5-1 3-4-2-4-4z" fill="#379DF3"/>
<path transform="translate(330,757)" d="m0 0h3l2 11-4-1-1-3z" fill="#40A2F4"/>
<path transform="translate(268,457)" d="m0 0h4l-2 4-4 5h-3l2-5z" fill="#3EA0F4"/>
<path transform="translate(1581,422)" d="m0 0 3 1v2l-7 4h-4l2-4z" fill="#3DA0F4"/>
<path transform="translate(1023,423)" d="m0 0 5 1 1 4-4 2-3-2z" fill="#FDFDFD"/>
<path transform="translate(309,418)" d="m0 0h3l-1 4-4 1-1 3h-4l2-4z" fill="#3EA0F4"/>
<path transform="translate(359,394)" d="m0 0 4 1v2l-8 3h-3l1-4z" fill="#3C9EF4"/>
<path transform="translate(1627,391)" d="m0 0h3v3l-7 5h-3l1-4z" fill="#3CA0F4"/>
<path transform="translate(535,988)" d="m0 0 5 1 5 3v3l-5-1-5-3z" fill="#389DF3"/>
<path transform="translate(469,850)" d="m0 0h3l-1 4-5 4h-3l1-4z" fill="#3CA0F4"/>
<path transform="translate(249,774)" d="m0 0 4 2v4h2l1 4-4-1-4-6z" fill="#399EF3"/>
<path transform="translate(1437,742)" d="m0 0h3l2 5v6h-3l-2-6z" fill="#3098F2"/>
<path transform="translate(494,710)" d="m0 0h4l1 10h-3l-2-6z" fill="#329AF2"/>
<path transform="translate(489,692)" d="m0 0 4 1 2 9h-3v-2h-2z" fill="#3099F2"/>
<path transform="translate(218,687)" d="m0 0 3 1 1 10-4-1z" fill="#359BF3"/>
<path transform="translate(215,669)" d="m0 0h3l1 3v7h-4z" fill="#399EF3"/>
<path transform="translate(474,658)" d="m0 0 4 2 3 6v2h-4l-3-7z" fill="#369CF3"/>
<path transform="translate(449,630)" d="m0 0 6 2 2 1v2h2v3l-5-1-5-5z" fill="#399DF3"/>
<path transform="translate(434,620)" d="m0 0 6 1 4 3v3l-9-3z" fill="#389EF3"/>
<path transform="translate(234,521)" d="m0 0h2l-1 7-2 4h-3l1-6z" fill="#3CA0F3"/>
<path transform="translate(257,472)" d="m0 0h4l-2 5-3 4h-3l1-4z" fill="#3B9FF4"/>
<path transform="translate(585,438)" d="m0 0 6 1 4 2v4l-9-3z" fill="#2F98F2"/>
<path transform="translate(568,430)" d="m0 0 7 2 3 2v3l-5-1-5-2z" fill="#2F98F2"/>
<path transform="translate(550,423)" d="m0 0 5 1 6 2v3l-6-1-5-2z" fill="#349BF2"/>
<path transform="translate(462,394)" d="m0 0 11 1v4l-11-2z" fill="#3299F2"/>
<path transform="translate(1515,314)" d="m0 0h3l-1 5-3 5-3-1 2-6h2z" fill="#3A9FF3"/>
<path transform="translate(1544,266)" d="m0 0h3l-1 5-5 5-2-1 2-5 3-1z" fill="#399EF3"/>
<path transform="translate(1608,199)" d="m0 0h4l-2 4-5 4-3-1v-2h2l1-3z" fill="#399DF3"/>
<path transform="translate(602,1021)" d="m0 0 6 1 5 2v3l-7-1-4-2z" fill="#339AF2"/>
<path transform="translate(519,979)" d="m0 0h4v2l5 1 1 4-7-2-3-2z" fill="#379DF3"/>
<path transform="translate(503,969)" d="m0 0h4v2l5 1 1 4-5-1-5-3z" fill="#389EF3"/>
<path transform="translate(473,947)" d="m0 0 4 1 5 4v3l-5-2-4-3z" fill="#3A9FF3"/>
<path transform="translate(430,911)" d="m0 0 5 2 4 3v3l-5-1-4-4z" fill="#3B9EF3"/>
<path transform="translate(1551,908)" d="m0 0 4 1 6 4-1 3-5-2-1-3h-3z" fill="#359CF3"/>
<path transform="translate(309,846)" d="m0 0 5 2 3 3v3l-5-2-4-3z" fill="#3FA2F4"/>
<path transform="translate(368,841)" d="m0 0 5 1 4 6v2l-4-1-2-2v-3l-3-1z" fill="#399EF3"/>
<path transform="translate(1465,811)" d="m0 0 4 2 3 4v4l-4-1v-4h-2z" fill="#349BF2"/>
<path transform="translate(269,805)" d="m0 0 4 2 4 5v3h-3l-5-6z" fill="#399EF3"/>
<path transform="translate(334,666)" d="m0 0h3l-2 9-4 1 1-6z" fill="#3499F2"/>
<path transform="translate(1497,464)" d="m0 0h3v3l-6 3h-5l1-3z" fill="#339BF3"/>
<path transform="translate(326,408)" d="m0 0h2l-1 4-7 4h-2l1-4z" fill="#399CF4"/>
<path transform="translate(1481,380)" d="m0 0h3l-3 9-4 1 1-5z" fill="#349CF3"/>
<path transform="translate(1498,346)" d="m0 0h2l-2 9-5 1 2-6z" fill="#339AF2"/>
<path transform="translate(1534,282)" d="m0 0h4l-2 5h-2l-1 4h-3l1-5z" fill="#369BF3"/>
<path transform="translate(1671,178)" d="m0 0h7l3 1v3h-9z" fill="#359CF3"/>
<path transform="translate(725,1051)" d="m0 0 11 5v2h-9z" fill="#F0FAFD"/>
<path transform="translate(488,958)" d="m0 0 4 1 6 4v3h-3v-2h-3v-2l-4-1z" fill="#349BF2"/>
<path transform="translate(444,923)" d="m0 0 5 2 4 3v4h-2v-2l-5-2-2-2z" fill="#399EF3"/>
<path transform="translate(481,836)" d="m0 0h3l-1 4-4 5h-3l1-4h2l1-4z" fill="#3098F2"/>
<path transform="translate(358,825)" d="m0 0h3v3h2v3l3 1v3l-4-1-4-6z" fill="#379BF3"/>
<path transform="translate(1443,760)" d="m0 0h3l3 10h-4l-2-5z" fill="#2894F1"/>
<path transform="translate(344,649)" d="m0 0h3l-1 4-4 6h-3v-3h2l2-6z" fill="#3299F2"/>
<path transform="translate(462,643)" d="m0 0 5 1 4 6v2h-3l-4-4v-3h-2z" fill="#2B95F1"/>
<path transform="translate(214,613)" d="m0 0h3v10h-4z" fill="#359BF2"/>
<path transform="translate(1460,431)" d="m0 0h2l-1 6-2 5-3-1 1-5z" fill="#3098F2"/>
<path transform="translate(1473,397)" d="m0 0h3l-1 6-2 4-3-1 1-5z" fill="#3099F2"/>
<path transform="translate(1654,368)" d="m0 0h4l-2 4-4 4-3-1 2-4z" fill="#379BF3"/>
<path transform="translate(1705,311)" d="m0 0h2l-1 5h-2l-1 4h-4l1-3h2l1-4z" fill="#359CF3"/>
<path transform="translate(1704,192)" d="m0 0h4l5 6v3l-4-2-5-5z" fill="#329AF2"/>
<path transform="translate(620,1028)" d="m0 0 7 1 3 2v3l-4-1-6-2z" fill="#2D96F1"/>
<path transform="translate(1498,857)" d="m0 0 4 2 3 4v3l-4-1-4-6z" fill="#2E97F2"/>
<path transform="translate(380,856)" d="m0 0 4 1 1 4 3 1v3h-3v-2l-3-1-3-5z" fill="#389CF3"/>
<path transform="translate(233,741)" d="m0 0h2l4 8v2l-4-1-2-4z" fill="#3098F2"/>
<path transform="translate(328,739)" d="m0 0h2l1 10h-4v-9z" fill="#389CF3"/>
<path transform="translate(221,705)" d="m0 0h3l2 11h-3l-2-6z" fill="#369CF3"/>
<path transform="translate(369,624)" d="m0 0h4l-2 4-5 3h-3l2-4z" fill="#3197F2"/>
<path transform="translate(386,616)" d="m0 0h4l-2 4-8 2-1-3z" fill="#339BF2"/>
<path transform="translate(228,539)" d="m0 0h2l-1 10h-4l2-9z" fill="#329AF2"/>
<path transform="translate(1512,457)" d="m0 0h5v2l-8 4h-3l2-4z" fill="#339BF2"/>
<path transform="translate(880,446)" d="m0 0h1l1 14-3 1v-14z" fill="#F2FBFE"/>
<path transform="translate(1563,432)" d="m0 0h4l-2 4-4 2h-4l2-4z" fill="#399DF4"/>
<path transform="translate(705,430)" d="m0 0h1v13l-2 8-2 2v-6l2-7z" fill="#1B8AEE"/>
<path transform="translate(979,420)" d="m0 0h3v3h-4zm-2 3h1v13h-3l1-7z" fill="#E3F5FE"/>
<path transform="translate(533,416)" d="m0 0 7 1 4 2v3l-7-2-4-1z" fill="#2E97F2"/>
<path transform="translate(498,404)" d="m0 0 8 1 3 1v3l-7-1-4-2z" fill="#2793F1"/>
<path transform="translate(375,390)" d="m0 0h6v3l-6 2h-5l1-3h4z" fill="#359AF3"/>
<path transform="translate(426,388)" d="m0 0h9l1 4-10-1z" fill="#2A92F1"/>
<path transform="translate(1506,330)" d="m0 0h3l-3 9h-4l2-6z" fill="#319AF2"/>
<path transform="translate(1587,136)" d="m0 0h2v5h-8v-4z" fill="#89D5FF"/>
<path transform="translate(1796,985)" d="m0 0h11v3h-11z" fill="#2187F1"/>
<path transform="translate(341,793)" d="m0 0h3l3 7v3h-3v-3h-2z" fill="#3A9FF3"/>
<path transform="translate(1450,778)" d="m0 0 3 1 3 8-4 1-2-5z" fill="#2F98F2"/>
<path transform="translate(226,723)" d="m0 0h3v4h2l1 6h-3l-3-5z" fill="#3298F2"/>
<path transform="translate(328,683)" d="m0 0h3v7l-2 3h-2v-7z" fill="#359CF2"/>
<path transform="translate(213,631)" d="m0 0h3v11h-3z" fill="#329AF2"/>
<path transform="translate(280,443)" d="m0 0h4l-1 3h-2l-2 4-4 1 2-5 3-1z" fill="#2F98F1"/>
<path transform="translate(1466,414)" d="m0 0h3l-1 6-2 4-3-1 2-8z" fill="#3099F2"/>
<path transform="translate(1610,403)" d="m0 0h4l-2 4-4 3h-3l1-4z" fill="#3199F2"/>
<path transform="translate(1694,326)" d="m0 0 3 1-3 5h-2l-1 3h-3v-2h2l1-4z" fill="#3098F2"/>
<path transform="translate(1727,241)" d="m0 0h3v11h-3z" fill="#4BAAF7"/>
<path transform="translate(458 1e3)" d="m0 0h3v11h-3z" fill="#87D4FF"/>
<path transform="translate(258,790)" d="m0 0h3v3h2v3l3 1v3l-4-1v-3h-2v-3h-2z" fill="#379DF3"/>
<path transform="translate(334,775)" d="m0 0 4 1 2 9-4-1z" fill="#369DF3"/>
<path transform="translate(501,746)" d="m0 0 3 1v10h-3z" fill="#2490F0"/>
<path transform="translate(1453,449)" d="m0 0h3l-1 5-2 5h-3l2-9z" fill="#2592F0"/>
<path transform="translate(1623,189)" d="m0 0h4v2h-2v2l-7 3-1-3z" fill="#2D96F1"/>
<path transform="translate(1689,182)" d="m0 0 5 1 5 3v2l-7-1-3-2z" fill="#2A93F1"/>
<path transform="translate(585,1014)" d="m0 0 9 2 2 3-4 1-7-4z" fill="#248EF1"/>
<path transform="translate(1516,986)" d="m0 0 5 1 4 4 1 7-2 3-2-9-4-4z" fill="#80CFFE"/>
<path transform="translate(1686,969)" d="m0 0h5l5 2v3l-10-2z" fill="#2791F1"/>
<path transform="translate(980,554)" d="m0 0 4 1 6 1v1l-11 2-3 1 2-4h2zm-6 6 2 1-2 1z" fill="#D0EDFE"/>
<path transform="translate(1459,479)" d="m0 0h6l-1 3-5 2-4-1z" fill="#2994F1"/>
<path transform="translate(1480,471)" d="m0 0h3v3l-10 3v-3z" fill="#2A95F1"/>
<path transform="translate(602,446)" d="m0 0 5 1 4 2v3l-5-1-4-2z" fill="#208EEF"/>
<path transform="translate(294,430)" d="m0 0h4l-2 4-5 4h-2l1-4z" fill="#2793F0"/>
<path transform="translate(1681,341)" d="m0 0h4l-2 4-4 4h-2l2-6z" fill="#2E97F1"/>
<path transform="translate(1525,298)" d="m0 0h2l-2 7-1 2h-4l2-6z" fill="#3198F1"/>
<path transform="translate(783,1065)" d="m0 0h10v3h-10z" fill="#1285ED"/>
<path transform="translate(1313,931)" d="m0 0h7l-1 2-8 1-12-1v-1z" fill="#B2DFFD"/>
<path transform="translate(396,876)" d="m0 0 8 1v3h-10z" fill="#2B95F1"/>
<path transform="translate(501,784)" d="m0 0h1v10l-3 1v-10z" fill="#3098F2"/>
<path transform="translate(325,702)" d="m0 0h3v10h-3z" fill="#2C96F1"/>
<path transform="translate(356,635)" d="m0 0h3l-2 4-5 5h-2v-3h2l2-4h2z" fill="#228EF0"/>
<path transform="translate(895,626)" d="m0 0 1 3-2 5-7-1 1-2 5-1z" fill="#1982EF"/>
<path transform="translate(240,504)" d="m0 0h3l-1 4-3 7h-3v-3h2l1-5z" fill="#2D96F1"/>
<path transform="translate(1722,279)" d="m0 0 2 1-2 7-4 2 1-6z" fill="#2E96F2"/>
<path transform="translate(1724,223)" d="m0 0h3l1 10h-3z" fill="#339AF2"/>
<path transform="translate(802,1065)" d="m0 0h6v4h-7z" fill="#379DF3"/>
<path transform="translate(281,821)" d="m0 0h4l4 5v3l-4-2-4-4z" fill="#2B95F1"/>
<path transform="translate(240,758)" d="m0 0 3 1 4 7v2l-4-1-1-5h-2z" fill="#2992F1"/>
<path transform="translate(1163,577)" d="m0 0 1 4-12 2 5-4z" fill="#F6FBFD"/>
<path transform="translate(1716,206)" d="m0 0 4 1 3 9h-3l-4-8z" fill="#2591F0"/>
<path transform="translate(568,1006)" d="m0 0 5 1 5 2v3l-4-1-6-2z" fill="#218FEF"/>
<path transform="translate(1633,952)" d="m0 0h4v2l6 1v3l-10-3z" fill="#1F8CEF"/>
<path transform="translate(1616,945)" d="m0 0 4 1 6 3v2l-6-1-4-2z" fill="#228EF0"/>
<path transform="translate(1599,937)" d="m0 0 5 1 5 3v2l-5-1-5-3z" fill="#218EF0"/>
<path transform="translate(1522,884)" d="m0 0 4 1 5 5v2l-4-1v-2l-5-2z" fill="#2893F1"/>
<path transform="translate(455,862)" d="m0 0h2l-2 4-4 2h-4v-2h3l1-3z" fill="#2590F0"/>
<path transform="translate(324,857)" d="m0 0 9 4-1 3h-2v-2l-7-2z" fill="#2692F0"/>
<path transform="translate(1476,827)" d="m0 0h2v3h2l2 3v3l-4-1-3-7z" fill="#1F8DEF"/>
<path transform="translate(490,820)" d="m0 0h3v4h-2l-2 6h-2l1-5z" fill="#2692F0"/>
<path transform="translate(349,809)" d="m0 0 3 1 3 9h-2v-2h-2v-3h-2z" fill="#2692F0"/>
<path transform="translate(1532,449)" d="m0 0 2 2-10 5v-4z" fill="#2993F0"/>
<path transform="translate(681,919)" d="m0 0 5 1 8 4v1l-7-1-6-3z" fill="#BEE4FD"/>
<path transform="translate(294,833)" d="m0 0 3 1 5 5v2h-3l-3-3-3-2z" fill="#2D96F1"/>
<path transform="translate(1457,794)" d="m0 0 3 1 3 9h-3l-3-7z" fill="#1B8BEF"/>
<path transform="translate(1174,462)" d="m0 0h2l3 6 6 3-3 1-5-3-4-4z" fill="#FCFCFD"/>
<path transform="translate(1369,115)" d="m0 0 1 2-5 8-3 1 2-6z" fill="#1780EF"/>
<path transform="translate(1424,669)" d="m0 0h2l1 10h-3z" fill="#0F83EC"/>
<path transform="translate(1448,467)" d="m0 0h2l-1 6-1 4-3-1z" fill="#1788EE"/>
<path transform="translate(1713,296)" d="m0 0h3l-3 9-3-1z" fill="#2390F0"/>
</svg>
