<svg id="What_you_would_be_doing" data-name="What you would be doing" xmlns="http://www.w3.org/2000/svg" width="316" height="280" viewBox="0 0 316 280">
  <g id="A-Human_Sitting" data-name="A-Human/Sitting" transform="translate(0 0)">
    <g id="Head_Front_Rad" data-name="Head/Front/Rad" transform="translate(44.847 0)">
      <g id="Head" transform="translate(14.119 13.254)">
        <path id="Path_38315" data-name="Path 38315" d="M6.862,28.572C3.035,24.091.445,18.6.878,12.447,2.125-5.281,26.866-1.381,31.678,7.567S35.919,39.211,29.7,40.81c-2.48.638-7.765-.924-13.143-4.158l3.376,23.821H0Z" transform="translate(0 0)" fill="#b28b67" fill-rule="evenodd"/>
      </g>
      <path id="hair" d="M48.507,27.419a6.209,6.209,0,0,1,1.3,2.407,24.3,24.3,0,0,1,.831,2.734c.419,1.863.423,4.006-.91,5.453a6.276,6.276,0,0,1-4.152,1.794,7.648,7.648,0,0,1-2.944-.372c-.938-.307-1.746-.92-2.655-1.3a11.827,11.827,0,0,1-1.4,5.823,5.822,5.822,0,0,1-4.334,2.82,8.612,8.612,0,0,1-5.28-1.061c-.41-.221-.817-.454-1.206-.716a3.384,3.384,0,0,0-1.047-.574c-.426-.1-.638.146-.915.456a6.944,6.944,0,0,1-1.078.968,6.364,6.364,0,0,1-5.943,1.019,5.522,5.522,0,0,1-2.423-1.747c-.553-.723-.947-1.871-1.71-2.374-.324-.214-.552.069-.847.279-.443.315-.865.662-1.313.968a6.021,6.021,0,0,1-2.041.92c-1.068.247-2.545.189-2.85-1.207a5.747,5.747,0,0,1,.01-1.613c.051-.725.1-1.45.167-2.175A15.664,15.664,0,0,1,7.979,38.3a2.366,2.366,0,0,0,.105-1.113c-.155-.36-.868-.155-1.173-.168a4.646,4.646,0,0,1-1.764-.387,1.9,1.9,0,0,1-1.068-.985,1.765,1.765,0,0,1-.03-.926,2.756,2.756,0,0,0-.056-.95c-.809.4-3.612,1.28-3.965-.166a2.258,2.258,0,0,1,.354-1.432,12.405,12.405,0,0,1,1.307-1.984,17.762,17.762,0,0,1,3.48-3.367,2.272,2.272,0,0,1-.6-3.81,2.831,2.831,0,0,1,2.075-.6,4.6,4.6,0,0,0,.858.068,2.055,2.055,0,0,1,.389-.131,11.6,11.6,0,0,1,3.183.4,10.5,10.5,0,0,1,4.854,2.532,1.5,1.5,0,0,0,1.123.514c.417,0,.827-.118,1.244-.129a8.98,8.98,0,0,1,3.123.868,11.73,11.73,0,0,1,1.023-4.144c.462-1.013,1.426-1.16,2.374-1.249,3.03-.284,6.071.033,9.1.029-2.937-.662-5.972-.935-8.883-1.714-1.316-.352-.311-1.237.252-1.85a10.655,10.655,0,0,0,2.093-3.579,6.338,6.338,0,0,0,6.226,2.525c2.486-.634,4.236-3.987,2.647-6.4-.923-1.4-2.589-1.94-3.976-2.541,1.082-1.122,1.343-2.779,1.995-4.175a2.99,2.99,0,0,1,1.49-1.706,1.745,1.745,0,0,0,.787-.312c.26-.267.322-.567.653-.8A3.69,3.69,0,0,1,41.77.976a2.965,2.965,0,0,1-.1,3.895c1.41.586,3.979,1.34,3.419,3.531,3.055.2,10.474,5.145,6.373,8.757,2.251,1.269,4.318,4.369,2.873,7.1-1.113,2.1-3.7,3.045-5.826,3.157" transform="translate(54.814 47.219) rotate(180)" fill="#191847" fill-rule="evenodd"/>
    </g>
    <g id="Group_17088" data-name="Group 17088" transform="translate(42.09 58.503)">
      <path id="Skin" d="M0,29.335,28.827,13.587A71.239,71.239,0,0,1,43,.358c1.422-.592,3.908-.95,1.583,3.166s-4.585,8.55-3.4,9.818,4.138-.5,5.551,1.6q1.413,2.107-15.138,6.657L10.645,40.732Z" transform="matrix(0.208, 0.978, -0.978, 0.208, 93.225, 54.011)" fill="#997659" fill-rule="evenodd"/>
      <path id="Sleeve" d="M4.574,5.274A70.964,70.964,0,0,0,43.807.017L47.416,13.3C36.094,21.434,21.071,27.215,9.09,24.972,4.861,24.18-6.553,23.782-7.9,20.041-9.333,16.056.18,8.432,4.574,5.274Z" transform="translate(68.327 39.489) rotate(69)" fill="#2026a2" fill-rule="evenodd"/>
    </g>
    <g id="Bottom_Sitting_Skinny-Jeans-1" data-name="Bottom/Sitting/Skinny-Jeans-1" transform="translate(0 142.485)">
      <g id="Objects_Seat_Cube" data-name="Objects/Seat/Cube" transform="translate(0 34.793)">
        <g id="Seat">
          <path id="Seat-Stuff" d="M22.941,0H87.1l8.407,102.722H0Z" fill="#c5cfd6" fill-rule="evenodd"/>
          <path id="Seat-Stuff-2" data-name="Seat-Stuff" d="M22.941,0H42.674L54.484,102.722H0Z" fill="rgba(0,0,0,0.1)" fill-rule="evenodd"/>
        </g>
      </g>
      <path id="Skin-2" data-name="Skin" d="M56.372,4.828c6.841-4.1,18.318,1.167,18.31,7.027-.024,17.533-16.065,100.164-16.9,105.388s-9.81,6.6-10.332.017c-.831-10.48-2.376-46.759-.831-63.551.638-6.931,1.325-13.533,2-19.422Q35.992,57.03,9.565,99.413L0,95.054Q11.266,58.029,18.476,42.777c8.23-17.41,15.947-32.32,19.2-37.572C42.78-3.056,51.673-.173,56.372,4.828Z" transform="translate(103.877 12.367)" fill="#b28b67" fill-rule="evenodd"/>
      <path id="LegLower" d="M-.076,92.677,4.242,8.557C7.316-5.99,33.23.739,33.213,8.533c-.039,17.7-10.739,78.835-10.751,84.107Z" transform="translate(136.329 6.651) rotate(20)" fill="#bf9a33" fill-rule="evenodd"/>
      <g id="Accessories_Shoe_Flat-Sneaker" data-name="Accessories/Shoe/Flat-Sneaker" transform="translate(104.051 97.479) rotate(30)">
        <path id="shoe" d="M1.387,5.03a17.806,17.806,0,0,0-1.4,5.558,41.513,41.513,0,0,0,.741,6.543l46.813-.051q1.831-6.027-2.1-6.5t-6.531-.86L17.164.053a.832.832,0,0,0-1.1.421L16.058.5l-1.4,3.39a14.966,14.966,0,0,1-5.917,1.7A13.385,13.385,0,0,1,3.635,4.1h0a1.664,1.664,0,0,0-2.2.819Q1.408,4.975,1.387,5.03Z" transform="translate(0 0)" fill="#e4e4e4" fill-rule="evenodd"/>
      </g>
      <g id="Accessories_Shoe_Flat-Sneaker-2" data-name="Accessories/Shoe/Flat-Sneaker" transform="translate(147.831 120.393)">
        <path id="shoe-2" data-name="shoe" d="M1.394,5.028A17.75,17.75,0,0,0,0,10.582a41.466,41.466,0,0,0,.748,6.54H47.591q1.826-6.021-2.108-6.5t-6.536-.867L17.175.072a.831.831,0,0,0-1.1.419l-.009.022L14.669,3.9A14.965,14.965,0,0,1,8.751,5.594,13.43,13.43,0,0,1,3.641,4.1h0a1.663,1.663,0,0,0-2.2.816Q1.415,4.973,1.394,5.028Z" transform="translate(0 0)" fill="#e4e4e4" fill-rule="evenodd"/>
      </g>
      <path id="Leg-and-Butt" d="M141.826,30.181c0,22.008-10.478,73.344-10.485,78.19l-22.545.017q4.95-68.71,3.51-69.451c-1.439-.74-59.008,5.733-76.274,5.733C11.135,44.672.836,29.011,0,0H49.321C59.363,1.072,111.744,11.61,131.2,15.233,139.525,16.784,141.826,24.119,141.826,30.181Z" transform="translate(39.034 0)" fill="#ffcd44" fill-rule="evenodd"/>
    </g>
    <g id="Body_Pointing-Forward" data-name="Body/Pointing-Forward" transform="translate(28.423 55.503)">
      <rect id="Rectangle_7207" data-name="Rectangle 7207" width="4" height="36" rx="2" transform="translate(157.577 -34.503)"/>
      <path id="Skin-3" data-name="Skin" d="M45.148,42.623,57.81,35.684q2.665-10.115,6.372-10.179c1.9-.881-1.408,7.64,2.191,6.9s12.381-7.254,13.894-5.932c2.239,1.957.243,7.967-2.11,10.956-4.4,5.587-8.036,7.5-17.032,10A49.5,49.5,0,0,0,45.869,55.3Z" transform="translate(82.615 -3.467) rotate(-31)" fill="#997659" fill-rule="evenodd"/>
      <path id="Clothes" d="M101.344,33.2c20.127-5.3,28.071-12.38,43.323-29.513.075.155,17.794,9.106,17.992,9.519C150.246,39.6,137.879,58.194,111,68.731,86.229,67.982,82.61,62.27,65.462,54.175c-.291,6.847,3.269,14.678,8.834,32.643.486,9.046-.618,17.654-4.326,25.518-7.623,16.169-52.263,1.195-67.272,4.142-9.4-30.448,8.774-42.821,8.789-62.3C11.5,32.84,28.678,0,31.2,0H54.249C55.52,16.294,82.813,30.627,101.344,33.2Z" fill="#296df6" fill-rule="evenodd"/>
    </g>
    <g id="Group_17089" data-name="Group 17089">
      <rect id="Rectangle_7205" data-name="Rectangle 7205" width="2" height="13" rx="1" transform="translate(95 27)"/>
      <rect id="Rectangle_7206" data-name="Rectangle 7206" width="2" height="25" rx="1" transform="translate(71.5 32.5) rotate(-90)"/>
    </g>
  </g>
  <g id="Group_17090" data-name="Group 17090" transform="translate(151.255 136.4)">
    <ellipse id="Ellipse_136" data-name="Ellipse 136" cx="14.039" cy="13.965" rx="14.039" ry="13.965" transform="translate(134.608 62.639)" fill="#b2e8d4"/>
    <line id="Line_4" data-name="Line 4" y1="25.331" x2="0.115" transform="translate(148.519 76.527)" fill="#3f3d56" stroke="#52b993" stroke-width="2"/>
    <ellipse id="Ellipse_137" data-name="Ellipse 137" cx="3.601" cy="3.582" rx="3.601" ry="3.582" transform="translate(145.033 72.945)" fill="#cfffc1"/>
    <path id="Path_38325" data-name="Path 38325" d="M494.35,482.145s-.465-11.009-11.017-9.777" transform="translate(-345.786 -390.006)" fill="#0f8e5f"/>
    <ellipse id="Ellipse_138" data-name="Ellipse 138" cx="14.039" cy="13.965" rx="14.039" ry="13.965" transform="translate(75.798 34.602)" fill="#b2e8d4"/>
    <line id="Line_5" data-name="Line 5" y1="51.57" x2="0.808" transform="translate(89.042 48.551)" fill="#3f3d56" stroke="#52b993" stroke-width="2"/>
    <ellipse id="Ellipse_139" data-name="Ellipse 139" cx="3.601" cy="3.582" rx="3.601" ry="3.582" transform="translate(86.249 44.969)" fill="#cfffc1"/>
    <path id="Path_38326" data-name="Path 38326" d="M237.825,354.729s-.342-11.013-10.907-9.9" transform="translate(-148.203 -291.591)" fill="#0f8e5f"/>
    <path id="Path_38327" data-name="Path 38327" d="M236.022,470.586s2.646-21.127-10.712-22.358" transform="translate(-146.965 -371.45)" fill="none" stroke="#52b993" stroke-width="2"/>
    <ellipse id="Ellipse_140" data-name="Ellipse 140" cx="3.601" cy="3.582" rx="3.601" ry="3.582" transform="translate(74.745 73.196)" fill="#cfffc1"/>
    <ellipse id="Ellipse_141" data-name="Ellipse 141" cx="14.039" cy="13.965" rx="14.039" ry="13.965" transform="translate(105.988 3.6)" fill="#b2e8d4"/>
    <line id="Line_6" data-name="Line 6" y1="84.494" transform="translate(120.036 17.616)" fill="#3f3d56" stroke="#52b993" stroke-width="2"/>
    <ellipse id="Ellipse_142" data-name="Ellipse 142" cx="3.601" cy="3.582" rx="3.601" ry="3.582" transform="translate(116.435 13.993)" fill="#cfffc1"/>
    <ellipse id="Ellipse_143" data-name="Ellipse 143" cx="3.601" cy="3.582" rx="3.601" ry="3.582" transform="translate(105.374 75.125)" fill="#cfffc1"/>
    <path id="Path_38328" data-name="Path 38328" d="M369.866,235.765s-.514-11.007-11.061-9.727" transform="translate(-249.83 -199.891)" fill="#0f8e5f"/>
    <path id="Path_38329" data-name="Path 38329" d="M369.866,372.477s-.514-11.007-11.061-9.727" transform="translate(-249.83 -305.401)" fill="#0f8e5f"/>
    <path id="Path_38330" data-name="Path 38330" d="M369.866,479.1S372.181,457.7,358.8,456.68" transform="translate(-249.83 -377.973)" fill="none" stroke="#52b993" stroke-width="2"/>
    <ellipse id="Ellipse_144" data-name="Ellipse 144" cx="3.601" cy="3.582" rx="3.601" ry="3.582" transform="translate(127.716 41.523)" fill="#cfffc1"/>
    <path id="Path_38331" data-name="Path 38331" d="M407.461,330.729s-2.315-20.253,11.061-21.276" transform="translate(-287.204 -264.347)" fill="none" stroke="#52b993" stroke-width="2"/>
    <path id="Path_38336" data-name="Path 38336" d="M258.382,591.278A44.4,44.4,0,0,0,302.894,547H213.871A44.4,44.4,0,0,0,258.382,591.278Z" transform="translate(-138.15 -447.678)" fill="#c37f00"/>
  </g>
</svg>
