<svg xmlns="http://www.w3.org/2000/svg" width="24" height="24" viewBox="0 0 24 24">
  <g id="Calendar_Check" data-name="Calendar Check" transform="translate(-62 -644)">
    <rect id="Rectangle_6711" data-name="Rectangle 6711" width="24" height="24" transform="translate(62 644)" fill="#296df6" opacity="0"/>
    <path id="Path_37975" data-name="Path 37975" d="M17.75,3A3.25,3.25,0,0,1,21,6.25v5.772a6.471,6.471,0,0,0-1.5-.708V8.5H4.5v9.25A1.75,1.75,0,0,0,6.25,19.5h5.064a6.471,6.471,0,0,0,.708,1.5H6.25A3.25,3.25,0,0,1,3,17.75V6.25A3.25,3.25,0,0,1,6.25,3Zm0,1.5H6.25A1.75,1.75,0,0,0,4.5,6.25V7h15V6.25A1.75,1.75,0,0,0,17.75,4.5ZM23,17.5A5.5,5.5,0,1,1,17.5,12,5.5,5.5,0,0,1,23,17.5Zm-2.146-2.354a.5.5,0,0,0-.707,0L16.5,18.793l-1.646-1.646a.5.5,0,0,0-.707.707l2,2a.5.5,0,0,0,.707,0l4-4A.5.5,0,0,0,20.854,15.146Z" transform="translate(61 643)" fill="#296df6"/>
  </g>
</svg>
