<svg xmlns="http://www.w3.org/2000/svg" width="24" height="24" viewBox="0 0 24 24">
  <g id="Diet_Plan" data-name="Diet Plan" transform="translate(-62 -644)">
    <rect id="Rectangle_6711" data-name="Rectangle 6711" width="24" height="24" transform="translate(62 644)" fill="#296df6" opacity="0"/>
    <path id="Path_37974" data-name="Path 37974" d="M8.4,11.236A.75.75,0,0,0,8.1,9.765a2.705,2.705,0,0,0-1.949,1.659,4.744,4.744,0,0,0-.132,3.008.75.75,0,1,0,1.455-.364,3.266,3.266,0,0,1,.056-2.054A1.211,1.211,0,0,1,8.4,11.236ZM5.471,3.42A5.181,5.181,0,0,0,6.889,7.3a5.119,5.119,0,0,0-3.66,4.216,10.46,10.46,0,0,0,1.373,6.8l.351.59a.758.758,0,0,0,.042.063L6.41,20.874a3.462,3.462,0,0,0,5.275.335.436.436,0,0,1,.629,0,3.462,3.462,0,0,0,5.275-.335l1.416-1.907a.744.744,0,0,0,.042-.063l.351-.59a10.459,10.459,0,0,0,1.373-6.8,5.119,5.119,0,0,0-6.109-4.306l-1.9.394h0a8.705,8.705,0,0,1,.391-2.339,2.421,2.421,0,0,1,1.139-1.576.75.75,0,1,0-.577-1.385,3.86,3.86,0,0,0-1.986,2.486q-.024.071-.046.142a5.2,5.2,0,0,0-4.924-2.8A1.367,1.367,0,0,0,5.471,3.42Zm1.492.207a3.692,3.692,0,0,1,3.792,3.792,3.719,3.719,0,0,1-.543-.025L9.6,7.266A3.7,3.7,0,0,1,6.964,3.627ZM9.033,8.681l.2.042a5.2,5.2,0,0,0,.73.151l.97.2a5.25,5.25,0,0,0,2.13,0l1.9-.394a3.619,3.619,0,0,1,4.319,3.044,8.959,8.959,0,0,1-1.176,5.821l-.331.557L16.386,19.98a1.962,1.962,0,0,1-2.99.19,1.937,1.937,0,0,0-2.792,0,1.962,1.962,0,0,1-2.99-.19L6.221,18.1l-.331-.557a8.96,8.96,0,0,1-1.176-5.821A3.619,3.619,0,0,1,9.033,8.681Z" transform="translate(61.872 643.873)" fill="#296df6"/>
  </g>
</svg>
