<svg xmlns="http://www.w3.org/2000/svg" width="24" height="24" viewBox="0 0 24 24">
  <g id="Doctors_Nearby" data-name="Doctors Nearby" transform="translate(-62 -644)">
    <rect id="Rectangle_6711" data-name="Rectangle 6711" width="24" height="24" transform="translate(62 644)" fill="#296df6" opacity="0"/>
    <path id="Path_37976" data-name="Path 37976" d="M2.592,2.5A.592.592,0,0,0,2,3.092V6.346A3.533,3.533,0,0,0,3.012,8.913a3.445,3.445,0,0,0,1.946.942v.486a3.7,3.7,0,0,0,7.4,0V9.952a1.923,1.923,0,1,0-1.183,0v.389a2.515,2.515,0,0,1-5.03,0V9.854a3.446,3.446,0,0,0,1.946-.942A3.533,3.533,0,0,0,9.1,6.346V3.092A.592.592,0,0,0,8.509,2.5H7.327a.592.592,0,0,0,0,1.183h.59V6.346a2.354,2.354,0,0,1-.66,1.724,2.378,2.378,0,0,1-1.707.643A2.378,2.378,0,0,1,3.843,8.07a2.354,2.354,0,0,1-.66-1.724V3.683h.592a.592.592,0,0,0,0-1.183Zm9.172,4.882a.74.74,0,1,1-.74.74A.74.74,0,0,1,11.763,7.382Z" transform="translate(67 646.5)" fill="#296df6"/>
    <path id="Path_37977" data-name="Path 37977" d="M23.765,19.647l-5.638,5.985a2.235,2.235,0,0,1-3.254,0L9.235,19.647h.021l-.009-.011-.012-.014a9.506,9.506,0,1,1,14.529,0l-.012.014-.009.011Zm-1.086-.9a8.1,8.1,0,1,0-12.357,0l.172.2,5.4,5.729a.838.838,0,0,0,1.22,0l5.4-5.729Z" transform="translate(58 640.632)" fill="#296df6"/>
  </g>
</svg>
