<svg xmlns="http://www.w3.org/2000/svg" width="24" height="24" viewBox="0 0 24 24">
  <g id="reminders" transform="translate(-62 -644)">
    <rect id="Rectangle_6711" data-name="Rectangle 6711" width="24" height="24" transform="translate(62 644)" fill="#296df6" opacity="0"/>
    <g id="Group_16418" data-name="Group 16418">
      <path id="Path_37927" data-name="Path 37927" d="M21.75,3A3.25,3.25,0,0,1,25,6.25V14.5a7.486,7.486,0,0,0-1.5-.875V9.5H4.5V21.75A1.75,1.75,0,0,0,6.25,23.5h7.374A7.486,7.486,0,0,0,14.5,25H6.25A3.25,3.25,0,0,1,3,21.75V6.25A3.25,3.25,0,0,1,6.25,3Zm0,1.5H6.25A1.75,1.75,0,0,0,4.5,6.25V8h19V6.25A1.75,1.75,0,0,0,21.75,4.5ZM27,20.5A6.5,6.5,0,1,1,20.5,14,6.5,6.5,0,0,1,27,20.5Z" transform="translate(59 641)" fill="#296df6"/>
      <path id="Path_37928" data-name="Path 37928" d="M6.946,1.183a.308.308,0,0,1,.406-.156A4.952,4.952,0,0,1,9.336,2.89a4.8,4.8,0,0,1,.619,1.828A5.194,5.194,0,0,1,10,5.351c0,.08,0,.145,0,.192,0,.024,0,.043,0,.057v.013a.307.307,0,0,1-.615,0c0-.006,0-.016,0-.031a4.4,4.4,0,0,0-.573-2.376,4.436,4.436,0,0,0-1.1-1.23,4.179,4.179,0,0,0-.431-.292c-.1-.062-.169-.092-.174-.094A.307.307,0,0,1,6.946,1.183Zm.032,1.484A.307.307,0,0,1,7.407,2.6a2.5,2.5,0,0,1,.32.252,2.775,2.775,0,0,1,.567.724,2.831,2.831,0,0,1,.294.857,2.615,2.615,0,0,1,.033.285c0,.036,0,.066,0,.088s0,.039,0,.039a.307.307,0,0,1-.615,0v0a2.139,2.139,0,0,0-.258-.976A2.171,2.171,0,0,0,7.059,3.1L7.047,3.1A.307.307,0,0,1,6.978,2.667ZM2.33,6.969A2.46,2.46,0,0,1,6.59,4.51l.5.873,1.172.852a.307.307,0,0,1-.027.515l-1.556.9h0L5,8.622v0l-1.556.9a.308.308,0,0,1-.46-.234L2.834,7.843ZM7.073,8.136,5.23,9.2A1.076,1.076,0,0,0,7.073,8.136Z" transform="translate(74 656)" fill="#fff"/>
    </g>
  </g>
</svg>
