<svg xmlns="http://www.w3.org/2000/svg" width="24" height="24" viewBox="0 0 24 24">
  <g id="Vision_Screening" data-name="Vision Screening" transform="translate(-62 -644)">
    <rect id="Rectangle_6711" data-name="Rectangle 6711" width="24" height="24" transform="translate(62 644)" fill="#296df6" opacity="0"/>
    <path id="Path_37972" data-name="Path 37972" d="M11,4.333a1.333,1.333,0,1,0-2.667,0V7.667a.667.667,0,0,1-.667.667H4.333a1.333,1.333,0,1,0,0,2.667H7.667A3.333,3.333,0,0,0,11,7.667Zm0,21.333a1.333,1.333,0,0,1-2.667,0V22.333a.667.667,0,0,0-.667-.667H4.333a1.333,1.333,0,0,1,0-2.667H7.667A3.333,3.333,0,0,1,11,22.333ZM20.333,3A1.333,1.333,0,0,0,19,4.333V7.667A3.333,3.333,0,0,0,22.333,11h3.333a1.333,1.333,0,0,0,0-2.667H22.333a.667.667,0,0,1-.667-.667V4.333A1.333,1.333,0,0,0,20.333,3ZM19,25.667a1.333,1.333,0,0,0,2.667,0V22.333a.667.667,0,0,1,.667-.667h3.333a1.333,1.333,0,0,0,0-2.667H22.333A3.333,3.333,0,0,0,19,22.333Z" transform="translate(59 641)" fill="#296df6"/>
    <path id="Path_37973" data-name="Path 37973" d="M8,9A1,1,0,1,0,7,8,1,1,0,0,0,8,9ZM4.5,8A3.5,3.5,0,1,1,8,11.5,3.5,3.5,0,0,1,4.5,8ZM8,6a2,2,0,1,0,2,2A2,2,0,0,0,8,6ZM2,8a6,6,0,1,1,6,6A6,6,0,0,1,2,8ZM8,3.5A4.5,4.5,0,1,0,12.5,8,4.5,4.5,0,0,0,8,3.5Z" transform="translate(66 648)" fill="#296df6"/>
  </g>
</svg>
