<svg xmlns="http://www.w3.org/2000/svg" width="18" height="18" viewBox="0 0 18 18">
  <path id="appointments_default" data-name="appointments default" d="M16.05,11.1a4.95,4.95,0,1,1-4.95,4.95A4.95,4.95,0,0,1,16.05,11.1ZM16.275,3A2.925,2.925,0,0,1,19.2,5.925v5.2a5.822,5.822,0,0,0-1.351-.638V7.95H4.35v8.325A1.575,1.575,0,0,0,5.925,17.85h4.557A5.822,5.822,0,0,0,11.12,19.2h-5.2A2.925,2.925,0,0,1,3,16.275V5.925A2.925,2.925,0,0,1,5.925,3Zm-.225,9.9-.081.007a.45.45,0,0,0-.362.362l-.007.081V15.6H13.35l-.081.007a.45.45,0,0,0-.362.362l-.007.081.007.081a.45.45,0,0,0,.362.362l.081.007H15.6v2.25l.007.081a.45.45,0,0,0,.362.362l.081.007.081-.007a.45.45,0,0,0,.362-.362l.007-.081V16.5h2.25l.081-.007a.45.45,0,0,0,.362-.362l.007-.081-.007-.081a.45.45,0,0,0-.362-.362L18.75,15.6H16.5V13.35l-.007-.081a.45.45,0,0,0-.362-.362Zm.225-8.55H5.925A1.575,1.575,0,0,0,4.35,5.925V6.6h13.5V5.925A1.575,1.575,0,0,0,16.275,4.35Z" transform="translate(-3 -3)" fill="#333"/>
</svg>
