<svg xmlns="http://www.w3.org/2000/svg" width="19.501" height="16.5" viewBox="0 0 19.501 16.5">
  <path id="Assessment_default" data-name="Assessment default" d="M9.354,12.5a2.769,2.769,0,0,1,0-1.5h-7a3.412,3.412,0,0,0-.1.75,3.412,3.412,0,0,0,.1.75ZM12,18.5H6.678A9.649,9.649,0,0,0,12,20h0a9.515,9.515,0,0,0,7.612-3.556,10.977,10.977,0,0,0,1.624-2.707,5.878,5.878,0,0,0,.514-1.987,5.878,5.878,0,0,0-.514-1.987,10.978,10.978,0,0,0-1.624-2.707A9.515,9.515,0,0,0,12,3.5h0A9.651,9.651,0,0,0,6.678,5H12a8.017,8.017,0,0,1,6.451,3.006,9.479,9.479,0,0,1,1.4,2.332,4.7,4.7,0,0,1,.4,1.411,4.7,4.7,0,0,1-.4,1.411,9.478,9.478,0,0,1-1.4,2.332A8.017,8.017,0,0,1,12,18.5ZM5.385,6a10.214,10.214,0,0,0-1,1.056q-.181.221-.344.444H12V6ZM12,8.5H3.391a10.8,10.8,0,0,0-.626,1.263q-.05.119-.095.237H9.879a2.75,2.75,0,1,1,0,3.5H2.67q.045.117.095.237A10.8,10.8,0,0,0,3.391,15H12v1a4.25,4.25,0,1,0,0-8.5ZM12,16H4.044q.163.223.344.444a10.209,10.209,0,0,0,1,1.056H12Z" transform="translate(-2.25 -3.5)" fill="#333"/>
</svg>
