<svg xmlns="http://www.w3.org/2000/svg" width="20" height="20" viewBox="0 0 20 20">
  <g id="language_selection" data-name="language selection" transform="translate(-22 -147)">
    <path id="Path_38553" data-name="Path 38553" d="M8.778,6.327l.045.091,5.134,12.687a.649.649,0,0,1-.385.85.691.691,0,0,1-.841-.291l-.039-.081-1.323-3.27H4.825l-.087-.005L3.31,19.6a.688.688,0,0,1-.889.351.651.651,0,0,1-.394-.775l.03-.084L7.564,6.4A.69.69,0,0,1,8.778,6.327ZM8.289,8.4,5.369,15h5.642Z" transform="translate(19.996 147)" fill="#296df6"/>
    <path id="letter-hindi-a" d="M13.518,3H10.444a.611.611,0,1,0,0,1.222h.922V7.889H8.322a3.014,3.014,0,0,0,.631-1.833A3.078,3.078,0,0,0,3.216,4.528a.609.609,0,0,0,.225.835.617.617,0,0,0,.84-.223,1.85,1.85,0,0,1,2.229-.806,1.832,1.832,0,0,1-.631,3.556.611.611,0,1,0,0,1.222,1.835,1.835,0,1,1-1.6,2.75.617.617,0,0,0-.84-.223.609.609,0,0,0-.225.835,3.078,3.078,0,0,0,5.737-1.528,3.014,3.014,0,0,0-.631-1.833h3.044v4.278a.615.615,0,0,0,1.23,0V4.222h.922a.611.611,0,1,0,0-1.222Z" transform="translate(27.867 144)" fill="#296df6"/>
  </g>
</svg>
