<svg xmlns="http://www.w3.org/2000/svg" width="15" height="16" viewBox="0 0 15 16">
  <path id="notificatoin_default" data-name="notificatoin default" d="M7.5,0a6.257,6.257,0,0,1,6.414,5.528l.014.229,0,.232V9.7L14.923,12a1,1,0,0,1,.057.172l.016.089.009.136a1.041,1.041,0,0,1-.8.994l-.125.028-.144.01H10.181l-.005.167A2.64,2.64,0,0,1,7.5,16a2.639,2.639,0,0,1-2.674-2.411l-.006-.166H1.07a1.108,1.108,0,0,1-.279-.036l-.133-.044a1.027,1.027,0,0,1-.646-1.086l.023-.132L.081,12,1.07,9.7V5.98l0-.232A6.227,6.227,0,0,1,7.5,0Zm1.61,13.423H5.894l.008.146a1.579,1.579,0,0,0,1.445,1.391l.155.007a1.586,1.586,0,0,0,1.6-1.4ZM7.5,1.032A5.2,5.2,0,0,0,2.161,5.559l-.014.219,0,.212V9.806L2.1,10,1.07,12.392l12.816,0,.049,0L12.9,10l-.041-.2V6l0-.211A5.181,5.181,0,0,0,7.5,1.032Z" transform="translate(-0.006)" fill="#333"/>
</svg>
