<svg id="accessability" xmlns="http://www.w3.org/2000/svg" width="40" height="40" viewBox="0 0 40 40">
  <rect id="Rectangle_4" data-name="Rectangle 4" width="40" height="40" fill="#333" opacity="0"/>
  <path id="Path_38500" data-name="Path 38500" d="M10.212,17.11,15.043,3.5a.751.751,0,0,1,1.365-.11l.049.111,5.5,15.5a.75.75,0,0,1-1.373.6l-.04-.094-1.6-4.5H12.552l-1.579,4.452a.75.75,0,0,1-.355.452l-.092.044a.75.75,0,0,1-.929-.33l-.044-.092L8.556,17H4.443l-1,2.521a.75.75,0,0,1-.876.453l-.1-.031a.75.75,0,0,1-.453-.876l.031-.1,3.754-9.5a.751.751,0,0,1,1.345-.1l.05.105,3.01,7.635L15.043,3.5ZM6.5,11.792,5.036,15.5H7.964Zm9.247-5.8L13.084,13.5h5.33Z" transform="translate(8 8)" fill="#333"/>
</svg>
