<svg xmlns="http://www.w3.org/2000/svg" width="24" height="24" viewBox="0 0 24 24">
  <g id="Care_Clinic" data-name="Care Clinic" transform="translate(-62 -644)">
    <rect id="Rectangle_6711" data-name="Rectangle 6711" width="24" height="24" transform="translate(62 644)" fill="#296df6" opacity="0"/>
    <path id="Path_37993" data-name="Path 37993" d="M19.745,4A2.25,2.25,0,0,1,22,6.25v11.5A2.25,2.25,0,0,1,19.745,20H4.25A2.25,2.25,0,0,1,2,17.755V6.25A2.25,2.25,0,0,1,4.25,4Zm0,1.5H4.25a.75.75,0,0,0-.75.75v11.5a.75.75,0,0,0,.75.75H7V15.75a1.75,1.75,0,0,1,1.606-1.744L8.75,14h6.495a1.75,1.75,0,0,1,1.744,1.606l.006.144V18.5h2.751a.75.75,0,0,0,.75-.75V6.25A.75.75,0,0,0,19.745,5.5Zm-4.5,10H8.75a.25.25,0,0,0-.243.193L8.5,15.75V18.5h7V15.75a.25.25,0,0,0-.193-.243ZM12,7a3,3,0,1,1-3,3A3,3,0,0,1,12,7Zm0,1.5A1.5,1.5,0,1,0,13.5,10,1.5,1.5,0,0,0,12,8.5Z" transform="translate(62 644)" fill="#296df6"/>
  </g>
</svg>
