<svg xmlns="http://www.w3.org/2000/svg" width="24" height="24" viewBox="0 0 24 24">
  <g id="Care_Connect" data-name="Care Connect" transform="translate(-62 -644)">
    <rect id="Rectangle_6711" data-name="Rectangle 6711" width="24" height="24" transform="translate(62 644)" fill="#296df6" opacity="0"/>
    <path id="Path_37981" data-name="Path 37981" d="M2.75,2.5A.75.75,0,0,0,2,3.25V9a6,6,0,0,0,5.25,5.954v.8a6,6,0,0,0,12,0v-.845a3,3,0,1,0-1.5,0v.845a4.5,4.5,0,0,1-9,0v-.8A6,6,0,0,0,14,9V3.25a.75.75,0,0,0-.75-.75h-2.5a.75.75,0,0,0,0,1.5H12.5V9a4.5,4.5,0,1,1-9,0V4H5.25a.75.75,0,0,0,0-1.5Zm15.75,8A1.5,1.5,0,1,1,17,12,1.5,1.5,0,0,1,18.5,10.5Z" transform="translate(62 643.5)" fill="#296df6"/>
  </g>
</svg>
