<svg xmlns="http://www.w3.org/2000/svg" width="24" height="24" viewBox="0 0 24 24">
  <g id="Cataract_Eyecare" data-name="Cataract Eyecare" transform="translate(-46 -644)">
    <rect id="Rectangle_6713" data-name="Rectangle 6713" width="24" height="24" transform="translate(46 644)" fill="#296df6" opacity="0"/>
    <path id="Path_37971" data-name="Path 37971" d="M21.03,2.97a3.578,3.578,0,0,0-5.061,0L14,4.94l-.013-.013a1.75,1.75,0,0,0-2.475,0l-.586.586a1.75,1.75,0,0,0,0,2.475L10.939,8l-6.78,6.78A2.25,2.25,0,0,0,3.5,16.372v.688L2.22,19.406a1.75,1.75,0,0,0,2.374,2.374L6.941,20.5h.687a2.25,2.25,0,0,0,1.591-.659L16,13.061l.012.012a1.75,1.75,0,0,0,2.475,0l.586-.586a1.75,1.75,0,0,0,0-2.475L19.061,10l1.97-1.97A3.578,3.578,0,0,0,21.03,2.97ZM12,9.061,14.939,12l-6.78,6.78a.75.75,0,0,1-.53.22H6.75a.75.75,0,0,0-.359.092L3.876,20.464a.234.234,0,0,1-.159.033.279.279,0,0,1-.213-.213.234.234,0,0,1,.033-.159L4.909,17.61A.75.75,0,0,0,5,17.25v-.879a.75.75,0,0,1,.22-.53Z" transform="translate(46.003 644.078)" fill="#296df6"/>
  </g>
</svg>
