<svg xmlns="http://www.w3.org/2000/svg" width="24" height="24" viewBox="0 0 24 24">
  <g id="Corneal_Harvesting" data-name="Corneal Harvesting" transform="translate(-62 -644)">
    <rect id="Rectangle_6711" data-name="Rectangle 6711" width="24" height="24" transform="translate(62 644)" fill="#296df6" opacity="0"/>
    <g id="Group_16451" data-name="Group 16451" transform="translate(5.227 6.227)">
      <path id="Path_37987" data-name="Path 37987" d="M17.995,13a4.995,4.995,0,1,0,4.995,4.995A4.993,4.993,0,0,0,17.995,13Zm0,9.464a4.469,4.469,0,1,1,4.469-4.469A4.465,4.465,0,0,1,17.995,22.464Z" transform="translate(53.892 635.891)" fill="#296df6"/>
      <path id="Path_37988" data-name="Path 37988" d="M30.83,27a3.83,3.83,0,1,0,3.83,3.83A3.793,3.793,0,0,0,30.83,27Zm-2.3,3.83Z" transform="translate(41.056 623.057)" fill="#296df6"/>
      <path id="Path_37989" data-name="Path 37989" d="M9.887,2a7.887,7.887,0,1,0,7.887,7.887A7.876,7.876,0,0,0,9.887,2Zm0,14.669a6.783,6.783,0,1,1,6.783-6.783A6.765,6.765,0,0,1,9.887,16.669Z" transform="translate(62 644)" fill="#296df6"/>
    </g>
    <path id="Path_37991" data-name="Path 37991" d="M18.25,3.25a.75.75,0,0,1,.743.648L19,4V20a.75.75,0,0,1-1.493.1L17.5,20V15H15.25a.75.75,0,0,1-.743-.648l-.007-.1V7A3.75,3.75,0,0,1,18.25,3.25ZM17.5,13.5V4.878a2.252,2.252,0,0,0-1.494,1.951L16,7v6.5h1.5v0Z" transform="translate(74.519 672.126) rotate(-139)" fill="#296df6"/>
  </g>
</svg>
