<svg xmlns="http://www.w3.org/2000/svg" width="18" height="18" viewBox="0 0 18 18">
  <path id="calendar" d="M17.75,3A3.25,3.25,0,0,1,21,6.25v11.5A3.25,3.25,0,0,1,17.75,21H6.25A3.25,3.25,0,0,1,3,17.75V6.25A3.25,3.25,0,0,1,6.25,3ZM19.5,8.5H4.5v9.25A1.75,1.75,0,0,0,6.25,19.5h11.5a1.75,1.75,0,0,0,1.75-1.75Zm-11.75,6A1.25,1.25,0,1,1,6.5,15.75,1.25,1.25,0,0,1,7.75,14.5Zm4.25,0a1.25,1.25,0,1,1-1.25,1.25A1.25,1.25,0,0,1,12,14.5Zm-4.25-4A1.25,1.25,0,1,1,6.5,11.75,1.25,1.25,0,0,1,7.75,10.5Zm4.25,0a1.25,1.25,0,1,1-1.25,1.25A1.25,1.25,0,0,1,12,10.5Zm4.25,0A1.25,1.25,0,1,1,15,11.75,1.25,1.25,0,0,1,16.25,10.5Zm1.5-6H6.25A1.75,1.75,0,0,0,4.5,6.25V7h15V6.25A1.75,1.75,0,0,0,17.75,4.5Z" transform="translate(-3 -3)" fill="#fff"/>
</svg>
