<svg xmlns="http://www.w3.org/2000/svg" width="16" height="20" viewBox="0 0 16 20">
  <path id="privacy_policy" data-name="privacy policy" d="M12,2a4,4,0,0,1,4,4V8h1.75A2.25,2.25,0,0,1,20,10.25v9.5A2.25,2.25,0,0,1,17.75,22H6.25A2.25,2.25,0,0,1,4,19.75v-9.5A2.25,2.25,0,0,1,6.25,8H8V6A4,4,0,0,1,12,2Zm5.75,7.5H6.25a.75.75,0,0,0-.75.75v9.5a.75.75,0,0,0,.75.75h11.5a.75.75,0,0,0,.75-.75v-9.5A.75.75,0,0,0,17.75,9.5ZM12,13.5A1.5,1.5,0,1,1,10.5,15,1.5,1.5,0,0,1,12,13.5Zm0-10A2.5,2.5,0,0,0,9.5,6V8h5V6A2.5,2.5,0,0,0,12,3.5Z" transform="translate(-4 -2)" fill="#fff"/>
</svg>
