<svg xmlns="http://www.w3.org/2000/svg" width="17.995" height="20" viewBox="0 0 17.995 20">
  <path id="accessibility" d="M10.5,5a1.5,1.5,0,0,0,.968,1.4,2.25,2.25,0,0,0,1.063,0A1.5,1.5,0,1,0,10.5,5Zm-1.474.4a3,3,0,1,1,5.947,0L17.85,4.178a2.266,2.266,0,0,1,2.961,1.184,2.239,2.239,0,0,1-1.181,2.954L16,9.856v3.717l1.874,5.444a2.25,2.25,0,0,1-4.255,1.465L12,15.771l-1.622,4.71a2.25,2.25,0,0,1-4.255-1.465L8,13.559v-3.7L4.37,8.316A2.239,2.239,0,0,1,3.188,5.362,2.266,2.266,0,0,1,6.15,4.178Zm2,2.438a3.751,3.751,0,0,1-.487-.168L5.564,5.559a.766.766,0,0,0-1,.4.739.739,0,0,0,.391.977L8.741,8.542A1.25,1.25,0,0,1,9.5,9.693V13.6a1.249,1.249,0,0,1-.068.407L7.542,19.5a.75.75,0,0,0,1.418.488l2.108-6.123a.985.985,0,0,1,1.863,0l2.109,6.124a.75.75,0,1,0,1.418-.488l-1.888-5.483a1.25,1.25,0,0,1-.068-.407V9.691a1.25,1.25,0,0,1,.762-1.151l3.78-1.6a.739.739,0,0,0,.391-.977.766.766,0,0,0-1-.4l-4.971,2.11a3.753,3.753,0,0,1-.488.169,3.015,3.015,0,0,1-1.955,0Z" transform="translate(-3.003 -2)" fill="#fff"/>
</svg>
