<svg xmlns="http://www.w3.org/2000/svg" width="17.19" height="19" viewBox="0 0 17.19 19">
  <g id="terms_of_use" data-name="terms of use" transform="translate(-1 -2)">
    <path id="Path_38041" data-name="Path 38041" d="M17.68,18.2a.462.462,0,0,1-.472.45H11.8A5.882,5.882,0,0,1,10.784,20h6.425A1.846,1.846,0,0,0,19.1,18.2V9.045a1.76,1.76,0,0,0-.553-1.273l-5.5-5.245A.459.459,0,0,0,13,2.491l-.034-.026a1.939,1.939,0,0,0-.207-.162.625.625,0,0,0-.076-.04l-.045-.022-.047-.026a1.487,1.487,0,0,0-.157-.079,1.942,1.942,0,0,0-.589-.124l-.055-.006A.6.6,0,0,0,11.71,2H5.887A1.846,1.846,0,0,0,4,3.8v6.748a6.315,6.315,0,0,1,1.415-.38V3.8a.462.462,0,0,1,.472-.45h5.661V7.4a1.846,1.846,0,0,0,1.887,1.8H17.68ZM12.963,4.359,16.622,7.85H13.435a.462.462,0,0,1-.472-.45Z" transform="translate(-0.905)" fill="#fff"/>
    <path id="Path_38042" data-name="Path 38042" d="M12,17.5A5.5,5.5,0,1,1,6.5,12,5.5,5.5,0,0,1,12,17.5ZM9.854,15.146a.5.5,0,0,0-.707,0L5.5,18.793,3.854,17.146a.5.5,0,0,0-.707.707l2,2a.5.5,0,0,0,.707,0l4-4A.5.5,0,0,0,9.854,15.146Z" transform="translate(0 -2)" fill="#fff"/>
  </g>
</svg>
