<svg xmlns="http://www.w3.org/2000/svg" width="14" height="19.5" viewBox="0 0 14 19.5">
  <path id="help_and_support" data-name="help and support" d="M12,18.5a.75.75,0,1,0,.75.75A.75.75,0,0,0,12,18.5ZM17.5,10V9a5.5,5.5,0,0,0-11,0v1H9a1,1,0,0,1,1,1v4a1,1,0,0,1-1,1H6.5v.25a2.25,2.25,0,0,0,2.1,2.245l.154.005H9.878a2.25,2.25,0,1,1,0,1.5H8.75a3.75,3.75,0,0,1-3.745-3.551L5,16.25V9A7,7,0,0,1,19,9v5a2,2,0,0,1-1.851,1.995L17,16H15a1,1,0,0,1-.993-.883L14,15V11a1,1,0,0,1,.883-.993L15,10Zm-9,1.5h-2v3h2Zm9,0h-2v3H17a.5.5,0,0,0,.492-.41L17.5,14Z" transform="translate(-5 -2)" fill="#fff"/>
</svg>
