<svg xmlns="http://www.w3.org/2000/svg" width="16.001" height="20" viewBox="0 0 16.001 20">
  <g id="assessments" transform="translate(-4 -2)">
    <path id="Path_38049" data-name="Path 38049" d="M4,4.25A2.25,2.25,0,0,1,6.25,2h4.381a2.25,2.25,0,0,1,1.591.659l4.619,4.619A2.25,2.25,0,0,1,17.5,8.869V17.25a2.25,2.25,0,0,1-2.25,2.25h-9A2.25,2.25,0,0,1,4,17.25ZM6.25,3.5a.75.75,0,0,0-.75.75v13a.75.75,0,0,0,.75.75h9a.75.75,0,0,0,.75-.75V9H12.754a2.25,2.25,0,0,1-2.25-2.25V3.5ZM12,4.562V6.748a.75.75,0,0,0,.75.75h2.185Z" fill="#fff"/>
    <path id="Path_38050" data-name="Path 38050" d="M6.629,20.5A2.251,2.251,0,0,0,8.751,22h6.5A4.75,4.75,0,0,0,20,17.25V11.369a2.25,2.25,0,0,0-.659-1.591L18.5,8.937V17.25a3.25,3.25,0,0,1-3.25,3.25Z" fill="#fff"/>
  </g>
</svg>
