<svg xmlns="http://www.w3.org/2000/svg" width="24.001" height="24" viewBox="0 0 24.001 24">
  <g id="Eye_Exercise_" data-name="Eye Exercise " transform="translate(-61.999 -644)">
    <rect id="Rectangle_6711" data-name="Rectangle 6711" width="24" height="24" transform="translate(62 644)" fill="#296df6" opacity="0"/>
    <path id="Subtraction_2" data-name="Subtraction 2" d="M-36.9-16442.182v0a4.923,4.923,0,0,1-3.034-4.555,4.944,4.944,0,0,1,4.935-4.939,4.942,4.942,0,0,1,4.777,3.68,6.983,6.983,0,0,0-1.842.307,3.074,3.074,0,0,0-2.935-2.131,3.088,3.088,0,0,0-3.085,3.084,3.107,3.107,0,0,0,1.741,2.777,6.962,6.962,0,0,0-.555,1.777Zm-9.174-3.326a1.115,1.115,0,0,1-.226-.025.931.931,0,0,1-.673-1.125,12.39,12.39,0,0,1,4.362-6.715A12.394,12.394,0,0,1-35-16456a12.385,12.385,0,0,1,7.611,2.625,12.367,12.367,0,0,1,4.362,6.707.93.93,0,0,1-.673,1.125.928.928,0,0,1-.228.029.924.924,0,0,1-.9-.7,10.516,10.516,0,0,0-3.707-5.7,10.539,10.539,0,0,0-6.47-2.23,10.538,10.538,0,0,0-6.47,2.23,10.513,10.513,0,0,0-3.707,5.7A.925.925,0,0,1-46.074-16445.508Z" transform="translate(109 17101)" fill="#296df6"/>
    <path id="Path_37935" data-name="Path 37935" d="M2,8a6,6,0,1,1,6,6A6,6,0,0,1,2,8ZM8,5a.5.5,0,0,0-.5.5v2h-2a.5.5,0,0,0,0,1h2v2a.5.5,0,0,0,1,0v-2h2a.5.5,0,0,0,0-1h-2v-2A.5.5,0,0,0,8,5Z" transform="translate(72 653)" fill="#296df6"/>
  </g>
</svg>
