<svg xmlns="http://www.w3.org/2000/svg" width="23.997" height="24" viewBox="0 0 23.997 24">
  <path id="eye_scan" data-name="eye scan" d="M3.789,18.376a.9.9,0,0,0-1.783,0L2,18.5v4.2L2,22.909A3.3,3.3,0,0,0,5.1,25.994L5.3,26H9.5l.122-.008a.9.9,0,0,0,0-1.783L9.5,24.2H5.3l-.153-.008A1.5,1.5,0,0,1,3.8,22.854L3.8,22.7V18.5Zm22.2,0a.9.9,0,0,0-1.792.122v4.2l-.008.153A1.5,1.5,0,0,1,22.695,24.2H18.5l-.122.008A.9.9,0,0,0,18.5,26h4.2l.2-.006a3.3,3.3,0,0,0,3.1-3.294V18.5ZM10.4,2.9A.9.9,0,0,0,9.5,2H5.3l-.2.006A3.3,3.3,0,0,0,2,5.3V9.5l.008.122A.9.9,0,0,0,3.8,9.5V5.3L3.8,5.146A1.5,1.5,0,0,1,5.3,3.8H9.5l.122-.008A.9.9,0,0,0,10.4,2.9Zm12.5-.894L22.695,2H18.5l-.122.008a.9.9,0,0,0,0,1.783L18.5,3.8h4.2l.153.008a1.5,1.5,0,0,1,1.339,1.339l.008.153V9.5l.008.122a.9.9,0,0,0,1.783,0l.008-.122V5.3l-.007-.209A3.3,3.3,0,0,0,22.9,2.006ZM9.8,15.8A4.2,4.2,0,1,1,14,20,4.2,4.2,0,0,1,9.8,15.8ZM7.052,13.691l-.01.025v0a.9.9,0,0,1-1.157.523c-.717-.269-.525-1.163-.523-1.169l.007-.018L5.391,13c.019-.046.046-.108.082-.185.071-.154.178-.367.325-.618a9.087,9.087,0,0,1,1.416-1.833A9.276,9.276,0,0,1,14,7.7a9.276,9.276,0,0,1,6.786,2.663A9.086,9.086,0,0,1,22.2,12.2c.147.252.253.464.325.618.036.077.063.14.082.185l.023.056.007.018,0,.006v0a.9.9,0,0,1-.527,1.158.91.91,0,0,1-1.158-.526l-.01-.025s-.028-.065-.053-.119c-.05-.109-.131-.271-.247-.469a7.287,7.287,0,0,0-1.134-1.467A7.482,7.482,0,0,0,14,9.5a7.481,7.481,0,0,0-5.513,2.136A7.285,7.285,0,0,0,7.352,13.1c-.116.2-.2.361-.247.469C7.08,13.626,7.063,13.666,7.052,13.691Z" transform="translate(-1.997 -2)" fill="#333"/>
</svg>
