<svg xmlns="http://www.w3.org/2000/svg" width="18" height="19.495" viewBox="0 0 18 19.495">
  <path id="home" d="M7.55.532a2.25,2.25,0,0,1,2.9,0L17.2,6.224a2.25,2.25,0,0,1,.8,1.72v9.8a1.75,1.75,0,0,1-1.75,1.75h-3.5A1.75,1.75,0,0,1,11,17.747v-5.5a.25.25,0,0,0-.25-.25H7.25a.25.25,0,0,0-.25.25v5.5A1.75,1.75,0,0,1,5.25,19.5H1.75A1.75,1.75,0,0,1,0,17.747v-9.8a2.25,2.25,0,0,1,.8-1.72ZM9.483,1.679a.75.75,0,0,0-.967,0L1.767,7.371a.75.75,0,0,0-.267.573v9.8a.25.25,0,0,0,.25.25h3.5a.25.25,0,0,0,.25-.25v-5.5A1.75,1.75,0,0,1,7.25,10.5h3.5a1.75,1.75,0,0,1,1.75,1.75v5.5a.25.25,0,0,0,.25.25h3.5a.25.25,0,0,0,.25-.25v-9.8a.75.75,0,0,0-.267-.573Z" transform="translate(0 -0.002)" fill="#296df6"/>
</svg>
