<svg xmlns="http://www.w3.org/2000/svg" width="24" height="24" viewBox="0 0 24 24">
  <g id="Hospitals_Nearby" data-name="Hospitals Nearby" transform="translate(-62 -644)">
    <rect id="Rectangle_6711" data-name="Rectangle 6711" width="24" height="24" transform="translate(62 644)" fill="#296df6" opacity="0"/>
    <path id="Path_37977" data-name="Path 37977" d="M23.765,19.647l-5.638,5.985a2.235,2.235,0,0,1-3.254,0L9.235,19.647h.021l-.009-.011-.012-.014a9.506,9.506,0,1,1,14.529,0l-.012.014-.009.011Zm-1.086-.9a8.1,8.1,0,1,0-12.357,0l.172.2,5.4,5.729a.838.838,0,0,0,1.22,0l5.4-5.729Z" transform="translate(57.5 640.632)" fill="#296df6"/>
    <path id="Path_37978" data-name="Path 37978" d="M5.312,2A1.312,1.312,0,0,0,4,3.312v8.743a.437.437,0,0,0,.437.437H5.749V10.306a.437.437,0,0,1,.437-.437h3.5a.437.437,0,0,1,.437.437v2.186h1.312a.437.437,0,0,0,.437-.437V7.683a1.312,1.312,0,0,0-1.312-1.312H10.12V3.312A1.312,1.312,0,0,0,8.809,2ZM6.623,4.186a.437.437,0,1,1-.437-.437A.437.437,0,0,1,6.623,4.186Zm0,2.186a.437.437,0,1,1-.437-.437A.437.437,0,0,1,6.623,6.372Zm0,2.186a.437.437,0,1,1-.437-.437A.437.437,0,0,1,6.623,8.558ZM8.372,4.186a.437.437,0,1,1-.437-.437A.437.437,0,0,1,8.372,4.186Zm0,2.186a.437.437,0,1,1-.437-.437A.437.437,0,0,1,8.372,6.372Zm0,2.186a.437.437,0,1,1-.437-.437A.437.437,0,0,1,8.372,8.558Zm1.749,0a.437.437,0,1,1-.437-.437A.437.437,0,0,1,10.12,8.558Zm-.874,3.935V10.743H8.374v1.749Zm-1.746,0V10.743H6.623v1.749Z" transform="translate(66 647)" fill="#296df6"/>
  </g>
</svg>
