<svg xmlns="http://www.w3.org/2000/svg" width="24" height="24" viewBox="0 0 24 24">
  <g id="Keratoconus" transform="translate(-62 -644)">
    <rect id="Rectangle_6711" data-name="Rectangle 6711" width="24" height="24" transform="translate(62 644)" fill="#296df6" opacity="0"/>
    <g id="keratoconus-2" data-name="keratoconus" transform="translate(60.116 640.001)">
      <ellipse id="Ellipse_51" data-name="Ellipse 51" cx="2" cy="4" rx="2" ry="4" transform="translate(6.884 12)" fill="#296df6"/>
      <path id="Path_37938" data-name="Path 37938" d="M12.178,28.019a10.383,10.383,0,0,1-8.639-4.571l-.116-.039c-1.317-.387-2.983-.891-3.835-2.4a5.456,5.456,0,0,1-.271-4.533,8.569,8.569,0,0,1,4.029-4.687,1.685,1.685,0,0,0,.271-.232A10.431,10.431,0,0,1,10.59,7.216,11.491,11.491,0,0,1,12.217,7.1c4.92,0,8.22,3.487,9.227,8.329.039.155,1.116.31,1.232.387a1.033,1.033,0,0,1,.271.542.81.81,0,0,1-.775.814h0c-.581,0-2.085-.426-2.162-1.007-.387-2.518-.859-4.726-2.99-6.121A8.9,8.9,0,0,0,4.7,12.678a.618.618,0,0,1-.349.271A7.08,7.08,0,0,0,.789,16.94a3.973,3.973,0,0,0,.194,3.254c.542.968,1.666,1.317,2.905,1.666a1.774,1.774,0,0,1,1.007.736,8.838,8.838,0,0,0,5.927,3.68,8.469,8.469,0,0,0,1.395.116h0c4.416,0,7.1-3.177,7.794-7.554.077-.542,1.581-.968,2.162-.968a.777.777,0,0,1,.775.775.914.914,0,0,1-.271.62c-.077.077-1.155.232-1.194.387-.581,2.712-1.131,5.036-3.455,6.547a10.331,10.331,0,0,1-5.85,1.821Z" transform="translate(2.936 -1.561)" fill="#296df6"/>
      <path id="Path_37939" data-name="Path 37939" d="M21.607,18.261c-.367,0-1.66.254-1.734.617-.734,4.755-4.245,8.022-9.05,7.26a8.8,8.8,0,0,1-5.869-3.63,1.663,1.663,0,0,0-.77-.544h0c-1.174-.327-2.384-.69-2.971-1.742a3.949,3.949,0,0,1-.183-3.339,6.965,6.965,0,0,1,3.595-3.956.285.285,0,0,0,.147-.145A8.908,8.908,0,0,1,16.949,10.2c2.127,1.343,2.558,3.521,2.925,5.989.037.363,1.367.617,1.734.617a.366.366,0,0,0,.367-.363.328.328,0,0,0-.11-.254c-.183-.145-1.293-.363-1.33-.581-1.027-4.9-4.759-8.167-9.82-7.4a9.6,9.6,0,0,0-6.346,3.92A1.037,1.037,0,0,1,4,12.453,7.755,7.755,0,0,0,.37,16.664a4.729,4.729,0,0,0,.257,3.92c.734,1.307,2.164,1.706,3.411,2.069l.257.073a9.585,9.585,0,0,0,13.2,2.65c2.091-1.379,2.558-3.521,3.071-5.917a.941.941,0,0,1,.33-.581c.073-.073,1.147-.181,1.147-.29A.513.513,0,0,0,21.607,18.261Z" transform="translate(2.936 -1.561)" fill="#296df6"/>
    </g>
  </g>
</svg>
