<svg xmlns="http://www.w3.org/2000/svg" width="17.415" height="19.983" viewBox="0 0 17.415 19.983">
  <path id="location" d="M5.843,4.568A8.707,8.707,0,0,1,18.157,16.882L16.97,18.056q-1.312,1.288-3.406,3.312a2.25,2.25,0,0,1-3.128,0l-3.491-3.4q-.658-.646-1.1-1.09A8.707,8.707,0,0,1,5.843,4.568ZM17.1,5.629A7.207,7.207,0,0,0,6.9,15.821l1.487,1.467q1.228,1.2,3.088,3a.75.75,0,0,0,1.043,0l3.395-3.3q.7-.69,1.18-1.167A7.207,7.207,0,0,0,17.1,5.629ZM12,8a3,3,0,1,1-3,3A3,3,0,0,1,12,8Zm0,1.5A1.5,1.5,0,1,0,13.5,11,1.5,1.5,0,0,0,12,9.5Z" transform="translate(-3.293 -2.018)" fill="#296df6"/>
</svg>
