<svg xmlns="http://www.w3.org/2000/svg" width="24" height="24" viewBox="0 0 24 24">
  <g id="my_community" data-name="my community" transform="translate(-62 -644.001)">
    <rect id="Rectangle_6711" data-name="Rectangle 6711" width="24" height="24" transform="translate(62 644.001)" fill="#296df6" opacity="0"/>
    <path id="Path_37994" data-name="Path 37994" d="M17.75,3A3.25,3.25,0,0,1,21,6.25v5.772a6.471,6.471,0,0,0-1.5-.708V8.5H4.5v9.25A1.75,1.75,0,0,0,6.25,19.5h5.064a6.471,6.471,0,0,0,.708,1.5H6.25A3.25,3.25,0,0,1,3,17.75V6.25A3.25,3.25,0,0,1,6.25,3Zm0,1.5H6.25A1.75,1.75,0,0,0,4.5,6.25V7h15V6.25A1.75,1.75,0,0,0,17.75,4.5ZM17.5,23A5.5,5.5,0,1,0,12,17.5,5.5,5.5,0,0,0,17.5,23Zm-.4-9h1.432a.5.5,0,0,1,.468.676L18.5,16h.635a.47.47,0,0,1,.394.726L16.9,20.764a.518.518,0,0,1-.926-.446L16.75,18h-.778a.5.5,0,0,1-.468-.676l1.125-3A.5.5,0,0,1,17.1,14Z" transform="translate(61 643)" fill="#296df6"/>
  </g>
</svg>
