<svg xmlns="http://www.w3.org/2000/svg" width="24" height="24" viewBox="0 0 24 24">
  <g id="my_community" data-name="my community" transform="translate(-62 -644.001)">
    <rect id="Rectangle_6711" data-name="Rectangle 6711" width="24" height="24" transform="translate(62 644.001)" fill="#296df6" opacity="0"/>
    <path id="Path_37985" data-name="Path 37985" d="M14.75,15a1.75,1.75,0,0,1,1.75,1.75v.962c.117,2.189-1.511,3.3-4.432,3.3S7.5,19.919,7.5,17.75v-1A1.75,1.75,0,0,1,9.25,15Zm0,1.5H9.25a.25.25,0,0,0-.25.25v1c0,1.176.887,1.759,3.067,1.759s3-.564,2.933-1.757v-1A.25.25,0,0,0,14.75,16.5ZM3.75,10H8.126a4.038,4.038,0,0,0-.1,1.5H3.75a.25.25,0,0,0-.25.25v1c0,1.176.887,1.759,3.067,1.759a8.216,8.216,0,0,0,1.208-.077A2.743,2.743,0,0,0,6.6,16.008H6.567C3.658,16.009,2,14.919,2,12.75v-1A1.75,1.75,0,0,1,3.75,10Zm16.5,0A1.75,1.75,0,0,1,22,11.75v.962c.117,2.189-1.511,3.3-4.432,3.3l-.168,0A2.755,2.755,0,0,0,16.18,14.4a7.628,7.628,0,0,0,1.386.108c2.168,0,3-.563,2.933-1.757v-1a.25.25,0,0,0-.25-.25H15.969A4.05,4.05,0,0,0,16,11a4,4,0,0,0-.126-1ZM12,8a3,3,0,1,1-3,3A3,3,0,0,1,12,8Zm0,1.5A1.5,1.5,0,1,0,13.5,11,1.5,1.5,0,0,0,12,9.5ZM6.5,3a3,3,0,1,1-3,3A3,3,0,0,1,6.5,3Zm11,0a3,3,0,1,1-3,3A3,3,0,0,1,17.5,3ZM6.5,4.5A1.5,1.5,0,1,0,8,6,1.5,1.5,0,0,0,6.5,4.5Zm11,0A1.5,1.5,0,1,0,19,6,1.5,1.5,0,0,0,17.5,4.5Z" transform="translate(62 644)" fill="#296df6"/>
  </g>
</svg>
