<svg xmlns="http://www.w3.org/2000/svg" width="18.416" height="20" viewBox="0 0 18.416 20">
  <path id="notification" d="M9.228,1a7.681,7.681,0,0,1,7.686,7.433l0,.257v4.2l1.415,3.236a1.282,1.282,0,0,1-1.174,1.8l-4.855,0a3.076,3.076,0,0,1-6.147.181l-.006-.183H1.307A1.282,1.282,0,0,1,.131,16.126l1.406-3.238v-4.2A7.678,7.678,0,0,1,9.228,1Zm1.538,16.922-3.076,0a1.538,1.538,0,0,0,3.069.148ZM9.228,2.534A6.14,6.14,0,0,0,3.075,8.686v4.521L1.7,16.38H16.767L15.38,13.209V8.7l0-.231A6.14,6.14,0,0,0,9.228,2.534Z" transform="translate(-0.025 -0.996)" fill="#888"/>
</svg>
