<svg xmlns="http://www.w3.org/2000/svg" width="24" height="24" viewBox="0 0 24 24">
  <g id="OPD" transform="translate(-62 -644)">
    <rect id="Rectangle_6711" data-name="Rectangle 6711" width="24" height="24" transform="translate(62 644)" fill="#296df6" opacity="0"/>
    <path id="Subtraction_3" data-name="Subtraction 3" d="M-135.491-17584.5h-9.76a.751.751,0,0,1-.747-.752v-16.5a2.254,2.254,0,0,1,2.249-2.254h8a2.254,2.254,0,0,1,2.249,2.254v5.248h1.25a2.238,2.238,0,0,1,1.626.691,5.349,5.349,0,0,0-1.971.807h-1.657a.75.75,0,0,1-.751-.746v-6a.749.749,0,0,0-.747-.752h-8a.751.751,0,0,0-.751.752v15.75h2v-2.752a.753.753,0,0,1,.751-.752h6.176v.4c0,.416-.008.809-.015,1.1h-1.664v2h1.631c0,.361.02.668.047.941a5.588,5.588,0,0,0,.08.555Zm-5.51-3.5h0v2h2.253v-2Zm3-3.5a1,1,0,0,1-1-1,1,1,0,0,1,1-1,1,1,0,0,1,1,1A1,1,0,0,1-138-17591.5Zm-3.5,0a1,1,0,0,1-1-1,1,1,0,0,1,1-1,1,1,0,0,1,1,1A1,1,0,0,1-141.5-17591.5Zm6.381-.217v0a1,1,0,0,1-.381-.785,1,1,0,0,1,1-1,1,1,0,0,1,.3.045,7.071,7.071,0,0,0-.919,1.738ZM-138-17595a1,1,0,0,1-1-1,1,1,0,0,1,1-1,1,1,0,0,1,1,1A1,1,0,0,1-138-17595Zm-3.5,0a1,1,0,0,1-1-1,1,1,0,0,1,1-1,1,1,0,0,1,1,1A1,1,0,0,1-141.5-17595Zm3.5-3.5a1,1,0,0,1-1-1,1,1,0,0,1,1-1,1,1,0,0,1,1,1A1,1,0,0,1-138-17598.5Zm-3.5,0a1,1,0,0,1-1-1,1,1,0,0,1,1-1,1,1,0,0,1,1,1A1,1,0,0,1-141.5-17598.5Z" transform="translate(210 18250)" fill="#296df6"/>
    <path id="Path_37970" data-name="Path 37970" d="M21,14.5A2.5,2.5,0,1,1,18.5,12,2.5,2.5,0,0,1,21,14.5Zm2,5.375C23,21.431,21.714,23,18.5,23S14,21.437,14,19.875v-.1A1.772,1.772,0,0,1,15.773,18h5.455A1.772,1.772,0,0,1,23,19.772Z" transform="translate(61 643)" fill="#296df6"/>
  </g>
</svg>
