<svg xmlns="http://www.w3.org/2000/svg" width="24" height="24" viewBox="0 0 24 24">
  <g id="Opti_Scan" data-name="Opti Scan" transform="translate(-62 -644)">
    <rect id="Rectangle_6711" data-name="Rectangle 6711" width="24" height="24" transform="translate(62 644)" fill="#296df6" opacity="0"/>
    <path id="Path_37929" data-name="Path 37929" d="M3.49,15.647a.75.75,0,0,0-1.486,0l-.007.1v3.5L2,19.424a2.75,2.75,0,0,0,2.577,2.571L4.747,22h3.5l.1-.007a.75.75,0,0,0,0-1.486l-.1-.007h-3.5l-.128-.006A1.25,1.25,0,0,1,3.5,19.378L3.5,19.25v-3.5Zm18.5,0a.75.75,0,0,0-1.493.1v3.5l-.007.128A1.25,1.25,0,0,1,19.245,20.5h-3.5l-.1.007a.75.75,0,0,0,.1,1.493h3.5l.167-.005a2.75,2.75,0,0,0,2.582-2.745v-3.5ZM9,2.75A.75.75,0,0,0,8.246,2h-3.5l-.168.005A2.75,2.75,0,0,0,2,4.75v3.5l.007.1a.75.75,0,0,0,1.493-.1V4.75L3.5,4.622A1.25,1.25,0,0,1,4.747,3.5h3.5l.1-.007A.75.75,0,0,0,9,2.75Zm10.416-.745L19.245,2h-3.5l-.1.007a.75.75,0,0,0,0,1.486l.1.007h3.5l.128.006a1.25,1.25,0,0,1,1.116,1.116l.007.128v3.5l.007.1a.75.75,0,0,0,1.486,0l.007-.1V4.75l-.006-.174A2.75,2.75,0,0,0,19.413,2.005ZM8.5,13.5A3.5,3.5,0,1,1,12,17,3.5,3.5,0,0,1,8.5,13.5ZM6.21,11.742l-.008.02v0a.75.75,0,0,1-.964.436c-.6-.224-.438-.969-.435-.974l.006-.015.019-.046c.016-.038.038-.09.068-.154.06-.128.148-.305.271-.515a7.572,7.572,0,0,1,1.18-1.527A7.73,7.73,0,0,1,12,6.749a7.73,7.73,0,0,1,5.655,2.219,7.572,7.572,0,0,1,1.18,1.527c.122.21.211.387.271.515.03.064.052.116.068.154l.019.046.006.015,0,.005v0a.75.75,0,0,1-.439.965.758.758,0,0,1-.965-.438l-.008-.021s-.023-.054-.044-.1c-.042-.09-.109-.226-.206-.391a6.073,6.073,0,0,0-.945-1.222A6.235,6.235,0,0,0,12,8.249,6.235,6.235,0,0,0,7.4,10.029a6.071,6.071,0,0,0-.945,1.222c-.1.165-.164.3-.206.391C6.233,11.688,6.218,11.722,6.21,11.742Z" transform="translate(62.003 644)" fill="#296df6"/>
  </g>
</svg>
