<svg xmlns="http://www.w3.org/2000/svg" width="24" height="24" viewBox="0 0 24 24">
  <g id="Opti_Scan" data-name="Opti Scan" transform="translate(-62 -644)">
    <rect id="Rectangle_6711" data-name="Rectangle 6711" width="24" height="24" transform="translate(62 644)" fill="#296df6" opacity="0"/>
    <path id="Path_37992" data-name="Path 37992" d="M6.75,4h10.5A2.75,2.75,0,0,1,20,6.582l0,.168V10.1a2.752,2.752,0,0,1,1.993,2.459L22,12.75v7.5a.75.75,0,0,1-1.493.1l-.007-.1V18H3.5v2.25a.75.75,0,0,1-.648.743L2.75,21a.75.75,0,0,1-.743-.648L2,20.25v-7.5A2.751,2.751,0,0,1,4,10.1V6.75A2.75,2.75,0,0,1,6.582,4.005Zm12.5,7.5H4.75a1.25,1.25,0,0,0-1.244,1.122L3.5,12.75V16.5h17V12.75a1.25,1.25,0,0,0-1.122-1.243Zm-2-6H6.75A1.25,1.25,0,0,0,5.506,6.622L5.5,6.75V10H7A1,1,0,0,1,8,9h2a1,1,0,0,1,.993.883L11,10h2a1,1,0,0,1,1-1h2a1,1,0,0,1,.993.883L17,10h1.5V6.75a1.25,1.25,0,0,0-1.122-1.244Z" transform="translate(62 644)" fill="#296df6"/>
  </g>
</svg>
