<svg xmlns="http://www.w3.org/2000/svg" width="24" height="24" viewBox="0 0 24 24">
  <path id="Search_History" data-name="Search History" d="M20.862,7.793A5.793,5.793,0,1,1,15.069,2,5.793,5.793,0,0,1,20.862,7.793Zm-1.655,0a4.138,4.138,0,1,0-4.138,4.138A4.138,4.138,0,0,0,19.207,7.793ZM15.069,25.172q-.418,0-.828-.022a2.062,2.062,0,0,0-.606-1.441l-.3-.3a13.381,13.381,0,0,0,1.738.112,11.329,11.329,0,0,0,5.993-1.567,4.221,4.221,0,0,0,2.283-3.4v-.414A1.241,1.241,0,0,0,22.1,16.9H11.819a6.19,6.19,0,0,0-.888-1.655H22.1a2.9,2.9,0,0,1,2.9,2.9v.414a5.849,5.849,0,0,1-3.05,4.795A12.971,12.971,0,0,1,15.069,25.172Zm-9.1-1.241a4.943,4.943,0,0,0,2.877-.918l2.745,2.745a.828.828,0,1,0,1.17-1.17l-2.745-2.745a4.966,4.966,0,1,0-4.047,2.088Zm0-1.655a3.31,3.31,0,1,1,3.31-3.31A3.31,3.31,0,0,1,5.966,22.276Z" transform="translate(-1 -2)"/>
</svg>
