<svg xmlns="http://www.w3.org/2000/svg" width="28.002" height="23" viewBox="0 0 28.002 23">
  <path id="In-app_Assessment" data-name="In-app Assessment" d="M6.627,2A13.81,13.81,0,0,1,14,0h0A13.64,13.64,0,0,1,25.033,5.268a16.53,16.53,0,0,1,2.264,3.8,12.783,12.783,0,0,1,.517,1.432,4.045,4.045,0,0,1,.188,1,4.045,4.045,0,0,1-.187,1,12.786,12.786,0,0,1-.517,1.432,16.531,16.531,0,0,1-2.264,3.8A13.64,13.64,0,0,1,14,23h0a13.81,13.81,0,0,1-7.373-2H14a11.643,11.643,0,0,0,9.468-4.516,14.527,14.527,0,0,0,1.986-3.332,10.8,10.8,0,0,0,.436-1.2A4.174,4.174,0,0,0,26,11.513l0-.013,0-.013a4.174,4.174,0,0,0-.105-.435,10.8,10.8,0,0,0-.436-1.2A14.527,14.527,0,0,0,23.47,6.516,11.643,11.643,0,0,0,14,2Zm-2,1.5H14v2H2.787q.089-.116.181-.232A14.906,14.906,0,0,1,4.629,3.5ZM14,17.5a6,6,0,0,0,0-12V7H1.763A16.524,16.524,0,0,0,.733,9H10.877a4,4,0,1,1,0,5H.733a16.525,16.525,0,0,0,1.031,2H14Zm0,0v2H4.629a14.9,14.9,0,0,1-1.66-1.768q-.092-.116-.181-.232Zm-3.874-7H.187A4.036,4.036,0,0,0,0,11.5a4.036,4.036,0,0,0,.187,1h9.939a4.031,4.031,0,0,1,0-2Z" fill="#242424"/>
</svg>
