<svg xmlns="http://www.w3.org/2000/svg" width="24" height="24" viewBox="0 0 24 24">
  <g id="Patient_management" data-name="Patient management" transform="translate(-62 -644)">
    <rect id="Rectangle_6711" data-name="Rectangle 6711" width="24" height="24" transform="translate(62 644)" fill="#296df6" opacity="0"/>
    <path id="Patient_management-2" data-name="Patient management" d="M14.754,10a1.75,1.75,0,0,1,1.75,1.75V15h0v.25a.75.75,0,0,1-1.5,0V13h0V11.75a.25.25,0,0,0-.25-.25h-5.5a.25.25,0,0,0-.25.25V15H9v.25a.75.75,0,0,1-1.5,0V13h0V11.75A1.75,1.75,0,0,1,9.252,10ZM20.5,11.75v3.5a.75.75,0,0,0,1.5,0v-3.5A1.75,1.75,0,0,0,20.25,10H16.875a2.738,2.738,0,0,1,.618,1.5H20.25A.25.25,0,0,1,20.5,11.75ZM2,15.25a.75.75,0,0,0,1.5,0v-3.5a.25.25,0,0,1,.25-.25H6.513A2.738,2.738,0,0,1,7.131,10H3.75A1.75,1.75,0,0,0,2,11.75ZM12,3A3,3,0,1,1,9,6,3,3,0,0,1,12,3Zm0,1.5A1.5,1.5,0,1,0,13.5,6,1.5,1.5,0,0,0,12,4.5ZM18.5,4A2.5,2.5,0,1,1,16,6.5,2.5,2.5,0,0,1,18.5,4Zm0,1.5a1,1,0,1,0,1,1A1,1,0,0,0,18.5,5.5ZM5.5,4A2.5,2.5,0,1,1,3,6.5,2.5,2.5,0,0,1,5.5,4Zm0,1.5a1,1,0,1,0,1,1A1,1,0,0,0,5.5,5.5ZM2.75,17a.75.75,0,0,0-.75.75v.5A3.75,3.75,0,0,0,5.75,22h12.5A3.75,3.75,0,0,0,22,18.25v-.5a.75.75,0,0,0-.75-.75Zm3,3.5a2.25,2.25,0,0,1-2.236-2H20.486a2.25,2.25,0,0,1-2.236,2Z" transform="translate(62 643)" fill="#296df6"/>
  </g>
</svg>
