<svg id="pledge" xmlns="http://www.w3.org/2000/svg" width="24" height="21.68" viewBox="0 0 24 21.68">
  <path id="Path_37769" data-name="Path 37769" d="M26.4,43.558a2.122,2.122,0,0,0-2.5-1.616l-4.292.858a1.875,1.875,0,0,0-1.439-.808l-6.387-.429a3.768,3.768,0,0,0-2.525.732l-3.61,2.626-3,2.979a.64.64,0,0,0,0,.909l4.14,4.14a.673.673,0,0,0,.909,0l2.626-2.626,4.443.555a6.438,6.438,0,0,0,4.292-.985l6.387-4.09A2.069,2.069,0,0,0,26.4,43.558ZM7.259,51.612,4,48.355l1.944-1.944L9.2,49.668Zm17.5-6.867-6.387,4.09a5.154,5.154,0,0,1-3.434.783l-4.544-.555L6.931,45.578l3.08-2.272a2.448,2.448,0,0,1,1.666-.48l6.387.429a.646.646,0,0,1,.581.581.627.627,0,0,1-.48.656l-1.565.353a6.617,6.617,0,0,1-1.868.177l-1.818-.1a.645.645,0,0,0-.076,1.288l1.818.1a7.3,7.3,0,0,0,2.222-.2l1.565-.353a1.849,1.849,0,0,0,1.464-1.692l4.216-.884a.858.858,0,0,1,1.01.656A.869.869,0,0,1,24.755,44.745Z" transform="translate(-2.45 -31.446)" fill="#333"/>
  <path id="Path_37775" data-name="Path 37775" d="M9.646,7.713a2.814,2.814,0,0,1,3.032,2.526,2.814,2.814,0,0,1-3.032,2.526A2.814,2.814,0,0,1,6.614,10.24,2.814,2.814,0,0,1,9.646,7.713Zm0-2.213c3.5,0,6.515,1.989,7.352,4.778a.475.475,0,0,1-.413.575.584.584,0,0,1-.689-.345c-.712-2.369-3.278-4.06-6.25-4.06S4.106,8.14,3.4,10.51a.584.584,0,0,1-.689.345.475.475,0,0,1-.414-.574C3.128,7.491,6.148,5.5,9.646,5.5Z" transform="translate(6.464 -5.5)" fill="#333"/>
</svg>
