<svg xmlns="http://www.w3.org/2000/svg" width="24" height="24" viewBox="0 0 24 24">
  <g id="post_Op_Care" data-name="post Op Care" transform="translate(-46 -644)">
    <rect id="Rectangle_6712" data-name="Rectangle 6712" width="24" height="24" transform="translate(46 644)" fill="#296df6" opacity="0"/>
    <path id="Path_37966" data-name="Path 37966" d="M14.276,9.825A4.936,4.936,0,1,1,9.34,14.761,4.936,4.936,0,0,1,14.276,9.825Zm0-4.325a12.344,12.344,0,0,1,11.971,9.335.926.926,0,1,1-1.8.449A10.493,10.493,0,0,0,4.1,15.29a.926.926,0,0,1-1.8-.449A12.344,12.344,0,0,1,14.276,5.5Z" transform="translate(43.725 642.725)" fill="#296df6"/>
    <path id="Path_37967" data-name="Path 37967" d="M4.629,1.495a.495.495,0,1,0-.99,0V3.639H1.495a.495.495,0,1,0,0,.99H3.639V6.773a.495.495,0,1,0,.99,0V4.629H6.773a.495.495,0,1,0,0-.99H4.629Z" transform="translate(53.866 653.538)" fill="#f7faff"/>
  </g>
</svg>
