<svg xmlns="http://www.w3.org/2000/svg" width="24" height="24" viewBox="0 0 24 24">
  <g id="Register_Donor" data-name="Register Donor" transform="translate(-62 -644)">
    <rect id="Rectangle_6711" data-name="Rectangle 6711" width="24" height="24" transform="translate(62 644)" fill="#296df6" opacity="0"/>
    <g id="registration" transform="translate(64 647)">
      <path id="Path_37769" data-name="Path 37769" d="M22.405,43.224a1.768,1.768,0,0,0-2.083-1.346l-3.577.715a1.562,1.562,0,0,0-1.2-.673l-5.323-.358a3.14,3.14,0,0,0-2.1.61L5.111,44.36l-2.5,2.483a.533.533,0,0,0,0,.757l3.45,3.45a.561.561,0,0,0,.757,0L9,48.862l3.7.463a5.365,5.365,0,0,0,3.577-.821L21.606,45.1A1.724,1.724,0,0,0,22.405,43.224ZM6.458,49.935,3.744,47.221l1.62-1.62,2.714,2.714Zm14.58-5.723-5.323,3.408a4.3,4.3,0,0,1-2.861.652L9.067,47.81l-2.882-2.9,2.567-1.893a2.04,2.04,0,0,1,1.389-.4l5.323.358a.538.538,0,0,1,.484.484.522.522,0,0,1-.4.547l-1.3.295a5.514,5.514,0,0,1-1.557.147l-1.515-.084a.537.537,0,1,0-.063,1.073l1.515.084a6.084,6.084,0,0,0,1.851-.168l1.3-.295A1.541,1.541,0,0,0,17,43.644l3.513-.736a.715.715,0,0,1,.842.547A.724.724,0,0,1,21.038,44.212Z" transform="translate(-2.45 -33.13)" fill="#296df6"/>
      <path id="Path_37775" data-name="Path 37775" d="M8.417,7.345A2.345,2.345,0,0,1,10.944,9.45a2.345,2.345,0,0,1-2.526,2.105A2.345,2.345,0,0,1,5.891,9.45,2.345,2.345,0,0,1,8.417,7.345Zm0-1.845c2.914,0,5.429,1.658,6.127,3.981a.4.4,0,0,1-.344.479.487.487,0,0,1-.575-.287A5.283,5.283,0,0,0,8.417,6.289,5.282,5.282,0,0,0,3.209,9.675a.487.487,0,0,1-.574.287.4.4,0,0,1-.345-.479C2.986,7.159,5.5,5.5,8.417,5.5Z" transform="translate(5.007 -5.5)" fill="#296df6"/>
    </g>
  </g>
</svg>
