<svg xmlns="http://www.w3.org/2000/svg" width="24" height="24" viewBox="0 0 24 24">
  <g id="Register_patient" data-name="Register patient" transform="translate(-62 -644)">
    <rect id="Rectangle_6711" data-name="Rectangle 6711" width="24" height="24" transform="translate(62 644)" fill="#296df6" opacity="0"/>
    <path id="Path_37986" data-name="Path 37986" d="M17.5,12A5.5,5.5,0,1,1,12,17.5,5.5,5.5,0,0,1,17.5,12ZM4,13h8.809a6.518,6.518,0,0,0-1.077,1.5H4l-.1.01a.5.5,0,0,0-.389.389L3.5,15v1.5a2.375,2.375,0,0,0,1.417,2.242,7.631,7.631,0,0,0,3.266.753l.317,0,.317,0A8.794,8.794,0,0,0,11.2,19.11a6.372,6.372,0,0,0,.537,1.4A10.482,10.482,0,0,1,8.5,21c-2.722,0-6.335-.956-6.495-4.27L2,16.5V15A2,2,0,0,1,4,13Zm13.5,1-.09.008a.5.5,0,0,0-.4.4L17,14.5V17H14.5l-.09.008a.5.5,0,0,0-.4.4L14,17.5l.008.09a.5.5,0,0,0,.4.4L14.5,18H17v2.5l.008.09a.5.5,0,0,0,.4.4L17.5,21l.09-.008a.5.5,0,0,0,.4-.4L18,20.5V18h2.5l.09-.008a.5.5,0,0,0,.4-.4L21,17.5l-.008-.09a.5.5,0,0,0-.4-.4L20.5,17H18V14.5l-.008-.09a.5.5,0,0,0-.4-.4ZM8.5,2A4.5,4.5,0,1,1,4,6.5,4.5,4.5,0,0,1,8.5,2Zm9,2Zm-9-.5a3,3,0,1,0,3,3A3,3,0,0,0,8.5,3.5Z" transform="translate(62 644)" fill="#296df6"/>
  </g>
</svg>
