<svg xmlns="http://www.w3.org/2000/svg" width="16" height="20" viewBox="0 0 16 20">
  <path id="report" d="M8.75,11.5a.75.75,0,0,0,0,1.5h6.5a.75.75,0,0,0,0-1.5Zm0,2.75a.75.75,0,0,0,0,1.5h6.5a.75.75,0,0,0,0-1.5Zm0,2.75a.75.75,0,0,0,0,1.5h6.5a.75.75,0,0,0,0-1.5ZM13.585,2.586l5.829,5.828A2,2,0,0,1,20,9.828V20a2,2,0,0,1-2,2H6a2,2,0,0,1-2-2V4A2,2,0,0,1,6,2h6.172a.605.605,0,0,1,.082.007l.059.007a1.977,1.977,0,0,1,.624.138,1.549,1.549,0,0,1,.166.087l.05.029.047.024a.652.652,0,0,1,.081.044,2.072,2.072,0,0,1,.219.18l.036.029A.491.491,0,0,1,13.585,2.586ZM18,20.5a.5.5,0,0,0,.5-.5V10H14a2,2,0,0,1-2-2V3.5H6a.5.5,0,0,0-.5.5V20a.5.5,0,0,0,.5.5Zm-.622-12L13.5,4.621V8a.5.5,0,0,0,.5.5Z" transform="translate(-4 -2)" fill="#296df6"/>
</svg>
