<svg xmlns="http://www.w3.org/2000/svg" width="16" height="16" viewBox="0 0 16 16">
  <path id="eye_Scan" data-name="eye Scan" d="M3,5.909A2.909,2.909,0,0,1,5.909,3H8.34a.727.727,0,0,1,0,1.455H5.909A1.455,1.455,0,0,0,4.455,5.909v2.43A.727.727,0,0,1,3,8.339Zm9.933-2.182A.727.727,0,0,1,13.661,3h2.43A2.909,2.909,0,0,1,19,5.909v2.43a.727.727,0,1,1-1.455,0V5.909a1.455,1.455,0,0,0-1.455-1.455h-2.43A.727.727,0,0,1,12.933,3.727ZM3.727,12.933a.727.727,0,0,1,.727.727v2.43a1.455,1.455,0,0,0,1.455,1.455h2.43a.727.727,0,0,1,0,1.455H5.909A2.909,2.909,0,0,1,3,16.091v-2.43A.727.727,0,0,1,3.727,12.933Zm14.545,0a.727.727,0,0,1,.727.727v2.43A2.909,2.909,0,0,1,16.091,19h-2.43a.727.727,0,1,1,0-1.455h2.43a1.455,1.455,0,0,0,1.455-1.455v-2.43A.727.727,0,0,1,18.273,12.933ZM11,12.455A1.455,1.455,0,1,0,9.545,11,1.455,1.455,0,0,0,11,12.455ZM9.995,6.636a1.091,1.091,0,0,0-.976.6l-.426.852h-.5A1.455,1.455,0,0,0,6.636,9.545v3.636a1.455,1.455,0,0,0,1.455,1.455h5.818a1.455,1.455,0,0,0,1.455-1.455V9.545a1.455,1.455,0,0,0-1.455-1.455h-.5l-.426-.852a1.091,1.091,0,0,0-.976-.6ZM11,8.818A2.182,2.182,0,1,1,8.818,11,2.182,2.182,0,0,1,11,8.818Z" transform="translate(-3 -3)" fill="#00aed0"/>
</svg>
