<svg id="speaker" xmlns="http://www.w3.org/2000/svg" width="40" height="40" viewBox="0 0 40 40">
  <g id="Rectangle_7909" data-name="Rectangle 7909" fill="#fff" stroke="#888" stroke-width="1">
    <rect width="40" height="40" rx="20" stroke="none"/>
    <rect x="0.5" y="0.5" width="39" height="39" rx="19.5" fill="none"/>
  </g>
  <path id="Path_38535" data-name="Path 38535" d="M16.5,4.815A1.25,1.25,0,0,0,14.4,3.9L9.458,8.533a1.75,1.75,0,0,1-1.2.473H5.25A3.25,3.25,0,0,0,2,12.256v3.492A3.25,3.25,0,0,0,5.25,19H8.262a1.75,1.75,0,0,1,1.2.473L14.4,24.1a1.25,1.25,0,0,0,2.1-.912ZM10.484,9.627,15,5.392V22.608l-4.516-4.232A3.25,3.25,0,0,0,8.262,17.5H5.25a1.75,1.75,0,0,1-1.75-1.75V12.256a1.75,1.75,0,0,1,1.75-1.75H8.261A3.25,3.25,0,0,0,10.484,9.627ZM22.7,5.253a.75.75,0,0,0-1.126.991,11.751,11.751,0,0,1,0,15.514.75.75,0,0,0,1.126.991,13.251,13.251,0,0,0,0-17.5ZM20.353,8.3a.75.75,0,1,0-1.2.9,8,8,0,0,1,0,9.594.75.75,0,0,0,1.2.9,9.5,9.5,0,0,0,0-11.394Z" transform="translate(6 6.438)" fill="#333"/>
</svg>
