<svg xmlns="http://www.w3.org/2000/svg" width="24" height="24" viewBox="0 0 24 24">
  <g id="spectacles" transform="translate(-62 -644)">
    <rect id="Rectangle_6711" data-name="Rectangle 6711" width="24" height="24" transform="translate(62 644)" fill="#296df6" opacity="0"/>
    <path id="Path_37926" data-name="Path 37926" d="M7.321,1.5a1.25,1.25,0,0,0-.878.36L3.768,4.5H8.25a2.751,2.751,0,0,1,2.7,2.25h2.091a2.751,2.751,0,0,1,2.7-2.25h4.482L17.557,1.86a1.25,1.25,0,0,0-.878-.36H15.25a.75.75,0,0,1,0-1.5h1.429a2.75,2.75,0,0,1,1.932.793l4.421,4.363a2.769,2.769,0,0,1,.288.284l.026.026,0,0A2.739,2.739,0,0,1,24,7.25v4A3.75,3.75,0,0,1,20.25,15h-3.5A3.75,3.75,0,0,1,13,11.25v-3H11v3A3.75,3.75,0,0,1,7.25,15H3.75A3.75,3.75,0,0,1,0,11.25v-4A2.739,2.739,0,0,1,.655,5.468l0,0L.68,5.44a2.767,2.767,0,0,1,.288-.284L5.389.793A2.75,2.75,0,0,1,7.321,0H8.75a.75.75,0,0,1,0,1.5ZM22.026,6.27A1.245,1.245,0,0,0,21.25,6h-5.5A1.25,1.25,0,0,0,14.5,7.25v4a2.25,2.25,0,0,0,2.25,2.25h3.5a2.25,2.25,0,0,0,2.25-2.25v-4a1.245,1.245,0,0,0-.28-.789Zm-20.051,0-.194.192a1.245,1.245,0,0,0-.28.789v4A2.25,2.25,0,0,0,3.75,13.5h3.5A2.25,2.25,0,0,0,9.5,11.25v-4A1.25,1.25,0,0,0,8.25,6H2.75A1.245,1.245,0,0,0,1.974,6.27Z" transform="translate(62 649)" fill="#296df6"/>
  </g>
</svg>
