<svg xmlns="http://www.w3.org/2000/svg" width="40" height="40" viewBox="0 0 40 40">
  <g id="swap_cam" data-name="swap cam" transform="translate(-314 -802)">
    <path id="Path_37895" data-name="Path 37895" d="M82,42A20,20,0,1,0,62,22,20,20,0,0,0,82,42Z" transform="translate(252 800)" fill="#fff" fill-rule="evenodd" opacity="0.25"/>
    <path id="switch_cam" data-name="switch cam" d="M20.22,2.22a.75.75,0,0,1,1.061,0l3,3a.75.75,0,0,1,0,1.061l-3,3A.75.75,0,0,1,20.22,8.22l1.72-1.72H5A1.5,1.5,0,0,0,3.5,8v9.75a.75.75,0,0,1-1.5,0V8A3,3,0,0,1,5,5H21.939L20.22,3.28A.75.75,0,0,1,20.22,2.22ZM24.5,20A1.5,1.5,0,0,1,23,21.5H6.061l1.72-1.72A.75.75,0,0,0,6.72,18.72l-3,3a.75.75,0,0,0,0,1.061l3,3A.75.75,0,0,0,7.78,24.72L6.061,23H23a3,3,0,0,0,3-3V10.25a.75.75,0,0,0-1.5,0Zm-6-6A4.5,4.5,0,1,1,14,9.5,4.5,4.5,0,0,1,18.5,14Z" transform="translate(320 808)" fill="#fff"/>
  </g>
</svg>
