<svg xmlns="http://www.w3.org/2000/svg" width="40" height="40" viewBox="0 0 40 40">
  <g id="sync_error" data-name="sync error" transform="translate(-356 -61)">
    <rect id="Rectangle_4" data-name="Rectangle 4" width="40" height="40" transform="translate(356 61)" fill="#d00" opacity="0"/>
    <path id="Path_100657" data-name="Path 100657" d="M14,4a6.5,6.5,0,0,0-6.481,6H7.25a4.75,4.75,0,0,0,0,9.5H13a7.533,7.533,0,0,1,.15-1.5H7.25a3.25,3.25,0,0,1,0-6.5h1A.75.75,0,0,0,9,10.75V10.5a5,5,0,0,1,10,0v.25a.75.75,0,0,0,.75.75h1a3.24,3.24,0,0,1,2.286.939,7.5,7.5,0,0,1,2.376,1.392A4.752,4.752,0,0,0,20.75,10h-.269A6.5,6.5,0,0,0,14,4ZM27,19.5A6.5,6.5,0,1,1,20.5,13,6.5,6.5,0,0,1,27,19.5ZM20.5,16a.5.5,0,0,0-.5.5v4a.5.5,0,0,0,1,0v-4A.5.5,0,0,0,20.5,16Zm0,7.125a.625.625,0,1,0-.625-.625A.625.625,0,0,0,20.5,23.125Z" transform="translate(361.25 66)" fill="#d00"/>
  </g>
</svg>
