<svg xmlns="http://www.w3.org/2000/svg" width="15.999" height="19.996" viewBox="0 0 15.999 19.996">
  <path id="toll_free" data-name="toll free" d="M20.416,16.246A2.249,2.249,0,0,0,18.167,14H6.665a2.249,2.249,0,0,0-2.249,2.249v.578a3.75,3.75,0,0,0,.9,2.435C6.881,21.093,9.267,22,12.413,22s5.532-.9,7.1-2.738a3.75,3.75,0,0,0,.9-2.438ZM6.665,15.5h11.5a.749.749,0,0,1,.749.749v.575a2.25,2.25,0,0,1-.541,1.463c-1.257,1.468-3.224,2.214-5.962,2.214s-4.7-.746-5.958-2.213a2.25,2.25,0,0,1-.539-1.461v-.578A.749.749,0,0,1,6.665,15.5ZM17.413,7A5,5,0,0,0,8.388,4.035.75.75,0,0,0,8.164,4h-2.5a.75.75,0,0,0-.75.75v5.5A2.75,2.75,0,0,0,7.666,13h.25v0h.01a1,1,0,1,0-.786-1.611,1.25,1.25,0,0,1-.724-1.134V10h.748a1.742,1.742,0,0,0,1.02-.328A5,5,0,0,0,17.413,7Zm-10-.106q0,.053,0,.106t0,.106V8.249a.25.25,0,0,1-.25.25H6.416v-3h1Zm1.5.195V6.913a3.5,3.5,0,1,1,0,.177Z" transform="translate(-4.416 -2.002)" fill="#296df6"/>
</svg>
