<svg viewBox="0 0 23 26" fill="none">
    <g id="src-11" class="icon">
        <path
            d="M1.90516 12.2081H0L4.2808 0H6.3544L10.6352 12.2081H8.73004L5.36697 2.21749H5.27403L1.90516 12.2081ZM2.22462 7.42738H8.40477V8.97724H2.22462V7.42738Z"
            fill="currentColor" />
        <path
            d="M18.1035 17.7307C18.1035 18.6446 17.8109 19.3235 17.2257 19.7674C16.6532 20.2113 15.9408 20.4333 15.0884 20.4333C13.9944 20.4333 13.0212 20.0155 12.1688 19.1799C11.3165 18.3444 10.4896 16.9604 9.68808 15.0282L11.0429 14.519C11.59 15.9029 12.1815 16.9996 12.8176 17.8091C13.4537 18.6055 14.1661 19.0037 14.9549 19.0037C15.4383 19.0037 15.8327 18.8927 16.138 18.6708C16.4433 18.4357 16.596 18.0637 16.596 17.5545C16.596 17.0714 16.4624 16.6406 16.1952 16.2619C15.9408 15.8833 15.61 15.5308 15.2029 15.2044C14.8595 15.2697 14.4905 15.3089 14.0962 15.3219L14.0007 13.9511C14.8658 13.9249 15.4765 13.7683 15.8327 13.481C16.2016 13.1938 16.3861 12.8087 16.3861 12.3256C16.3861 11.8556 16.2334 11.5161 15.9281 11.3072C15.6355 11.0983 15.292 10.9939 14.8976 10.9939C14.4269 10.9939 14.0007 11.0592 13.6191 11.1897C13.2374 11.3203 12.8303 11.4965 12.3978 11.7185L11.9207 10.3672C12.2515 10.1844 12.6586 10.0147 13.142 9.85803C13.6382 9.70136 14.1979 9.62303 14.8213 9.62303C15.8136 9.62303 16.5705 9.87762 17.0921 10.3868C17.6264 10.896 17.8936 11.5357 17.8936 12.306C17.8936 13.3244 17.4674 14.1077 16.6151 14.6561C16.755 14.7866 16.8822 14.9172 16.9967 15.0477C17.4801 15.113 17.9508 15.1457 18.4088 15.1457C18.8159 15.1457 19.1785 15.1261 19.4965 15.0869C19.8146 15.0477 20.139 14.9825 20.4697 14.8911V11.2093H19.0767V9.81887H24V11.2093H22.0154V22H20.4697V16.3207C20.1644 16.399 19.8654 16.4578 19.5728 16.4969C19.2802 16.5231 18.9686 16.5361 18.6378 16.5361C18.4215 16.5361 18.148 16.5165 17.8173 16.4774C18.0081 16.869 18.1035 17.2868 18.1035 17.7307Z"
            fill="currentColor" />
    </g>
</svg>