<svg xmlns="http://www.w3.org/2000/svg" width="36" height="40" viewBox="0 0 36 40">
  <path id="triage" d="M32.613,19.154a1.25,1.25,0,0,0-1.726-1.808L20.77,27l-3.636-3.636a1.25,1.25,0,0,0-1.768,1.768l4.5,4.5a1.25,1.25,0,0,0,1.747.02ZM24.865,4.348a1.25,1.25,0,0,0-1.73,0C20.376,6.991,16.45,8.425,13.1,9.187a35.656,35.656,0,0,1-4.2.69c-.531.055-.956.085-1.246.1-.145.009-.255.014-.328.017l-.08,0H7.22A1.25,1.25,0,0,0,6,11.25v9.5a23.953,23.953,0,0,0,4.1,13.775c2.861,4.126,7.291,7.469,13.529,9.418a1.25,1.25,0,0,0,.746,0C36.941,40.016,42,30.5,42,21V11.25A1.25,1.25,0,0,0,40.779,10h-.021l-.08,0c-.073,0-.183-.008-.328-.017-.29-.017-.715-.048-1.246-.1a35.655,35.655,0,0,1-4.2-.69C31.549,8.425,27.623,6.991,24.865,4.348ZM8.5,20.75V12.425c.2-.016.415-.036.651-.061a38.155,38.155,0,0,0,4.5-.739A25.094,25.094,0,0,0,24,6.923a25.094,25.094,0,0,0,10.348,4.7,38.154,38.154,0,0,0,4.5.739c.237.024.454.044.651.061V21c0,8.41-4.344,16.8-15.5,20.438A22.326,22.326,0,0,1,12.152,33.1,21.457,21.457,0,0,1,8.5,20.75Z" transform="translate(-6 -4)" fill="#296df6"/>
</svg>
