<svg xmlns="http://www.w3.org/2000/svg" width="16.003" height="19.5" viewBox="0 0 16.003 19.5">
  <path id="vision_center" data-name="vision center" d="M8.5,5.5a1,1,0,1,0,1,1A1,1,0,0,0,8.5,5.5Zm-1,8a1,1,0,1,1,1,1A1,1,0,0,1,7.5,13.5ZM8.5,9a1,1,0,1,0,1,1A1,1,0,0,0,8.5,9ZM11,6.5a1,1,0,1,1,1,1A1,1,0,0,1,11,6.5Zm1,6a1,1,0,1,0,1,1A1,1,0,0,0,12,12.5Zm2.5,1a1,1,0,1,1,1,1A1,1,0,0,1,14.5,13.5ZM12,9a1,1,0,1,0,1,1A1,1,0,0,0,12,9ZM6.25,2A2.25,2.25,0,0,0,4,4.25v16.5a.75.75,0,0,0,.75.75h14.5a.75.75,0,0,0,.75-.75v-9a2.25,2.25,0,0,0-2.25-2.25H16.5V4.25A2.25,2.25,0,0,0,14.25,2ZM5.5,4.25a.75.75,0,0,1,.75-.75h8a.75.75,0,0,1,.75.75v6a.75.75,0,0,0,.75.75h2a.75.75,0,0,1,.75.75V20h-2V17.25a.75.75,0,0,0-.75-.75H8.25a.75.75,0,0,0-.75.75V20h-2ZM15,18v2H12.75V18Zm-3.75,0v2H9V18Z" transform="translate(-4 -2)" fill="#296df6"/>
</svg>
