<svg xmlns="http://www.w3.org/2000/svg" width="24" height="24" viewBox="0 0 24 24">
  <path id="Availibity" d="M6.235,7.647a5.647,5.647,0,1,1,5.647,5.647A5.647,5.647,0,0,1,6.235,7.647Zm5.647-4.235a4.235,4.235,0,1,0,4.235,4.235A4.235,4.235,0,0,0,11.882,3.412ZM2,17.529a2.825,2.825,0,0,1,2.836-2.824h8.821a7.769,7.769,0,0,0-.928,1.412H4.836a1.414,1.414,0,0,0-1.424,1.412A4.736,4.736,0,0,0,5.773,21.7a11.523,11.523,0,0,0,6.109,1.478q.424,0,.836-.02a7.767,7.767,0,0,0,.873,1.351c-.558.054-1.129.081-1.709.081a12.906,12.906,0,0,1-6.868-1.7A6.145,6.145,0,0,1,2,17.529Zm24,2.118a6.353,6.353,0,1,1-6.353-6.353A6.353,6.353,0,0,1,26,19.647Zm-6.353-3.529a.706.706,0,0,0-.706.706v2.824a.706.706,0,0,0,.706.706h2.118a.706.706,0,1,0,0-1.412H20.353V16.824A.706.706,0,0,0,19.647,16.118Z" transform="translate(-2 -2)" fill="#888"/>
</svg>
