<svg xmlns="http://www.w3.org/2000/svg" width="22" height="22" viewBox="0 0 22 22">
  <path id="Appointments" d="M21.75,3A3.25,3.25,0,0,1,25,6.25v15.5A3.25,3.25,0,0,1,21.75,25H6.25A3.25,3.25,0,0,1,3,21.75V6.25A3.25,3.25,0,0,1,6.25,3ZM23.5,9.5H4.5V21.75A1.75,1.75,0,0,0,6.25,23.5h15.5a1.75,1.75,0,0,0,1.75-1.75Zm-14.751,8a1.25,1.25,0,1,1-1.25,1.25A1.25,1.25,0,0,1,8.749,17.5ZM14,17.5a1.25,1.25,0,1,1-1.25,1.25A1.25,1.25,0,0,1,14,17.5Zm-5.255-5a1.25,1.25,0,1,1-1.25,1.25A1.25,1.25,0,0,1,8.749,12.5ZM14,12.5a1.25,1.25,0,1,1-1.25,1.25A1.25,1.25,0,0,1,14,12.5Zm5.254,0a1.25,1.25,0,1,1-1.25,1.25A1.25,1.25,0,0,1,19.258,12.5Zm2.492-8H6.25A1.75,1.75,0,0,0,4.5,6.25V8h19V6.25A1.75,1.75,0,0,0,21.75,4.5Z" transform="translate(-3 -3)" fill="#888"/>
</svg>
