<svg xmlns="http://www.w3.org/2000/svg" width="23.922" height="23.5" viewBox="0 0 23.922 23.5">
  <path id="IVR_CALL" data-name="IVR CALL" d="M25.957,8.939a5.71,5.71,0,0,1-1.3,3.249l-.146.183a2.75,2.75,0,0,1-2.42,1.017l-2.519-.252a2.75,2.75,0,0,1-2.394-2.069L16.74,9.3a.883.883,0,0,0-.541-.671,8.1,8.1,0,0,0-4.4,0,.881.881,0,0,0-.54.67l-.441,1.766a2.75,2.75,0,0,1-2.394,2.069l-2.519.252a2.75,2.75,0,0,1-2.42-1.017l-.146-.183a5.71,5.71,0,0,1-1.3-3.249,3.849,3.849,0,0,1,1.378-3.2C5.349,4.119,8.631,2.5,14,2.5s8.651,1.619,10.579,3.239A3.849,3.849,0,0,1,25.957,8.939Zm-1.5-.066a2.35,2.35,0,0,0-.845-1.986C21.977,5.511,19.043,4,14,4S6.024,5.511,4.387,6.887a2.35,2.35,0,0,0-.845,1.986,4.217,4.217,0,0,0,.968,2.378l.146.183a1.25,1.25,0,0,0,1.1.462l2.519-.252A1.25,1.25,0,0,0,9.364,10.7l.442-1.766A2.371,2.371,0,0,1,11.357,7.2a9.586,9.586,0,0,1,5.288,0,2.373,2.373,0,0,1,1.55,1.74l.441,1.766a1.25,1.25,0,0,0,1.088.941l2.519.252a1.25,1.25,0,0,0,1.1-.462l.146-.183A4.216,4.216,0,0,0,24.458,8.873ZM14.5,17.25a.75.75,0,0,0-1.5,0v3a.75.75,0,0,0,.75.75h2a.75.75,0,0,0,0-1.5H14.5ZM14,26a6.5,6.5,0,1,0-6.5-6.5A6.5,6.5,0,0,0,14,26Zm0-1.5a5,5,0,1,1,5-5A5,5,0,0,1,14,24.5Z" transform="translate(-2.039 -2.5)" fill="#888"/>
</svg>
