<svg xmlns="http://www.w3.org/2000/svg" width="24" height="24" viewBox="0 0 24 24">
  <path id="Register" d="M12.589,22.77a7.231,7.231,0,0,1-1-1.3A15.318,15.318,0,0,1,9.6,21.6c-4.907,0-8.16-2.027-8.16-4.594V16.32l.007-.139a1.44,1.44,0,0,1,1.433-1.3h8.279A7.187,7.187,0,0,1,12,13.44H2.88A2.88,2.88,0,0,0,0,16.32v.686c0,3.57,4.042,6.034,9.6,6.034A16.115,16.115,0,0,0,12.589,22.77ZM15.36,5.76A5.76,5.76,0,1,0,9.6,11.52,5.76,5.76,0,0,0,15.36,5.76Zm-10.08,0A4.32,4.32,0,1,1,9.6,10.08,4.32,4.32,0,0,1,5.28,5.76ZM17.76,24a6.24,6.24,0,1,0-6.24-6.24A6.24,6.24,0,0,0,17.76,24Zm0-10.56a.48.48,0,0,1,.48.48v3.36H21.6a.48.48,0,0,1,0,.96H18.24V21.6a.48.48,0,0,1-.96,0V18.24H13.92a.48.48,0,1,1,0-.96h3.36V13.92A.48.48,0,0,1,17.76,13.44Z" fill="#888"/>
</svg>
